<?xml version="1.0" standalone="no"?>
 <!DOCTYPE svg PUBLIC "-//W3C//DTD SVG 1.1//EN" 
 "http://www.w3.org/Graphics/SVG/1.1/DTD/svg11.dtd"> 
<svg xmlns="http://www.w3.org/2000/svg" version="1.1" 
    width="29.7002cm" height="21.0007cm" viewBox="0 0 116930 82680 ">
<title>SVG Picture created as sram-register-file.svg date 2020/01/31 16:37:35 </title>
  <desc>Picture generated by Eeschema-SVG </desc>
<g style="fill:#000000; fill-opacity:1;stroke:#000000; stroke-opacity:1;
stroke-linecap:round; stroke-linejoin:round; "
 transform="translate(0 0) scale(1 1)">
</g>
<g style="fill:#000000; fill-opacity:0.0; 
stroke:#000000; stroke-width:-10; stroke-opacity:1; 
stroke-linecap:round; stroke-linejoin:round;">
</g>
<g style="fill:#840000; fill-opacity:0.0; 
stroke:#840000; stroke-width:-10; stroke-opacity:1; 
stroke-linecap:round; stroke-linejoin:round;">
</g>
<g style="fill:#840000; fill-opacity:0.0; 
stroke:#840000; stroke-width:100; stroke-opacity:1; 
stroke-linecap:round; stroke-linejoin:round;">
</g>
<g style="fill:#840000; fill-opacity:0.0; 
stroke:#840000; stroke-width:60; stroke-opacity:1; 
stroke-linecap:round; stroke-linejoin:round;">
<rect x="69690" y="65360" width="42520" height="12600" rx="0" />
</g>
<g style="fill:#840000; fill-opacity:0.0; 
stroke:#840000; stroke-width:100; stroke-opacity:1; 
stroke-linecap:round; stroke-linejoin:round;">
</g>
<g style="fill:#840000; fill-opacity:0.0; 
stroke:#840000; stroke-width:60; stroke-opacity:1; 
stroke-linecap:round; stroke-linejoin:round;">
<rect x="3940" y="3940" width="109050" height="74800" rx="0" />
</g>
<g style="fill:#840000; fill-opacity:0.0; 
stroke:#840000; stroke-width:100; stroke-opacity:1; 
stroke-linecap:round; stroke-linejoin:round;">
</g>
<g style="fill:#840000; fill-opacity:0.0; 
stroke:#840000; stroke-width:60; stroke-opacity:1; 
stroke-linecap:round; stroke-linejoin:round;">
<rect x="4720" y="4720" width="107490" height="73240" rx="0" />
</g>
<g style="fill:#840000; fill-opacity:0.0; 
stroke:#840000; stroke-width:100; stroke-opacity:1; 
stroke-linecap:round; stroke-linejoin:round;">
</g>
<g style="fill:#840000; fill-opacity:0.0; 
stroke:#840000; stroke-width:60; stroke-opacity:1; 
stroke-linecap:round; stroke-linejoin:round;">
<path d="M23620 4720
L23620 3940
" />
</g>
<g style="fill:#840000; fill-opacity:0.0; 
stroke:#840000; stroke-width:100; stroke-opacity:1; 
stroke-linecap:round; stroke-linejoin:round;">
</g>
<g style="fill:#840000; fill-opacity:0.0; 
stroke:#840000; stroke-width:60; stroke-opacity:1; 
stroke-linecap:round; stroke-linejoin:round;">
<path d="M43310 4720
L43310 3940
" />
</g>
<g style="fill:#840000; fill-opacity:0.0; 
stroke:#840000; stroke-width:100; stroke-opacity:1; 
stroke-linecap:round; stroke-linejoin:round;">
</g>
<g style="fill:#840000; fill-opacity:0.0; 
stroke:#840000; stroke-width:60; stroke-opacity:1; 
stroke-linecap:round; stroke-linejoin:round;">
<path d="M62990 4720
L62990 3940
" />
</g>
<g style="fill:#840000; fill-opacity:0.0; 
stroke:#840000; stroke-width:100; stroke-opacity:1; 
stroke-linecap:round; stroke-linejoin:round;">
</g>
<g style="fill:#840000; fill-opacity:0.0; 
stroke:#840000; stroke-width:60; stroke-opacity:1; 
stroke-linecap:round; stroke-linejoin:round;">
<path d="M82680 4720
L82680 3940
" />
</g>
<g style="fill:#840000; fill-opacity:0.0; 
stroke:#840000; stroke-width:100; stroke-opacity:1; 
stroke-linecap:round; stroke-linejoin:round;">
</g>
<g style="fill:#840000; fill-opacity:0.0; 
stroke:#840000; stroke-width:60; stroke-opacity:1; 
stroke-linecap:round; stroke-linejoin:round;">
<path d="M102360 4720
L102360 3940
" />
</g>
<g style="fill:#840000; fill-opacity:0.0; 
stroke:#840000; stroke-width:100; stroke-opacity:1; 
stroke-linecap:round; stroke-linejoin:round;">
</g>
<g style="fill:#840000; fill-opacity:0.0; 
stroke:#840000; stroke-width:60; stroke-opacity:1; 
stroke-linecap:round; stroke-linejoin:round;">
<path d="M14190 4560
L13900 4560
" />
<path d="M14050 4560
L14050 4050
L14000 4120
L13950 4170
L13900 4190
" />
</g>
<g style="fill:#840000; fill-opacity:0.0; 
stroke:#840000; stroke-width:100; stroke-opacity:1; 
stroke-linecap:round; stroke-linejoin:round;">
</g>
<g style="fill:#840000; fill-opacity:0.0; 
stroke:#840000; stroke-width:60; stroke-opacity:1; 
stroke-linecap:round; stroke-linejoin:round;">
<path d="M33580 4090
L33610 4070
L33660 4050
L33780 4050
L33830 4070
L33850 4090
L33870 4140
L33870 4190
L33850 4260
L33560 4560
L33870 4560
" />
</g>
<g style="fill:#840000; fill-opacity:0.0; 
stroke:#840000; stroke-width:100; stroke-opacity:1; 
stroke-linecap:round; stroke-linejoin:round;">
</g>
<g style="fill:#840000; fill-opacity:0.0; 
stroke:#840000; stroke-width:60; stroke-opacity:1; 
stroke-linecap:round; stroke-linejoin:round;">
<path d="M53250 4050
L53560 4050
L53390 4240
L53470 4240
L53520 4260
L53540 4290
L53560 4340
L53560 4460
L53540 4510
L53520 4530
L53470 4560
L53320 4560
L53270 4530
L53250 4510
" />
</g>
<g style="fill:#840000; fill-opacity:0.0; 
stroke:#840000; stroke-width:100; stroke-opacity:1; 
stroke-linecap:round; stroke-linejoin:round;">
</g>
<g style="fill:#840000; fill-opacity:0.0; 
stroke:#840000; stroke-width:60; stroke-opacity:1; 
stroke-linecap:round; stroke-linejoin:round;">
<path d="M73200 4220
L73200 4560
" />
<path d="M73070 4020
L72950 4390
L73270 4390
" />
</g>
<g style="fill:#840000; fill-opacity:0.0; 
stroke:#840000; stroke-width:100; stroke-opacity:1; 
stroke-linecap:round; stroke-linejoin:round;">
</g>
<g style="fill:#840000; fill-opacity:0.0; 
stroke:#840000; stroke-width:60; stroke-opacity:1; 
stroke-linecap:round; stroke-linejoin:round;">
<path d="M92910 4050
L92670 4050
L92640 4290
L92670 4260
L92720 4240
L92840 4240
L92890 4260
L92910 4290
L92930 4340
L92930 4460
L92910 4510
L92890 4530
L92840 4560
L92720 4560
L92670 4530
L92640 4510
" />
</g>
<g style="fill:#840000; fill-opacity:0.0; 
stroke:#840000; stroke-width:100; stroke-opacity:1; 
stroke-linecap:round; stroke-linejoin:round;">
</g>
<g style="fill:#840000; fill-opacity:0.0; 
stroke:#840000; stroke-width:60; stroke-opacity:1; 
stroke-linecap:round; stroke-linejoin:round;">
<path d="M112570 4050
L112470 4050
L112420 4070
L112400 4090
L112350 4170
L112320 4260
L112320 4460
L112350 4510
L112370 4530
L112420 4560
L112520 4560
L112570 4530
L112590 4510
L112610 4460
L112610 4340
L112590 4290
L112570 4260
L112520 4240
L112420 4240
L112370 4260
L112350 4290
L112320 4340
" />
</g>
<g style="fill:#840000; fill-opacity:0.0; 
stroke:#840000; stroke-width:100; stroke-opacity:1; 
stroke-linecap:round; stroke-linejoin:round;">
</g>
<g style="fill:#840000; fill-opacity:0.0; 
stroke:#840000; stroke-width:60; stroke-opacity:1; 
stroke-linecap:round; stroke-linejoin:round;">
<path d="M23620 77960
L23620 78740
" />
</g>
<g style="fill:#840000; fill-opacity:0.0; 
stroke:#840000; stroke-width:100; stroke-opacity:1; 
stroke-linecap:round; stroke-linejoin:round;">
</g>
<g style="fill:#840000; fill-opacity:0.0; 
stroke:#840000; stroke-width:60; stroke-opacity:1; 
stroke-linecap:round; stroke-linejoin:round;">
<path d="M43310 77960
L43310 78740
" />
</g>
<g style="fill:#840000; fill-opacity:0.0; 
stroke:#840000; stroke-width:100; stroke-opacity:1; 
stroke-linecap:round; stroke-linejoin:round;">
</g>
<g style="fill:#840000; fill-opacity:0.0; 
stroke:#840000; stroke-width:60; stroke-opacity:1; 
stroke-linecap:round; stroke-linejoin:round;">
<path d="M62990 77960
L62990 78740
" />
</g>
<g style="fill:#840000; fill-opacity:0.0; 
stroke:#840000; stroke-width:100; stroke-opacity:1; 
stroke-linecap:round; stroke-linejoin:round;">
</g>
<g style="fill:#840000; fill-opacity:0.0; 
stroke:#840000; stroke-width:60; stroke-opacity:1; 
stroke-linecap:round; stroke-linejoin:round;">
<path d="M82680 77960
L82680 78740
" />
</g>
<g style="fill:#840000; fill-opacity:0.0; 
stroke:#840000; stroke-width:100; stroke-opacity:1; 
stroke-linecap:round; stroke-linejoin:round;">
</g>
<g style="fill:#840000; fill-opacity:0.0; 
stroke:#840000; stroke-width:60; stroke-opacity:1; 
stroke-linecap:round; stroke-linejoin:round;">
<path d="M102360 77960
L102360 78740
" />
</g>
<g style="fill:#840000; fill-opacity:0.0; 
stroke:#840000; stroke-width:100; stroke-opacity:1; 
stroke-linecap:round; stroke-linejoin:round;">
</g>
<g style="fill:#840000; fill-opacity:0.0; 
stroke:#840000; stroke-width:60; stroke-opacity:1; 
stroke-linecap:round; stroke-linejoin:round;">
<path d="M14190 78580
L13900 78580
" />
<path d="M14050 78580
L14050 78070
L14000 78140
L13950 78190
L13900 78210
" />
</g>
<g style="fill:#840000; fill-opacity:0.0; 
stroke:#840000; stroke-width:100; stroke-opacity:1; 
stroke-linecap:round; stroke-linejoin:round;">
</g>
<g style="fill:#840000; fill-opacity:0.0; 
stroke:#840000; stroke-width:60; stroke-opacity:1; 
stroke-linecap:round; stroke-linejoin:round;">
<path d="M33580 78110
L33610 78090
L33660 78070
L33780 78070
L33830 78090
L33850 78110
L33870 78160
L33870 78210
L33850 78280
L33560 78580
L33870 78580
" />
</g>
<g style="fill:#840000; fill-opacity:0.0; 
stroke:#840000; stroke-width:100; stroke-opacity:1; 
stroke-linecap:round; stroke-linejoin:round;">
</g>
<g style="fill:#840000; fill-opacity:0.0; 
stroke:#840000; stroke-width:60; stroke-opacity:1; 
stroke-linecap:round; stroke-linejoin:round;">
<path d="M53250 78070
L53560 78070
L53390 78260
L53470 78260
L53520 78280
L53540 78310
L53560 78360
L53560 78480
L53540 78530
L53520 78550
L53470 78580
L53320 78580
L53270 78550
L53250 78530
" />
</g>
<g style="fill:#840000; fill-opacity:0.0; 
stroke:#840000; stroke-width:100; stroke-opacity:1; 
stroke-linecap:round; stroke-linejoin:round;">
</g>
<g style="fill:#840000; fill-opacity:0.0; 
stroke:#840000; stroke-width:60; stroke-opacity:1; 
stroke-linecap:round; stroke-linejoin:round;">
<path d="M73200 78240
L73200 78580
" />
<path d="M73070 78040
L72950 78410
L73270 78410
" />
</g>
<g style="fill:#840000; fill-opacity:0.0; 
stroke:#840000; stroke-width:100; stroke-opacity:1; 
stroke-linecap:round; stroke-linejoin:round;">
</g>
<g style="fill:#840000; fill-opacity:0.0; 
stroke:#840000; stroke-width:60; stroke-opacity:1; 
stroke-linecap:round; stroke-linejoin:round;">
<path d="M92910 78070
L92670 78070
L92640 78310
L92670 78280
L92720 78260
L92840 78260
L92890 78280
L92910 78310
L92930 78360
L92930 78480
L92910 78530
L92890 78550
L92840 78580
L92720 78580
L92670 78550
L92640 78530
" />
</g>
<g style="fill:#840000; fill-opacity:0.0; 
stroke:#840000; stroke-width:100; stroke-opacity:1; 
stroke-linecap:round; stroke-linejoin:round;">
</g>
<g style="fill:#840000; fill-opacity:0.0; 
stroke:#840000; stroke-width:60; stroke-opacity:1; 
stroke-linecap:round; stroke-linejoin:round;">
<path d="M112570 78070
L112470 78070
L112420 78090
L112400 78110
L112350 78190
L112320 78280
L112320 78480
L112350 78530
L112370 78550
L112420 78580
L112520 78580
L112570 78550
L112590 78530
L112610 78480
L112610 78360
L112590 78310
L112570 78280
L112520 78260
L112420 78260
L112370 78280
L112350 78310
L112320 78360
" />
</g>
<g style="fill:#840000; fill-opacity:0.0; 
stroke:#840000; stroke-width:100; stroke-opacity:1; 
stroke-linecap:round; stroke-linejoin:round;">
</g>
<g style="fill:#840000; fill-opacity:0.0; 
stroke:#840000; stroke-width:60; stroke-opacity:1; 
stroke-linecap:round; stroke-linejoin:round;">
<path d="M3940 23620
L4720 23620
" />
</g>
<g style="fill:#840000; fill-opacity:0.0; 
stroke:#840000; stroke-width:100; stroke-opacity:1; 
stroke-linecap:round; stroke-linejoin:round;">
</g>
<g style="fill:#840000; fill-opacity:0.0; 
stroke:#840000; stroke-width:60; stroke-opacity:1; 
stroke-linecap:round; stroke-linejoin:round;">
<path d="M3940 43310
L4720 43310
" />
</g>
<g style="fill:#840000; fill-opacity:0.0; 
stroke:#840000; stroke-width:100; stroke-opacity:1; 
stroke-linecap:round; stroke-linejoin:round;">
</g>
<g style="fill:#840000; fill-opacity:0.0; 
stroke:#840000; stroke-width:60; stroke-opacity:1; 
stroke-linecap:round; stroke-linejoin:round;">
<path d="M3940 62990
L4720 62990
" />
</g>
<g style="fill:#840000; fill-opacity:0.0; 
stroke:#840000; stroke-width:100; stroke-opacity:1; 
stroke-linecap:round; stroke-linejoin:round;">
</g>
<g style="fill:#840000; fill-opacity:0.0; 
stroke:#840000; stroke-width:60; stroke-opacity:1; 
stroke-linecap:round; stroke-linejoin:round;">
<path d="M4200 13860
L4450 13860
" />
<path d="M4160 14010
L4330 13500
L4500 14010
" />
</g>
<g style="fill:#840000; fill-opacity:0.0; 
stroke:#840000; stroke-width:100; stroke-opacity:1; 
stroke-linecap:round; stroke-linejoin:round;">
</g>
<g style="fill:#840000; fill-opacity:0.0; 
stroke:#840000; stroke-width:60; stroke-opacity:1; 
stroke-linecap:round; stroke-linejoin:round;">
<path d="M4360 33420
L4430 33440
L4460 33470
L4480 33520
L4480 33590
L4460 33640
L4430 33660
L4390 33690
L4190 33690
L4190 33180
L4360 33180
L4410 33200
L4430 33220
L4460 33270
L4460 33320
L4430 33370
L4410 33390
L4360 33420
L4190 33420
" />
</g>
<g style="fill:#840000; fill-opacity:0.0; 
stroke:#840000; stroke-width:100; stroke-opacity:1; 
stroke-linecap:round; stroke-linejoin:round;">
</g>
<g style="fill:#840000; fill-opacity:0.0; 
stroke:#840000; stroke-width:60; stroke-opacity:1; 
stroke-linecap:round; stroke-linejoin:round;">
<path d="M4480 53330
L4460 53350
L4390 53380
L4340 53380
L4260 53350
L4220 53300
L4190 53250
L4170 53160
L4170 53080
L4190 52990
L4220 52940
L4260 52890
L4340 52870
L4390 52870
L4460 52890
L4480 52910
" />
</g>
<g style="fill:#840000; fill-opacity:0.0; 
stroke:#840000; stroke-width:100; stroke-opacity:1; 
stroke-linecap:round; stroke-linejoin:round;">
</g>
<g style="fill:#840000; fill-opacity:0.0; 
stroke:#840000; stroke-width:60; stroke-opacity:1; 
stroke-linecap:round; stroke-linejoin:round;">
<path d="M4190 73060
L4190 72550
L4310 72550
L4390 72570
L4430 72620
L4460 72670
L4480 72760
L4480 72840
L4460 72930
L4430 72980
L4390 73030
L4310 73060
L4190 73060
" />
</g>
<g style="fill:#840000; fill-opacity:0.0; 
stroke:#840000; stroke-width:100; stroke-opacity:1; 
stroke-linecap:round; stroke-linejoin:round;">
</g>
<g style="fill:#840000; fill-opacity:0.0; 
stroke:#840000; stroke-width:60; stroke-opacity:1; 
stroke-linecap:round; stroke-linejoin:round;">
<path d="M112990 23620
L112210 23620
" />
</g>
<g style="fill:#840000; fill-opacity:0.0; 
stroke:#840000; stroke-width:100; stroke-opacity:1; 
stroke-linecap:round; stroke-linejoin:round;">
</g>
<g style="fill:#840000; fill-opacity:0.0; 
stroke:#840000; stroke-width:60; stroke-opacity:1; 
stroke-linecap:round; stroke-linejoin:round;">
<path d="M112990 43310
L112210 43310
" />
</g>
<g style="fill:#840000; fill-opacity:0.0; 
stroke:#840000; stroke-width:100; stroke-opacity:1; 
stroke-linecap:round; stroke-linejoin:round;">
</g>
<g style="fill:#840000; fill-opacity:0.0; 
stroke:#840000; stroke-width:60; stroke-opacity:1; 
stroke-linecap:round; stroke-linejoin:round;">
<path d="M112990 62990
L112210 62990
" />
</g>
<g style="fill:#840000; fill-opacity:0.0; 
stroke:#840000; stroke-width:100; stroke-opacity:1; 
stroke-linecap:round; stroke-linejoin:round;">
</g>
<g style="fill:#840000; fill-opacity:0.0; 
stroke:#840000; stroke-width:60; stroke-opacity:1; 
stroke-linecap:round; stroke-linejoin:round;">
<path d="M112470 13860
L112720 13860
" />
<path d="M112430 14010
L112600 13500
L112770 14010
" />
</g>
<g style="fill:#840000; fill-opacity:0.0; 
stroke:#840000; stroke-width:100; stroke-opacity:1; 
stroke-linecap:round; stroke-linejoin:round;">
</g>
<g style="fill:#840000; fill-opacity:0.0; 
stroke:#840000; stroke-width:60; stroke-opacity:1; 
stroke-linecap:round; stroke-linejoin:round;">
<path d="M112630 33420
L112700 33440
L112730 33470
L112750 33520
L112750 33590
L112730 33640
L112700 33660
L112660 33690
L112460 33690
L112460 33180
L112630 33180
L112680 33200
L112700 33220
L112730 33270
L112730 33320
L112700 33370
L112680 33390
L112630 33420
L112460 33420
" />
</g>
<g style="fill:#840000; fill-opacity:0.0; 
stroke:#840000; stroke-width:100; stroke-opacity:1; 
stroke-linecap:round; stroke-linejoin:round;">
</g>
<g style="fill:#840000; fill-opacity:0.0; 
stroke:#840000; stroke-width:60; stroke-opacity:1; 
stroke-linecap:round; stroke-linejoin:round;">
<path d="M112750 53330
L112730 53350
L112660 53380
L112610 53380
L112530 53350
L112490 53300
L112460 53250
L112440 53160
L112440 53080
L112460 52990
L112490 52940
L112530 52890
L112610 52870
L112660 52870
L112730 52890
L112750 52910
" />
</g>
<g style="fill:#840000; fill-opacity:0.0; 
stroke:#840000; stroke-width:100; stroke-opacity:1; 
stroke-linecap:round; stroke-linejoin:round;">
</g>
<g style="fill:#840000; fill-opacity:0.0; 
stroke:#840000; stroke-width:60; stroke-opacity:1; 
stroke-linecap:round; stroke-linejoin:round;">
<path d="M112460 73060
L112460 72550
L112580 72550
L112660 72570
L112700 72620
L112730 72670
L112750 72760
L112750 72840
L112730 72930
L112700 72980
L112660 73030
L112580 73060
L112460 73060
" />
</g>
<g style="fill:#840000; fill-opacity:0.0; 
stroke:#840000; stroke-width:100; stroke-opacity:1; 
stroke-linecap:round; stroke-linejoin:round;">
</g>
<g style="fill:#840000; fill-opacity:0.0; 
stroke:#840000; stroke-width:60; stroke-opacity:1; 
stroke-linecap:round; stroke-linejoin:round;">
<path d="M78910 76290
L78910 75700
L79050 75700
L79130 75730
L79190 75790
L79210 75840
L79240 75950
L79240 76040
L79210 76150
L79190 76210
L79130 76260
L79050 76290
L78910 76290
" />
<path d="M79750 76290
L79750 75980
L79720 75930
L79660 75900
L79550 75900
L79500 75930
" />
<path d="M79750 76260
L79690 76290
L79550 76290
L79500 76260
L79470 76210
L79470 76150
L79500 76100
L79550 76070
L79690 76070
L79750 76040
" />
<path d="M79950 75900
L80170 75900
" />
<path d="M80030 75700
L80030 76210
L80060 76260
L80110 76290
L80170 76290
" />
<path d="M80590 76260
L80540 76290
L80420 76290
L80370 76260
L80340 76210
L80340 75980
L80370 75930
L80420 75900
L80540 75900
L80590 75930
L80620 75980
L80620 76040
L80340 76100
" />
<path d="M80870 76240
L80900 76260
L80870 76290
L80840 76260
L80870 76240
L80870 76290
" />
<path d="M80870 75930
L80900 75950
L80870 75980
L80840 75950
L80870 75930
L80870 75980
" />
</g>
<g style="fill:#840000; fill-opacity:0.0; 
stroke:#840000; stroke-width:100; stroke-opacity:1; 
stroke-linecap:round; stroke-linejoin:round;">
</g>
<g style="fill:#840000; fill-opacity:0.0; 
stroke:#840000; stroke-width:60; stroke-opacity:1; 
stroke-linecap:round; stroke-linejoin:round;">
<path d="M69690 76580
L112210 76580
" />
</g>
<g style="fill:#840000; fill-opacity:0.0; 
stroke:#840000; stroke-width:100; stroke-opacity:1; 
stroke-linecap:round; stroke-linejoin:round;">
</g>
<g style="fill:#840000; fill-opacity:0.0; 
stroke:#840000; stroke-width:60; stroke-opacity:1; 
stroke-linecap:round; stroke-linejoin:round;">
<path d="M70250 77390
L70250 76800
" />
<path d="M70580 77390
L70330 77050
" />
<path d="M70580 76800
L70250 77140
" />
<path d="M70840 77390
L70840 77000
" />
<path d="M70840 76800
L70810 76830
L70840 76860
L70860 76830
L70840 76800
L70840 76860
" />
<path d="M71450 77340
L71430 77360
L71340 77390
L71290 77390
L71200 77360
L71140 77310
L71120 77250
L71090 77140
L71090 77050
L71120 76940
L71140 76890
L71200 76830
L71290 76800
L71340 76800
L71430 76830
L71450 76860
" />
<path d="M71960 77390
L71960 77080
L71930 77030
L71880 77000
L71760 77000
L71710 77030
" />
<path d="M71960 77360
L71900 77390
L71760 77390
L71710 77360
L71680 77310
L71680 77250
L71710 77200
L71760 77170
L71900 77170
L71960 77140
" />
<path d="M72490 77390
L72490 76800
" />
<path d="M72490 77360
L72440 77390
L72320 77390
L72270 77360
L72240 77340
L72210 77280
L72210 77110
L72240 77050
L72270 77030
L72320 77000
L72440 77000
L72490 77030
" />
<path d="M73220 77080
L73420 77080
" />
<path d="M73500 77390
L73220 77390
L73220 76800
L73500 76800
" />
<path d="M73760 77340
L73790 77360
L73760 77390
L73730 77360
L73760 77340
L73760 77390
" />
<path d="M74040 77390
L74040 76800
L74180 76800
L74260 76830
L74320 76890
L74350 76940
L74380 77050
L74380 77140
L74350 77250
L74320 77310
L74260 77360
L74180 77390
L74040 77390
" />
<path d="M74630 77340
L74660 77360
L74630 77390
L74600 77360
L74630 77340
L74630 77390
" />
<path d="M74880 77220
L75160 77220
" />
<path d="M74830 77390
L75020 76800
L75220 77390
" />
<path d="M75420 77340
L75440 77360
L75420 77390
L75390 77360
L75420 77340
L75420 77390
" />
<path d="M76600 77390
L76600 76800
" />
<path d="M76650 77170
L76820 77390
" />
<path d="M76820 77000
L76600 77220
" />
<path d="M77070 77390
L77070 77000
" />
<path d="M77070 76800
L77040 76830
L77070 76860
L77100 76830
L77070 76800
L77070 76860
" />
<path d="M77610 77360
L77550 77390
L77440 77390
L77380 77360
L77350 77340
L77330 77280
L77330 77110
L77350 77050
L77380 77030
L77440 77000
L77550 77000
L77610 77030
" />
<path d="M78110 77390
L78110 77080
L78080 77030
L78030 77000
L77920 77000
L77860 77030
" />
<path d="M78110 77360
L78060 77390
L77920 77390
L77860 77360
L77830 77310
L77830 77250
L77860 77200
L77920 77170
L78060 77170
L78110 77140
" />
<path d="M78650 77390
L78650 76800
" />
<path d="M78650 77360
L78590 77390
L78480 77390
L78420 77360
L78390 77340
L78370 77280
L78370 77110
L78390 77050
L78420 77030
L78480 77000
L78590 77000
L78650 77030
" />
<path d="M79660 76800
L79380 76800
L79350 77080
L79380 77050
L79430 77030
L79570 77030
L79630 77050
L79660 77080
L79690 77140
L79690 77280
L79660 77340
L79630 77360
L79570 77390
L79430 77390
L79380 77360
L79350 77340
" />
<path d="M79940 77340
L79970 77360
L79940 77390
L79910 77360
L79940 77340
L79940 77390
" />
<path d="M80330 76800
L80390 76800
L80440 76830
L80470 76860
L80500 76910
L80530 77030
L80530 77170
L80500 77280
L80470 77340
L80440 77360
L80390 77390
L80330 77390
L80280 77360
L80250 77340
L80220 77280
L80190 77170
L80190 77030
L80220 76910
L80250 76860
L80280 76830
L80330 76800
" />
<path d="M80780 77340
L80810 77360
L80780 77390
L80750 77360
L80780 77340
L80780 77390
" />
<path d="M81030 76860
L81060 76830
L81120 76800
L81260 76800
L81320 76830
L81340 76860
L81370 76910
L81370 76970
L81340 77050
L81010 77390
L81370 77390
" />
<path d="M81620 77170
L82070 77170
" />
<path d="M82350 77390
L82350 76800
" />
<path d="M82350 77030
L82410 77000
L82520 77000
L82580 77030
L82610 77050
L82640 77110
L82640 77280
L82610 77340
L82580 77360
L82520 77390
L82410 77390
L82350 77360
" />
<path d="M83110 77360
L83060 77390
L82940 77390
L82890 77360
L82860 77310
L82860 77080
L82890 77030
L82940 77000
L83060 77000
L83110 77030
L83140 77080
L83140 77140
L82860 77200
" />
<path d="M83620 77360
L83560 77390
L83450 77390
L83390 77360
L83370 77310
L83370 77080
L83390 77030
L83450 77000
L83560 77000
L83620 77030
L83650 77080
L83650 77140
L83370 77200
" />
<path d="M83840 76800
L84240 76800
L83980 77390
" />
<path d="M84710 76800
L84600 76800
L84550 76830
L84520 76860
L84460 76940
L84430 77050
L84430 77280
L84460 77340
L84490 77360
L84550 77390
L84660 77390
L84710 77360
L84740 77340
L84770 77280
L84770 77140
L84740 77080
L84710 77050
L84660 77030
L84550 77030
L84490 77050
L84460 77080
L84430 77140
" />
<path d="M85280 77390
L85280 77080
L85250 77030
L85190 77000
L85080 77000
L85020 77030
" />
<path d="M85280 77360
L85220 77390
L85080 77390
L85020 77360
L85000 77310
L85000 77250
L85020 77200
L85080 77170
L85220 77170
L85280 77140
" />
<path d="M85670 76800
L85730 76800
L85780 76830
L85810 76860
L85840 76910
L85870 77030
L85870 77170
L85840 77280
L85810 77340
L85780 77360
L85730 77390
L85670 77390
L85610 77360
L85590 77340
L85560 77280
L85530 77170
L85530 77030
L85560 76910
L85590 76860
L85610 76830
L85670 76800
" />
<path d="M85980 76640
L86540 76640
" />
<path d="M86060 76800
L86460 76800
L86200 77390
" />
<path d="M86540 76640
L87100 76640
" />
<path d="M86790 76800
L86850 76800
L86910 76830
L86930 76860
L86960 76910
L86990 77030
L86990 77170
L86960 77280
L86930 77340
L86910 77360
L86850 77390
L86790 77390
L86740 77360
L86710 77340
L86680 77280
L86650 77170
L86650 77030
L86680 76910
L86710 76860
L86740 76830
L86790 76800
" />
<path d="M87500 77000
L87500 77390
" />
<path d="M87240 77000
L87240 77310
L87270 77360
L87330 77390
L87410 77390
L87470 77360
L87500 77340
" />
<path d="M87780 77390
L87780 76800
" />
<path d="M87780 77030
L87830 77000
L87950 77000
L88000 77030
L88030 77050
L88060 77110
L88060 77280
L88030 77340
L88000 77360
L87950 77390
L87830 77390
L87780 77360
" />
<path d="M88560 77000
L88560 77390
" />
<path d="M88310 77000
L88310 77310
L88340 77360
L88400 77390
L88480 77390
L88540 77360
L88560 77340
" />
<path d="M88840 77000
L88840 77390
" />
<path d="M88840 77050
L88870 77030
L88930 77000
L89010 77000
L89070 77030
L89100 77080
L89100 77390
" />
<path d="M89290 77000
L89520 77000
" />
<path d="M89380 76800
L89380 77310
L89410 77360
L89460 77390
L89520 77390
" />
<path d="M89970 77000
L89970 77390
" />
<path d="M89720 77000
L89720 77310
L89740 77360
L89800 77390
L89880 77390
L89940 77360
L89970 77340
" />
<path d="M90560 77390
L90220 77390
" />
<path d="M90390 77390
L90390 76800
L90330 76890
L90280 76940
L90220 76970
" />
<path d="M91060 76800
L90950 76800
L90900 76830
L90870 76860
L90810 76940
L90780 77050
L90780 77280
L90810 77340
L90840 77360
L90900 77390
L91010 77390
L91060 77360
L91090 77340
L91120 77280
L91120 77140
L91090 77080
L91060 77050
L91010 77030
L90900 77030
L90840 77050
L90810 77080
L90780 77140
" />
<path d="M91370 77340
L91400 77360
L91370 77390
L91350 77360
L91370 77340
L91370 77390
" />
<path d="M91770 76800
L91820 76800
L91880 76830
L91910 76860
L91940 76910
L91960 77030
L91960 77170
L91940 77280
L91910 77340
L91880 77360
L91820 77390
L91770 77390
L91710 77360
L91680 77340
L91650 77280
L91630 77170
L91630 77030
L91650 76910
L91680 76860
L91710 76830
L91770 76800
" />
<path d="M92470 77000
L92470 77390
" />
<path d="M92330 76770
L92190 77200
L92550 77200
" />
<path d="M92780 77340
L92810 77360
L92780 77390
L92750 77360
L92780 77340
L92780 77390
" />
<path d="M93370 77390
L93030 77390
" />
<path d="M93200 77390
L93200 76800
L93140 76890
L93090 76940
L93030 76970
" />
</g>
<g style="fill:#840000; fill-opacity:0.0; 
stroke:#840000; stroke-width:100; stroke-opacity:1; 
stroke-linecap:round; stroke-linejoin:round;">
</g>
<g style="fill:#840000; fill-opacity:0.0; 
stroke:#840000; stroke-width:60; stroke-opacity:1; 
stroke-linecap:round; stroke-linejoin:round;">
<path d="M69690 75400
L112210 75400
" />
</g>
<g style="fill:#840000; fill-opacity:0.0; 
stroke:#840000; stroke-width:100; stroke-opacity:1; 
stroke-linecap:round; stroke-linejoin:round;">
</g>
<g style="fill:#840000; fill-opacity:0.0; 
stroke:#840000; stroke-width:120; stroke-opacity:1; 
stroke-linecap:round; stroke-linejoin:round;">
<path d="M104090 76290
L103890 76010
" />
<path d="M103750 76290
L103750 75700
L103980 75700
L104030 75730
L104060 75760
L104090 75810
L104090 75900
L104060 75950
L104030 75980
L103980 76010
L103750 76010
" />
<path d="M104570 76260
L104510 76290
L104400 76290
L104340 76260
L104320 76210
L104320 75980
L104340 75930
L104400 75900
L104510 75900
L104570 75930
L104600 75980
L104600 76040
L104320 76100
" />
<path d="M104790 75900
L104930 76290
L105070 75900
" />
<path d="M105300 76240
L105330 76260
L105300 76290
L105270 76260
L105300 76240
L105300 76290
" />
<path d="M105300 75930
L105330 75950
L105300 75980
L105270 75950
L105300 75930
L105300 75980
" />
</g>
<g style="fill:#840000; fill-opacity:0.0; 
stroke:#840000; stroke-width:100; stroke-opacity:1; 
stroke-linecap:round; stroke-linejoin:round;">
</g>
<g style="fill:#840000; fill-opacity:0.0; 
stroke:#840000; stroke-width:60; stroke-opacity:1; 
stroke-linecap:round; stroke-linejoin:round;">
<path d="M70220 76260
L70300 76290
L70440 76290
L70500 76260
L70530 76240
L70550 76180
L70550 76120
L70530 76070
L70500 76040
L70440 76010
L70330 75980
L70270 75950
L70250 75930
L70220 75870
L70220 75810
L70250 75760
L70270 75730
L70330 75700
L70470 75700
L70550 75730
" />
<path d="M70810 76290
L70810 75900
" />
<path d="M70810 75700
L70780 75730
L70810 75760
L70840 75730
L70810 75700
L70810 75760
" />
<path d="M71030 75900
L71340 75900
L71030 76290
L71340 76290
" />
<path d="M71790 76260
L71730 76290
L71620 76290
L71570 76260
L71540 76210
L71540 75980
L71570 75930
L71620 75900
L71730 75900
L71790 75930
L71820 75980
L71820 76040
L71540 76100
" />
<path d="M72070 76240
L72100 76260
L72070 76290
L72040 76260
L72070 76240
L72070 76290
" />
<path d="M72070 75930
L72100 75950
L72070 75980
L72040 75950
L72070 75930
L72070 75980
" />
<path d="M72770 76120
L73060 76120
" />
<path d="M72720 76290
L72910 75700
L73110 76290
" />
<path d="M73560 75900
L73560 76290
" />
<path d="M73420 75670
L73280 76100
L73650 76100
" />
</g>
<g style="fill:#840000; fill-opacity:0.0; 
stroke:#840000; stroke-width:100; stroke-opacity:1; 
stroke-linecap:round; stroke-linejoin:round;">
</g>
<g style="fill:#840000; fill-opacity:0.0; 
stroke:#840000; stroke-width:60; stroke-opacity:1; 
stroke-linecap:round; stroke-linejoin:round;">
<path d="M103710 77390
L103710 76800
" />
<path d="M104240 77390
L104240 76800
" />
<path d="M104240 77360
L104180 77390
L104070 77390
L104010 77360
L103990 77340
L103960 77280
L103960 77110
L103990 77050
L104010 77030
L104070 77000
L104180 77000
L104240 77030
" />
<path d="M104520 77340
L104550 77360
L104520 77390
L104490 77360
L104520 77340
L104520 77390
" />
<path d="M104520 77030
L104550 77050
L104520 77080
L104490 77050
L104520 77030
L104520 77080
" />
<path d="M105560 77390
L105220 77390
" />
<path d="M105390 77390
L105390 76800
L105340 76890
L105280 76940
L105220 76970
" />
<path d="M106230 76770
L105730 77530
" />
<path d="M106740 77390
L106400 77390
" />
<path d="M106570 77390
L106570 76800
L106520 76890
L106460 76940
L106400 76970
" />
</g>
<g style="fill:#840000; fill-opacity:0.0; 
stroke:#840000; stroke-width:100; stroke-opacity:1; 
stroke-linecap:round; stroke-linejoin:round;">
</g>
<g style="fill:#840000; fill-opacity:0.0; 
stroke:#840000; stroke-width:60; stroke-opacity:1; 
stroke-linecap:round; stroke-linejoin:round;">
<path d="M69690 73820
L112210 73820
" />
</g>
<g style="fill:#840000; fill-opacity:0.0; 
stroke:#840000; stroke-width:100; stroke-opacity:1; 
stroke-linecap:round; stroke-linejoin:round;">
</g>
<g style="fill:#840000; fill-opacity:0.0; 
stroke:#840000; stroke-width:160; stroke-opacity:1; 
stroke-linecap:round; stroke-linejoin:round;">
<path d="M70360 74090
L70810 74090
" />
<path d="M70480 74880
L70580 74090
" />
<path d="M70970 74880
L71040 74360
" />
<path d="M71070 74090
L71030 74130
L71060 74170
L71110 74130
L71070 74090
L71060 74170
" />
<path d="M71300 74360
L71600 74360
" />
<path d="M71450 74090
L71360 74770
L71390 74840
L71460 74880
L71540 74880
" />
<path d="M71910 74880
L71840 74840
L71820 74770
L71900 74090
" />
<path d="M72520 74840
L72440 74880
L72290 74880
L72220 74840
L72190 74770
L72230 74470
L72280 74390
L72360 74360
L72510 74360
L72580 74390
L72610 74470
L72600 74540
L72210 74620
" />
<path d="M72900 74810
L72930 74840
L72890 74880
L72860 74840
L72900 74810
L72890 74880
" />
<path d="M72950 74390
L72990 74430
L72940 74470
L72910 74430
L72950 74390
L72940 74470
" />
</g>
<g style="fill:#840000; fill-opacity:0.0; 
stroke:#840000; stroke-width:100; stroke-opacity:1; 
stroke-linecap:round; stroke-linejoin:round;">
</g>
<g style="fill:#840000; fill-opacity:0.0; 
stroke:#840000; stroke-width:60; stroke-opacity:1; 
stroke-linecap:round; stroke-linejoin:round;">
<path d="M70440 73060
L70250 73060
" />
<path d="M70250 73370
L70250 72780
L70530 72780
" />
<path d="M70750 73370
L70750 72980
" />
<path d="M70750 72780
L70720 72810
L70750 72840
L70780 72810
L70750 72780
L70750 72840
" />
<path d="M71120 73370
L71060 73340
L71030 73290
L71030 72780
" />
<path d="M71570 73340
L71510 73370
L71400 73370
L71340 73340
L71310 73290
L71310 73060
L71340 73010
L71400 72980
L71510 72980
L71570 73010
L71590 73060
L71590 73120
L71310 73180
" />
<path d="M71850 73320
L71880 73340
L71850 73370
L71820 73340
L71850 73320
L71850 73370
" />
<path d="M71850 73010
L71880 73030
L71850 73060
L71820 73030
L71850 73010
L71850 73060
" />
<path d="M72550 73340
L72610 73370
L72720 73370
L72770 73340
L72800 73290
L72800 73260
L72770 73200
L72720 73180
L72630 73180
L72580 73150
L72550 73090
L72550 73060
L72580 73010
L72630 72980
L72720 72980
L72770 73010
" />
<path d="M73060 73370
L73060 72980
" />
<path d="M73060 73090
L73080 73030
L73110 73010
L73170 72980
L73220 72980
" />
<path d="M73670 73370
L73670 73060
L73650 73010
L73590 72980
L73480 72980
L73420 73010
" />
<path d="M73670 73340
L73620 73370
L73480 73370
L73420 73340
L73390 73290
L73390 73230
L73420 73180
L73480 73150
L73620 73150
L73670 73120
" />
<path d="M73950 73370
L73950 72980
" />
<path d="M73950 73030
L73980 73010
L74040 72980
L74120 72980
L74180 73010
L74210 73060
L74210 73370
" />
<path d="M74210 73060
L74240 73010
L74290 72980
L74380 72980
L74430 73010
L74460 73060
L74460 73370
" />
<path d="M74740 73150
L75190 73150
" />
<path d="M75470 73370
L75470 72980
" />
<path d="M75470 73090
L75500 73030
L75530 73010
L75580 72980
L75640 72980
" />
<path d="M76060 73340
L76010 73370
L75890 73370
L75840 73340
L75810 73290
L75810 73060
L75840 73010
L75890 72980
L76010 72980
L76060 73010
L76090 73060
L76090 73120
L75810 73180
" />
<path d="M76600 72980
L76600 73460
L76570 73510
L76540 73540
L76480 73570
L76400 73570
L76340 73540
" />
<path d="M76600 73340
L76540 73370
L76430 73370
L76370 73340
L76340 73320
L76310 73260
L76310 73090
L76340 73030
L76370 73010
L76430 72980
L76540 72980
L76600 73010
" />
<path d="M76880 73370
L76880 72980
" />
<path d="M76880 72780
L76850 72810
L76880 72840
L76900 72810
L76880 72780
L76880 72840
" />
<path d="M77130 73340
L77190 73370
L77300 73370
L77350 73340
L77380 73290
L77380 73260
L77350 73200
L77300 73180
L77210 73180
L77160 73150
L77130 73090
L77130 73060
L77160 73010
L77210 72980
L77300 72980
L77350 73010
" />
<path d="M77550 72980
L77780 72980
" />
<path d="M77630 72780
L77630 73290
L77660 73340
L77720 73370
L77780 73370
" />
<path d="M78200 73340
L78140 73370
L78030 73370
L77970 73340
L77940 73290
L77940 73060
L77970 73010
L78030 72980
L78140 72980
L78200 73010
L78220 73060
L78220 73120
L77940 73180
" />
<path d="M78480 73370
L78480 72980
" />
<path d="M78480 73090
L78510 73030
L78530 73010
L78590 72980
L78650 72980
" />
<path d="M78840 73150
L79290 73150
" />
<path d="M79490 72980
L79710 72980
" />
<path d="M79570 73370
L79570 72870
L79600 72810
L79660 72780
L79710 72780
" />
<path d="M79910 73370
L79910 72980
" />
<path d="M79910 72780
L79880 72810
L79910 72840
L79940 72810
L79910 72780
L79910 72840
" />
<path d="M80280 73370
L80220 73340
L80190 73290
L80190 72780
" />
<path d="M80730 73340
L80670 73370
L80560 73370
L80500 73340
L80470 73290
L80470 73060
L80500 73010
L80560 72980
L80670 72980
L80730 73010
L80750 73060
L80750 73120
L80470 73180
" />
<path d="M81010 73320
L81030 73340
L81010 73370
L80980 73340
L81010 73320
L81010 73370
" />
<path d="M81260 73340
L81320 73370
L81430 73370
L81480 73340
L81510 73290
L81510 73260
L81480 73200
L81430 73180
L81340 73180
L81290 73150
L81260 73090
L81260 73060
L81290 73010
L81340 72980
L81430 72980
L81480 73010
" />
<path d="M82020 73340
L81960 73370
L81850 73370
L81790 73340
L81760 73320
L81740 73260
L81740 73090
L81760 73030
L81790 73010
L81850 72980
L81960 72980
L82020 73010
" />
<path d="M82270 73370
L82270 72780
" />
<path d="M82520 73370
L82520 73060
L82500 73010
L82440 72980
L82350 72980
L82300 73010
L82270 73030
" />
</g>
<g style="fill:#840000; fill-opacity:0.0; 
stroke:#840000; stroke-width:100; stroke-opacity:1; 
stroke-linecap:round; stroke-linejoin:round;">
</g>
<g style="fill:#840000; fill-opacity:0.0; 
stroke:#840000; stroke-width:60; stroke-opacity:1; 
stroke-linecap:round; stroke-linejoin:round;">
<path d="M69690 71460
L112210 71460
" />
</g>
<g style="fill:#840000; fill-opacity:0.0; 
stroke:#840000; stroke-width:100; stroke-opacity:1; 
stroke-linecap:round; stroke-linejoin:round;">
</g>
<g style="fill:#840000; fill-opacity:0.0; 
stroke:#840000; stroke-width:60; stroke-opacity:1; 
stroke-linecap:round; stroke-linejoin:round;">
<path d="M70220 72280
L70300 72310
L70440 72310
L70500 72280
L70530 72260
L70550 72200
L70550 72140
L70530 72090
L70500 72060
L70440 72030
L70330 72000
L70270 71970
L70250 71950
L70220 71890
L70220 71830
L70250 71780
L70270 71750
L70330 71720
L70470 71720
L70550 71750
" />
<path d="M70810 72310
L70810 71720
" />
<path d="M71060 72310
L71060 72000
L71030 71950
L70980 71920
L70890 71920
L70840 71950
L70810 71970
" />
<path d="M71570 72280
L71510 72310
L71400 72310
L71340 72280
L71310 72230
L71310 72000
L71340 71950
L71400 71920
L71510 71920
L71570 71950
L71590 72000
L71590 72060
L71310 72120
" />
<path d="M72070 72280
L72020 72310
L71900 72310
L71850 72280
L71820 72230
L71820 72000
L71850 71950
L71900 71920
L72020 71920
L72070 71950
L72100 72000
L72100 72060
L71820 72120
" />
<path d="M72270 71920
L72490 71920
" />
<path d="M72350 71720
L72350 72230
L72380 72280
L72440 72310
L72490 72310
" />
<path d="M72690 72260
L72720 72280
L72690 72310
L72660 72280
L72690 72260
L72690 72310
" />
<path d="M72690 71950
L72720 71970
L72690 72000
L72660 71970
L72690 71950
L72690 72000
" />
<path d="M73840 71690
L73340 72450
" />
</g>
<g style="fill:#840000; fill-opacity:0.0; 
stroke:#840000; stroke-width:100; stroke-opacity:1; 
stroke-linecap:round; stroke-linejoin:round;">
</g>
<g style="fill:#840000; fill-opacity:0.0; 
stroke:#840000; stroke-width:60; stroke-opacity:1; 
stroke-linecap:round; stroke-linejoin:round;">
<path d="M77560 75400
L77560 76580
" />
</g>
<g style="fill:#840000; fill-opacity:0.0; 
stroke:#840000; stroke-width:100; stroke-opacity:1; 
stroke-linecap:round; stroke-linejoin:round;">
</g>
<g style="fill:#840000; fill-opacity:0.0; 
stroke:#840000; stroke-width:60; stroke-opacity:1; 
stroke-linecap:round; stroke-linejoin:round;">
<path d="M102760 75400
L102760 77960
" />
</g>
<g style="fill:#840000; fill-opacity:0.0; 
stroke:#840000; stroke-width:0; stroke-opacity:1; 
stroke-linecap:round; stroke-linejoin:round;">
</g>
<g style="fill:#840000; fill-opacity:0.0; 
stroke:#840000; stroke-width:100; stroke-opacity:1; 
stroke-linecap:round; stroke-linejoin:round;">
<circle cx="57650" cy="43500" r="1110" /> 
</g>
<g style="fill:#840000; fill-opacity:1.0; 
stroke:#840000; stroke-width:60; stroke-opacity:1; 
stroke-linecap:round; stroke-linejoin:round;">
<circle cx="58000" cy="44200" r="110" /> 
<circle cx="58000" cy="42800" r="110" /> 
</g>
<g style="fill:#840000; fill-opacity:0.0; 
stroke:#840000; stroke-width:60; stroke-opacity:1; 
stroke-linecap:round; stroke-linejoin:round;">
<polyline fill="none;"
points="57020,43500
57100,43500
" /> 
<polyline fill="none;"
points="57300,44200
58000,44200
" /> 
</g>
<g style="fill:#840000; fill-opacity:0.0; 
stroke:#840000; stroke-width:100; stroke-opacity:1; 
stroke-linecap:round; stroke-linejoin:round;">
<polyline fill="none;"
points="57300,44000
57300,44400
" /> 
</g>
<g style="fill:#840000; fill-opacity:0.0; 
stroke:#840000; stroke-width:60; stroke-opacity:1; 
stroke-linecap:round; stroke-linejoin:round;">
<polyline fill="none;"
points="57300,43500
58000,43500
" /> 
</g>
<g style="fill:#840000; fill-opacity:0.0; 
stroke:#840000; stroke-width:100; stroke-opacity:1; 
stroke-linecap:round; stroke-linejoin:round;">
<polyline fill="none;"
points="57300,43300
57300,43700
" /> 
</g>
<g style="fill:#840000; fill-opacity:0.0; 
stroke:#840000; stroke-width:60; stroke-opacity:1; 
stroke-linecap:round; stroke-linejoin:round;">
<polyline fill="none;"
points="57300,42800
58000,42800
" /> 
</g>
<g style="fill:#840000; fill-opacity:0.0; 
stroke:#840000; stroke-width:100; stroke-opacity:1; 
stroke-linecap:round; stroke-linejoin:round;">
<polyline fill="none;"
points="57300,42600
57300,43000
" /> 
</g>
<g style="fill:#840000; fill-opacity:0.0; 
stroke:#840000; stroke-width:60; stroke-opacity:1; 
stroke-linecap:round; stroke-linejoin:round;">
<polyline fill="none;"
points="58000,44200
58000,44500
" /> 
<polyline fill="none;"
points="58000,44200
58000,43500
" /> 
<polyline fill="none;"
points="58000,42500
58000,42800
" /> 
</g>
<g style="fill:#840000; fill-opacity:0.0; 
stroke:#840000; stroke-width:100; stroke-opacity:1; 
stroke-linecap:round; stroke-linejoin:round;">
<polyline fill="none;"
points="57100,42750
57100,44250
57100,44250
" /> 
</g>
<g style="fill:#840000; fill-opacity:1.0; 
stroke:#840000; stroke-width:60; stroke-opacity:1; 
stroke-linecap:round; stroke-linejoin:round;">
<polyline style="fill-rule:evenodd;"
points="57400,43500
57800,43350
57800,43650
57400,43500
" /> 
</g>
<g style="fill:#840000; fill-opacity:0.0; 
stroke:#840000; stroke-width:60; stroke-opacity:1; 
stroke-linecap:round; stroke-linejoin:round;">
<polyline fill="none;"
points="58000,44200
58300,44200
58300,42800
58000,42800
" /> 
<polyline fill="none;"
points="58100,43300
58150,43350
58450,43350
58500,43400
" /> 
<polyline fill="none;"
points="58300,43350
58150,43600
58450,43600
58300,43350
" /> 
<path d="M57000 43500
L55000 43500
" />
<path d="M56140 44070
L55850 44070
" />
<path d="M56000 44070
L56000 43570
L55950 43640
L55900 43690
L55850 43710
" />
<path d="M58000 44500
L58000 45500
" />
<path d="M58120 45140
L58100 45110
L58070 45070
L58070 44950
L58100 44900
L58120 44880
L58170 44850
L58210 44850
L58290 44880
L58570 45160
L58570 44850
" />
<path d="M58000 42500
L58000 41500
" />
<path d="M58070 42160
L58070 41850
L58260 42020
L58260 41950
L58290 41900
L58310 41880
L58360 41850
L58480 41850
L58520 41880
L58550 41900
L58570 41950
L58570 42090
L58550 42140
L58520 42160
" />
</g>
<g style="fill:#008484; fill-opacity:0.0; 
stroke:#008484; stroke-width:60; stroke-opacity:1; 
stroke-linecap:round; stroke-linejoin:round;">
<path d="M59530 43330
L59480 43310
L59430 43260
L59360 43190
L59310 43160
L59270 43160
" />
<path d="M59290 43280
L59240 43260
L59190 43210
L59170 43110
L59170 42950
L59190 42850
L59240 42810
L59290 42780
L59380 42780
L59430 42810
L59480 42850
L59500 42950
L59500 43110
L59480 43210
L59430 43260
L59380 43280
L59290 43280
" />
<path d="M59960 42780
L59720 42780
L59690 43020
L59720 43000
L59770 42970
L59880 42970
L59930 43000
L59960 43020
L59980 43070
L59980 43190
L59960 43230
L59930 43260
L59880 43280
L59770 43280
L59720 43260
L59690 43230
" />
<path d="M59530 44240
L59480 44220
L59430 44170
L59360 44100
L59310 44070
L59270 44070
" />
<path d="M59290 44190
L59240 44170
L59200 44120
L59170 44020
L59170 43860
L59200 43760
L59240 43720
L59290 43690
L59390 43690
L59430 43720
L59480 43760
L59510 43860
L59510 44020
L59480 44120
L59430 44170
L59390 44190
L59290 44190
" />
<path d="M59600 44240
L59980 44240
" />
<path d="M60100 44190
L60100 43690
L60390 44190
L60390 43690
" />
<path d="M60620 44190
L60620 43690
L60790 44050
L60960 43690
L60960 44190
" />
<path d="M61290 43690
L61390 43690
L61430 43720
L61480 43760
L61510 43860
L61510 44020
L61480 44120
L61430 44170
L61390 44190
L61290 44190
L61240 44170
L61200 44120
L61170 44020
L61170 43860
L61200 43760
L61240 43720
L61290 43690
" />
<path d="M61700 44170
L61770 44190
L61890 44190
L61930 44170
L61960 44140
L61980 44100
L61980 44050
L61960 44000
L61930 43980
L61890 43950
L61790 43930
L61740 43910
L61720 43880
L61700 43830
L61700 43790
L61720 43740
L61740 43720
L61790 43690
L61910 43690
L61980 43720
" />
<path d="M62080 44240
L62460 44240
" />
<path d="M62840 43720
L62790 43690
L62720 43690
L62650 43720
L62600 43760
L62580 43810
L62550 43910
L62550 43980
L62580 44070
L62600 44120
L62650 44170
L62720 44190
L62770 44190
L62840 44170
L62860 44140
L62860 43980
L62770 43980
" />
<path d="M63050 44170
L63120 44190
L63240 44190
L63290 44170
L63310 44140
L63340 44100
L63340 44050
L63310 44000
L63290 43980
L63240 43950
L63150 43930
L63100 43910
L63080 43880
L63050 43830
L63050 43790
L63080 43740
L63100 43720
L63150 43690
L63270 43690
L63340 43720
" />
<path d="M63550 44190
L63550 43690
L63670 43690
L63740 43720
L63790 43760
L63810 43810
L63840 43910
L63840 43980
L63810 44070
L63790 44120
L63740 44170
L63670 44190
L63550 44190
" />
</g>
<g style="fill:#008484; fill-opacity:0.0; 
stroke:#008484; stroke-width:0; stroke-opacity:1; 
stroke-linecap:round; stroke-linejoin:round;">
</g>
<g style="fill:#840000; fill-opacity:0.0; 
stroke:#840000; stroke-width:0; stroke-opacity:1; 
stroke-linecap:round; stroke-linejoin:round;">
</g>
<g style="fill:#840000; fill-opacity:0.0; 
stroke:#840000; stroke-width:100; stroke-opacity:1; 
stroke-linecap:round; stroke-linejoin:round;">
<circle cx="57650" cy="37000" r="1110" /> 
</g>
<g style="fill:#840000; fill-opacity:1.0; 
stroke:#840000; stroke-width:60; stroke-opacity:1; 
stroke-linecap:round; stroke-linejoin:round;">
<circle cx="58000" cy="37700" r="110" /> 
<circle cx="58000" cy="36300" r="110" /> 
</g>
<g style="fill:#840000; fill-opacity:0.0; 
stroke:#840000; stroke-width:60; stroke-opacity:1; 
stroke-linecap:round; stroke-linejoin:round;">
<polyline fill="none;"
points="57020,37000
57100,37000
" /> 
<polyline fill="none;"
points="57300,37700
58000,37700
" /> 
</g>
<g style="fill:#840000; fill-opacity:0.0; 
stroke:#840000; stroke-width:100; stroke-opacity:1; 
stroke-linecap:round; stroke-linejoin:round;">
<polyline fill="none;"
points="57300,37500
57300,37900
" /> 
</g>
<g style="fill:#840000; fill-opacity:0.0; 
stroke:#840000; stroke-width:60; stroke-opacity:1; 
stroke-linecap:round; stroke-linejoin:round;">
<polyline fill="none;"
points="57300,37000
58000,37000
" /> 
</g>
<g style="fill:#840000; fill-opacity:0.0; 
stroke:#840000; stroke-width:100; stroke-opacity:1; 
stroke-linecap:round; stroke-linejoin:round;">
<polyline fill="none;"
points="57300,36800
57300,37200
" /> 
</g>
<g style="fill:#840000; fill-opacity:0.0; 
stroke:#840000; stroke-width:60; stroke-opacity:1; 
stroke-linecap:round; stroke-linejoin:round;">
<polyline fill="none;"
points="57300,36300
58000,36300
" /> 
</g>
<g style="fill:#840000; fill-opacity:0.0; 
stroke:#840000; stroke-width:100; stroke-opacity:1; 
stroke-linecap:round; stroke-linejoin:round;">
<polyline fill="none;"
points="57300,36100
57300,36500
" /> 
</g>
<g style="fill:#840000; fill-opacity:0.0; 
stroke:#840000; stroke-width:60; stroke-opacity:1; 
stroke-linecap:round; stroke-linejoin:round;">
<polyline fill="none;"
points="58000,37700
58000,38000
" /> 
<polyline fill="none;"
points="58000,37700
58000,37000
" /> 
<polyline fill="none;"
points="58000,36000
58000,36300
" /> 
</g>
<g style="fill:#840000; fill-opacity:0.0; 
stroke:#840000; stroke-width:100; stroke-opacity:1; 
stroke-linecap:round; stroke-linejoin:round;">
<polyline fill="none;"
points="57100,36250
57100,37750
57100,37750
" /> 
</g>
<g style="fill:#840000; fill-opacity:1.0; 
stroke:#840000; stroke-width:60; stroke-opacity:1; 
stroke-linecap:round; stroke-linejoin:round;">
<polyline style="fill-rule:evenodd;"
points="57900,37000
57500,37150
57500,36850
57900,37000
" /> 
</g>
<g style="fill:#840000; fill-opacity:0.0; 
stroke:#840000; stroke-width:60; stroke-opacity:1; 
stroke-linecap:round; stroke-linejoin:round;">
<polyline fill="none;"
points="58000,37700
58300,37700
58300,36300
58000,36300
" /> 
<polyline fill="none;"
points="58100,37200
58150,37150
58450,37150
58500,37100
" /> 
<polyline fill="none;"
points="58300,37150
58150,36900
58450,36900
58300,37150
" /> 
<path d="M57000 37000
L55000 37000
" />
<path d="M56140 37570
L55850 37570
" />
<path d="M56000 37570
L56000 37070
L55950 37140
L55900 37190
L55850 37210
" />
<path d="M58000 38000
L58000 39000
" />
<path d="M58120 38640
L58100 38610
L58070 38570
L58070 38450
L58100 38400
L58120 38380
L58170 38350
L58210 38350
L58290 38380
L58570 38660
L58570 38350
" />
<path d="M58000 36000
L58000 35000
" />
<path d="M58070 35660
L58070 35350
L58260 35520
L58260 35450
L58290 35400
L58310 35380
L58360 35350
L58480 35350
L58520 35380
L58550 35400
L58570 35450
L58570 35590
L58550 35640
L58520 35660
" />
</g>
<g style="fill:#008484; fill-opacity:0.0; 
stroke:#008484; stroke-width:60; stroke-opacity:1; 
stroke-linecap:round; stroke-linejoin:round;">
<path d="M59540 36830
L59490 36810
L59440 36760
L59370 36690
L59320 36660
L59280 36660
" />
<path d="M59300 36780
L59250 36760
L59200 36710
L59180 36610
L59180 36450
L59200 36350
L59250 36310
L59300 36280
L59390 36280
L59440 36310
L59490 36350
L59510 36450
L59510 36610
L59490 36710
L59440 36760
L59390 36780
L59300 36780
" />
<path d="M59940 36450
L59940 36780
" />
<path d="M59820 36260
L59700 36610
L60010 36610
" />
<path d="M59530 37740
L59480 37720
L59440 37670
L59360 37600
L59320 37570
L59270 37570
" />
<path d="M59290 37690
L59250 37670
L59200 37620
L59170 37520
L59170 37360
L59200 37260
L59250 37220
L59290 37190
L59390 37190
L59440 37220
L59480 37260
L59510 37360
L59510 37520
L59480 37620
L59440 37670
L59390 37690
L59290 37690
" />
<path d="M59600 37740
L59980 37740
" />
<path d="M60100 37690
L60100 37190
L60290 37190
L60340 37220
L60360 37240
L60390 37290
L60390 37360
L60360 37410
L60340 37430
L60290 37450
L60100 37450
" />
<path d="M60600 37690
L60600 37190
L60770 37550
L60940 37190
L60940 37690
" />
<path d="M61270 37190
L61360 37190
L61410 37220
L61460 37260
L61480 37360
L61480 37520
L61460 37620
L61410 37670
L61360 37690
L61270 37690
L61220 37670
L61170 37620
L61150 37520
L61150 37360
L61170 37260
L61220 37220
L61270 37190
" />
<path d="M61670 37670
L61750 37690
L61860 37690
L61910 37670
L61940 37640
L61960 37600
L61960 37550
L61940 37500
L61910 37480
L61860 37450
L61770 37430
L61720 37410
L61700 37380
L61670 37330
L61670 37290
L61700 37240
L61720 37220
L61770 37190
L61890 37190
L61960 37220
" />
<path d="M62050 37740
L62440 37740
" />
<path d="M62820 37220
L62770 37190
L62700 37190
L62630 37220
L62580 37260
L62550 37310
L62530 37410
L62530 37480
L62550 37570
L62580 37620
L62630 37670
L62700 37690
L62750 37690
L62820 37670
L62840 37640
L62840 37480
L62750 37480
" />
<path d="M63030 37670
L63100 37690
L63220 37690
L63270 37670
L63290 37640
L63320 37600
L63320 37550
L63290 37500
L63270 37480
L63220 37450
L63130 37430
L63080 37410
L63050 37380
L63030 37330
L63030 37290
L63050 37240
L63080 37220
L63130 37190
L63250 37190
L63320 37220
" />
<path d="M63530 37690
L63530 37190
L63650 37190
L63720 37220
L63770 37260
L63790 37310
L63820 37410
L63820 37480
L63790 37570
L63770 37620
L63720 37670
L63650 37690
L63530 37690
" />
</g>
<g style="fill:#008484; fill-opacity:0.0; 
stroke:#008484; stroke-width:0; stroke-opacity:1; 
stroke-linecap:round; stroke-linejoin:round;">
</g>
<g style="fill:#840000; fill-opacity:0.0; 
stroke:#840000; stroke-width:0; stroke-opacity:1; 
stroke-linecap:round; stroke-linejoin:round;">
</g>
<g style="fill:#840000; fill-opacity:0.0; 
stroke:#840000; stroke-width:100; stroke-opacity:1; 
stroke-linecap:round; stroke-linejoin:round;">
<circle cx="50350" cy="43500" r="1110" /> 
</g>
<g style="fill:#840000; fill-opacity:1.0; 
stroke:#840000; stroke-width:60; stroke-opacity:1; 
stroke-linecap:round; stroke-linejoin:round;">
<circle cx="50000" cy="42800" r="110" /> 
<circle cx="50000" cy="44200" r="110" /> 
</g>
<g style="fill:#840000; fill-opacity:0.0; 
stroke:#840000; stroke-width:60; stroke-opacity:1; 
stroke-linecap:round; stroke-linejoin:round;">
<polyline fill="none;"
points="50980,43500
50900,43500
" /> 
<polyline fill="none;"
points="50700,42800
50000,42800
" /> 
</g>
<g style="fill:#840000; fill-opacity:0.0; 
stroke:#840000; stroke-width:100; stroke-opacity:1; 
stroke-linecap:round; stroke-linejoin:round;">
<polyline fill="none;"
points="50700,43000
50700,42600
" /> 
</g>
<g style="fill:#840000; fill-opacity:0.0; 
stroke:#840000; stroke-width:60; stroke-opacity:1; 
stroke-linecap:round; stroke-linejoin:round;">
<polyline fill="none;"
points="50700,43500
50000,43500
" /> 
</g>
<g style="fill:#840000; fill-opacity:0.0; 
stroke:#840000; stroke-width:100; stroke-opacity:1; 
stroke-linecap:round; stroke-linejoin:round;">
<polyline fill="none;"
points="50700,43700
50700,43300
" /> 
</g>
<g style="fill:#840000; fill-opacity:0.0; 
stroke:#840000; stroke-width:60; stroke-opacity:1; 
stroke-linecap:round; stroke-linejoin:round;">
<polyline fill="none;"
points="50700,44200
50000,44200
" /> 
</g>
<g style="fill:#840000; fill-opacity:0.0; 
stroke:#840000; stroke-width:100; stroke-opacity:1; 
stroke-linecap:round; stroke-linejoin:round;">
<polyline fill="none;"
points="50700,44400
50700,44000
" /> 
</g>
<g style="fill:#840000; fill-opacity:0.0; 
stroke:#840000; stroke-width:60; stroke-opacity:1; 
stroke-linecap:round; stroke-linejoin:round;">
<polyline fill="none;"
points="50000,42800
50000,42500
" /> 
<polyline fill="none;"
points="50000,42800
50000,43500
" /> 
<polyline fill="none;"
points="50000,44500
50000,44200
" /> 
</g>
<g style="fill:#840000; fill-opacity:0.0; 
stroke:#840000; stroke-width:100; stroke-opacity:1; 
stroke-linecap:round; stroke-linejoin:round;">
<polyline fill="none;"
points="50900,44250
50900,42750
50900,42750
" /> 
</g>
<g style="fill:#840000; fill-opacity:1.0; 
stroke:#840000; stroke-width:60; stroke-opacity:1; 
stroke-linecap:round; stroke-linejoin:round;">
<polyline style="fill-rule:evenodd;"
points="50600,43500
50200,43650
50200,43350
50600,43500
" /> 
</g>
<g style="fill:#840000; fill-opacity:0.0; 
stroke:#840000; stroke-width:60; stroke-opacity:1; 
stroke-linecap:round; stroke-linejoin:round;">
<polyline fill="none;"
points="50000,42800
49700,42800
49700,44200
50000,44200
" /> 
<polyline fill="none;"
points="49900,43700
49850,43650
49550,43650
49500,43600
" /> 
<polyline fill="none;"
points="49700,43650
49850,43400
49550,43400
49700,43650
" /> 
<path d="M51000 43500
L53000 43500
" />
<path d="M52140 44070
L51850 44070
" />
<path d="M52000 44070
L52000 43570
L51950 43640
L51900 43690
L51850 43710
" />
<path d="M50000 42500
L50000 41500
" />
<path d="M50120 42140
L50100 42110
L50070 42070
L50070 41950
L50100 41900
L50120 41880
L50170 41850
L50210 41850
L50290 41880
L50570 42160
L50570 41850
" />
<path d="M50000 44500
L50000 45500
" />
<path d="M50070 45160
L50070 44850
L50260 45020
L50260 44950
L50290 44900
L50310 44880
L50360 44850
L50480 44850
L50520 44880
L50550 44900
L50570 44950
L50570 45090
L50550 45140
L50520 45160
" />
</g>
<g style="fill:#008484; fill-opacity:0.0; 
stroke:#008484; stroke-width:60; stroke-opacity:1; 
stroke-linecap:round; stroke-linejoin:round;">
<path d="M48360 43280
L48310 43260
L48260 43210
L48190 43140
L48140 43110
L48100 43110
" />
<path d="M48120 43230
L48070 43210
L48020 43160
L48000 43060
L48000 42900
L48020 42800
L48070 42760
L48120 42730
L48210 42730
L48260 42760
L48310 42800
L48330 42900
L48330 43060
L48310 43160
L48260 43210
L48210 43230
L48120 43230
" />
<path d="M48500 42730
L48810 42730
L48640 42920
L48710 42920
L48760 42950
L48790 42970
L48810 43020
L48810 43140
L48790 43180
L48760 43210
L48710 43230
L48570 43230
L48520 43210
L48500 43180
" />
<path d="M44500 44190
L44450 44170
L44400 44120
L44330 44050
L44280 44020
L44240 44020
" />
<path d="M44260 44140
L44210 44120
L44170 44070
L44140 43970
L44140 43810
L44170 43710
L44210 43670
L44260 43640
L44360 43640
L44400 43670
L44450 43710
L44480 43810
L44480 43970
L44450 44070
L44400 44120
L44360 44140
L44260 44140
" />
<path d="M44570 44190
L44950 44190
" />
<path d="M45070 44140
L45070 43640
L45360 44140
L45360 43640
" />
<path d="M45590 44140
L45590 43640
L45760 44000
L45930 43640
L45930 44140
" />
<path d="M46260 43640
L46360 43640
L46400 43670
L46450 43710
L46480 43810
L46480 43970
L46450 44070
L46400 44120
L46360 44140
L46260 44140
L46210 44120
L46170 44070
L46140 43970
L46140 43810
L46170 43710
L46210 43670
L46260 43640
" />
<path d="M46670 44120
L46740 44140
L46860 44140
L46900 44120
L46930 44090
L46950 44050
L46950 44000
L46930 43950
L46900 43930
L46860 43900
L46760 43880
L46710 43860
L46690 43830
L46670 43780
L46670 43740
L46690 43690
L46710 43670
L46760 43640
L46880 43640
L46950 43670
" />
<path d="M47050 44190
L47430 44190
" />
<path d="M47810 43670
L47760 43640
L47690 43640
L47620 43670
L47570 43710
L47550 43760
L47520 43860
L47520 43930
L47550 44020
L47570 44070
L47620 44120
L47690 44140
L47740 44140
L47810 44120
L47830 44090
L47830 43930
L47740 43930
" />
<path d="M48020 44120
L48090 44140
L48210 44140
L48260 44120
L48280 44090
L48310 44050
L48310 44000
L48280 43950
L48260 43930
L48210 43900
L48120 43880
L48070 43860
L48050 43830
L48020 43780
L48020 43740
L48050 43690
L48070 43670
L48120 43640
L48240 43640
L48310 43670
" />
<path d="M48520 44140
L48520 43640
L48640 43640
L48710 43670
L48760 43710
L48780 43760
L48810 43860
L48810 43930
L48780 44020
L48760 44070
L48710 44120
L48640 44140
L48520 44140
" />
</g>
<g style="fill:#008484; fill-opacity:0.0; 
stroke:#008484; stroke-width:0; stroke-opacity:1; 
stroke-linecap:round; stroke-linejoin:round;">
</g>
<g style="fill:#840000; fill-opacity:0.0; 
stroke:#840000; stroke-width:0; stroke-opacity:1; 
stroke-linecap:round; stroke-linejoin:round;">
</g>
<g style="fill:#840000; fill-opacity:0.0; 
stroke:#840000; stroke-width:100; stroke-opacity:1; 
stroke-linecap:round; stroke-linejoin:round;">
<circle cx="50350" cy="37000" r="1110" /> 
</g>
<g style="fill:#840000; fill-opacity:1.0; 
stroke:#840000; stroke-width:60; stroke-opacity:1; 
stroke-linecap:round; stroke-linejoin:round;">
<circle cx="50000" cy="36300" r="110" /> 
<circle cx="50000" cy="37700" r="110" /> 
</g>
<g style="fill:#840000; fill-opacity:0.0; 
stroke:#840000; stroke-width:60; stroke-opacity:1; 
stroke-linecap:round; stroke-linejoin:round;">
<polyline fill="none;"
points="50980,37000
50900,37000
" /> 
<polyline fill="none;"
points="50700,36300
50000,36300
" /> 
</g>
<g style="fill:#840000; fill-opacity:0.0; 
stroke:#840000; stroke-width:100; stroke-opacity:1; 
stroke-linecap:round; stroke-linejoin:round;">
<polyline fill="none;"
points="50700,36500
50700,36100
" /> 
</g>
<g style="fill:#840000; fill-opacity:0.0; 
stroke:#840000; stroke-width:60; stroke-opacity:1; 
stroke-linecap:round; stroke-linejoin:round;">
<polyline fill="none;"
points="50700,37000
50000,37000
" /> 
</g>
<g style="fill:#840000; fill-opacity:0.0; 
stroke:#840000; stroke-width:100; stroke-opacity:1; 
stroke-linecap:round; stroke-linejoin:round;">
<polyline fill="none;"
points="50700,37200
50700,36800
" /> 
</g>
<g style="fill:#840000; fill-opacity:0.0; 
stroke:#840000; stroke-width:60; stroke-opacity:1; 
stroke-linecap:round; stroke-linejoin:round;">
<polyline fill="none;"
points="50700,37700
50000,37700
" /> 
</g>
<g style="fill:#840000; fill-opacity:0.0; 
stroke:#840000; stroke-width:100; stroke-opacity:1; 
stroke-linecap:round; stroke-linejoin:round;">
<polyline fill="none;"
points="50700,37900
50700,37500
" /> 
</g>
<g style="fill:#840000; fill-opacity:0.0; 
stroke:#840000; stroke-width:60; stroke-opacity:1; 
stroke-linecap:round; stroke-linejoin:round;">
<polyline fill="none;"
points="50000,36300
50000,36000
" /> 
<polyline fill="none;"
points="50000,36300
50000,37000
" /> 
<polyline fill="none;"
points="50000,38000
50000,37700
" /> 
</g>
<g style="fill:#840000; fill-opacity:0.0; 
stroke:#840000; stroke-width:100; stroke-opacity:1; 
stroke-linecap:round; stroke-linejoin:round;">
<polyline fill="none;"
points="50900,37750
50900,36250
50900,36250
" /> 
</g>
<g style="fill:#840000; fill-opacity:1.0; 
stroke:#840000; stroke-width:60; stroke-opacity:1; 
stroke-linecap:round; stroke-linejoin:round;">
<polyline style="fill-rule:evenodd;"
points="50100,37000
50500,36850
50500,37150
50100,37000
" /> 
</g>
<g style="fill:#840000; fill-opacity:0.0; 
stroke:#840000; stroke-width:60; stroke-opacity:1; 
stroke-linecap:round; stroke-linejoin:round;">
<polyline fill="none;"
points="50000,36300
49700,36300
49700,37700
50000,37700
" /> 
<polyline fill="none;"
points="49900,36800
49850,36850
49550,36850
49500,36900
" /> 
<polyline fill="none;"
points="49700,36850
49850,37100
49550,37100
49700,36850
" /> 
<path d="M51000 37000
L53000 37000
" />
<path d="M52140 37570
L51850 37570
" />
<path d="M52000 37570
L52000 37070
L51950 37140
L51900 37190
L51850 37210
" />
<path d="M50000 36000
L50000 35000
" />
<path d="M50120 35640
L50100 35610
L50070 35570
L50070 35450
L50100 35400
L50120 35380
L50170 35350
L50210 35350
L50290 35380
L50570 35660
L50570 35350
" />
<path d="M50000 38000
L50000 39000
" />
<path d="M50070 38660
L50070 38350
L50260 38520
L50260 38450
L50290 38400
L50310 38380
L50360 38350
L50480 38350
L50520 38380
L50550 38400
L50570 38450
L50570 38590
L50550 38640
L50520 38660
" />
</g>
<g style="fill:#008484; fill-opacity:0.0; 
stroke:#008484; stroke-width:60; stroke-opacity:1; 
stroke-linecap:round; stroke-linejoin:round;">
<path d="M48360 36780
L48310 36760
L48260 36710
L48190 36640
L48140 36610
L48100 36610
" />
<path d="M48120 36730
L48070 36710
L48020 36660
L48000 36560
L48000 36400
L48020 36300
L48070 36260
L48120 36230
L48210 36230
L48260 36260
L48310 36300
L48330 36400
L48330 36560
L48310 36660
L48260 36710
L48210 36730
L48120 36730
" />
<path d="M48520 36280
L48550 36260
L48600 36230
L48710 36230
L48760 36260
L48790 36280
L48810 36330
L48810 36370
L48790 36450
L48500 36730
L48810 36730
" />
<path d="M44520 37690
L44470 37670
L44430 37620
L44350 37550
L44310 37520
L44260 37520
" />
<path d="M44280 37640
L44240 37620
L44190 37570
L44160 37470
L44160 37310
L44190 37210
L44240 37170
L44280 37140
L44380 37140
L44430 37170
L44470 37210
L44500 37310
L44500 37470
L44470 37570
L44430 37620
L44380 37640
L44280 37640
" />
<path d="M44590 37690
L44970 37690
" />
<path d="M45090 37640
L45090 37140
L45280 37140
L45330 37170
L45350 37190
L45380 37240
L45380 37310
L45350 37360
L45330 37380
L45280 37400
L45090 37400
" />
<path d="M45590 37640
L45590 37140
L45760 37500
L45930 37140
L45930 37640
" />
<path d="M46260 37140
L46350 37140
L46400 37170
L46450 37210
L46470 37310
L46470 37470
L46450 37570
L46400 37620
L46350 37640
L46260 37640
L46210 37620
L46160 37570
L46140 37470
L46140 37310
L46160 37210
L46210 37170
L46260 37140
" />
<path d="M46660 37620
L46740 37640
L46850 37640
L46900 37620
L46930 37590
L46950 37550
L46950 37500
L46930 37450
L46900 37430
L46850 37400
L46760 37380
L46710 37360
L46690 37330
L46660 37280
L46660 37240
L46690 37190
L46710 37170
L46760 37140
L46880 37140
L46950 37170
" />
<path d="M47040 37690
L47430 37690
" />
<path d="M47810 37170
L47760 37140
L47690 37140
L47620 37170
L47570 37210
L47540 37260
L47520 37360
L47520 37430
L47540 37520
L47570 37570
L47620 37620
L47690 37640
L47740 37640
L47810 37620
L47830 37590
L47830 37430
L47740 37430
" />
<path d="M48020 37620
L48090 37640
L48210 37640
L48260 37620
L48280 37590
L48310 37550
L48310 37500
L48280 37450
L48260 37430
L48210 37400
L48120 37380
L48070 37360
L48040 37330
L48020 37280
L48020 37240
L48040 37190
L48070 37170
L48120 37140
L48240 37140
L48310 37170
" />
<path d="M48520 37640
L48520 37140
L48640 37140
L48710 37170
L48760 37210
L48780 37260
L48810 37360
L48810 37430
L48780 37520
L48760 37570
L48710 37620
L48640 37640
L48520 37640
" />
</g>
<g style="fill:#008400; fill-opacity:0.0; 
stroke:#008400; stroke-width:60; stroke-opacity:1; 
stroke-linecap:round; stroke-linejoin:round;">
<path d="M50000 39000
L50000 41000
" />
<path d="M58000 39000
L58000 39500
" />
<path d="M53000 43500
L53000 39500
" />
<path d="M55000 37000
L55000 41000
" />
<path d="M50000 41000
L55000 41000
" />
</g>
<g style="fill:#008400; fill-opacity:0.0; 
stroke:#008400; stroke-width:0; stroke-opacity:1; 
stroke-linecap:round; stroke-linejoin:round;">
</g>
<g style="fill:#008400; fill-opacity:1.0; 
stroke:#008400; stroke-width:100; stroke-opacity:1; 
stroke-linecap:round; stroke-linejoin:round;">
<circle cx="50000" cy="41000" r="200" /> 
</g>
<g style="fill:#008400; fill-opacity:1.0; 
stroke:#008400; stroke-width:60; stroke-opacity:1; 
stroke-linecap:round; stroke-linejoin:round;">
</g>
<g style="fill:#008400; fill-opacity:0.0; 
stroke:#008400; stroke-width:60; stroke-opacity:1; 
stroke-linecap:round; stroke-linejoin:round;">
<path d="M50000 41000
L50000 41500
" />
</g>
<g style="fill:#008400; fill-opacity:0.0; 
stroke:#008400; stroke-width:0; stroke-opacity:1; 
stroke-linecap:round; stroke-linejoin:round;">
</g>
<g style="fill:#008400; fill-opacity:1.0; 
stroke:#008400; stroke-width:100; stroke-opacity:1; 
stroke-linecap:round; stroke-linejoin:round;">
<circle cx="55000" cy="41000" r="200" /> 
</g>
<g style="fill:#008400; fill-opacity:1.0; 
stroke:#008400; stroke-width:60; stroke-opacity:1; 
stroke-linecap:round; stroke-linejoin:round;">
</g>
<g style="fill:#008400; fill-opacity:0.0; 
stroke:#008400; stroke-width:60; stroke-opacity:1; 
stroke-linecap:round; stroke-linejoin:round;">
<path d="M55000 41000
L55000 43500
" />
<path d="M53000 39500
L58000 39500
" />
</g>
<g style="fill:#008400; fill-opacity:0.0; 
stroke:#008400; stroke-width:0; stroke-opacity:1; 
stroke-linecap:round; stroke-linejoin:round;">
</g>
<g style="fill:#008400; fill-opacity:1.0; 
stroke:#008400; stroke-width:100; stroke-opacity:1; 
stroke-linecap:round; stroke-linejoin:round;">
<circle cx="53000" cy="39500" r="200" /> 
</g>
<g style="fill:#008400; fill-opacity:1.0; 
stroke:#008400; stroke-width:60; stroke-opacity:1; 
stroke-linecap:round; stroke-linejoin:round;">
</g>
<g style="fill:#008400; fill-opacity:0.0; 
stroke:#008400; stroke-width:60; stroke-opacity:1; 
stroke-linecap:round; stroke-linejoin:round;">
<path d="M53000 39500
L53000 37000
" />
</g>
<g style="fill:#008400; fill-opacity:0.0; 
stroke:#008400; stroke-width:0; stroke-opacity:1; 
stroke-linecap:round; stroke-linejoin:round;">
</g>
<g style="fill:#008400; fill-opacity:1.0; 
stroke:#008400; stroke-width:100; stroke-opacity:1; 
stroke-linecap:round; stroke-linejoin:round;">
<circle cx="58000" cy="39500" r="200" /> 
</g>
<g style="fill:#008400; fill-opacity:1.0; 
stroke:#008400; stroke-width:60; stroke-opacity:1; 
stroke-linecap:round; stroke-linejoin:round;">
</g>
<g style="fill:#008400; fill-opacity:0.0; 
stroke:#008400; stroke-width:60; stroke-opacity:1; 
stroke-linecap:round; stroke-linejoin:round;">
<path d="M58000 39500
L58000 41500
" />
</g>
<g style="fill:#008400; fill-opacity:0.0; 
stroke:#008400; stroke-width:0; stroke-opacity:1; 
stroke-linecap:round; stroke-linejoin:round;">
</g>
<g style="fill:#840000; fill-opacity:0.0; 
stroke:#840000; stroke-width:0; stroke-opacity:1; 
stroke-linecap:round; stroke-linejoin:round;">
</g>
<g style="fill:#840000; fill-opacity:0.0; 
stroke:#840000; stroke-width:100; stroke-opacity:1; 
stroke-linecap:round; stroke-linejoin:round;">
<circle cx="67500" cy="39150" r="1110" /> 
</g>
<g style="fill:#840000; fill-opacity:1.0; 
stroke:#840000; stroke-width:60; stroke-opacity:1; 
stroke-linecap:round; stroke-linejoin:round;">
<circle cx="66800" cy="39500" r="110" /> 
<circle cx="68200" cy="39500" r="110" /> 
</g>
<g style="fill:#840000; fill-opacity:0.0; 
stroke:#840000; stroke-width:60; stroke-opacity:1; 
stroke-linecap:round; stroke-linejoin:round;">
<polyline fill="none;"
points="67500,38520
67500,38600
" /> 
<polyline fill="none;"
points="66800,38800
66800,39500
" /> 
</g>
<g style="fill:#840000; fill-opacity:0.0; 
stroke:#840000; stroke-width:100; stroke-opacity:1; 
stroke-linecap:round; stroke-linejoin:round;">
<polyline fill="none;"
points="67000,38800
66600,38800
" /> 
</g>
<g style="fill:#840000; fill-opacity:0.0; 
stroke:#840000; stroke-width:60; stroke-opacity:1; 
stroke-linecap:round; stroke-linejoin:round;">
<polyline fill="none;"
points="67500,38800
67500,39500
" /> 
</g>
<g style="fill:#840000; fill-opacity:0.0; 
stroke:#840000; stroke-width:100; stroke-opacity:1; 
stroke-linecap:round; stroke-linejoin:round;">
<polyline fill="none;"
points="67700,38800
67300,38800
" /> 
</g>
<g style="fill:#840000; fill-opacity:0.0; 
stroke:#840000; stroke-width:60; stroke-opacity:1; 
stroke-linecap:round; stroke-linejoin:round;">
<polyline fill="none;"
points="68200,38800
68200,39500
" /> 
</g>
<g style="fill:#840000; fill-opacity:0.0; 
stroke:#840000; stroke-width:100; stroke-opacity:1; 
stroke-linecap:round; stroke-linejoin:round;">
<polyline fill="none;"
points="68400,38800
68000,38800
" /> 
</g>
<g style="fill:#840000; fill-opacity:0.0; 
stroke:#840000; stroke-width:60; stroke-opacity:1; 
stroke-linecap:round; stroke-linejoin:round;">
<polyline fill="none;"
points="66800,39500
66500,39500
" /> 
<polyline fill="none;"
points="66800,39500
67500,39500
" /> 
<polyline fill="none;"
points="68500,39500
68200,39500
" /> 
</g>
<g style="fill:#840000; fill-opacity:0.0; 
stroke:#840000; stroke-width:100; stroke-opacity:1; 
stroke-linecap:round; stroke-linejoin:round;">
<polyline fill="none;"
points="68250,38600
66750,38600
66750,38600
" /> 
</g>
<g style="fill:#840000; fill-opacity:1.0; 
stroke:#840000; stroke-width:60; stroke-opacity:1; 
stroke-linecap:round; stroke-linejoin:round;">
<polyline style="fill-rule:evenodd;"
points="67500,38900
67650,39300
67350,39300
67500,38900
" /> 
</g>
<g style="fill:#840000; fill-opacity:0.0; 
stroke:#840000; stroke-width:60; stroke-opacity:1; 
stroke-linecap:round; stroke-linejoin:round;">
<polyline fill="none;"
points="66800,39500
66800,39800
68200,39800
68200,39500
" /> 
<polyline fill="none;"
points="67700,39600
67650,39650
67650,39950
67600,40000
" /> 
<polyline fill="none;"
points="67650,39800
67400,39650
67400,39950
67650,39800
" /> 
<path d="M67500 38500
L67500 36500
" />
<path d="M68070 37350
L68070 37640
" />
<path d="M68070 37500
L67570 37500
L67640 37540
L67690 37590
L67710 37640
" />
<path d="M66500 39500
L65500 39500
" />
<path d="M65850 39620
L65880 39600
L65920 39570
L66040 39570
L66090 39600
L66110 39620
L66140 39670
L66140 39710
L66110 39790
L65830 40070
L66140 40070
" />
<path d="M68500 39500
L69500 39500
" />
<path d="M68830 39570
L69140 39570
L68970 39760
L69040 39760
L69090 39790
L69110 39810
L69140 39860
L69140 39980
L69110 40020
L69090 40050
L69040 40070
L68900 40070
L68850 40050
L68830 40020
" />
</g>
<g style="fill:#008484; fill-opacity:0.0; 
stroke:#008484; stroke-width:60; stroke-opacity:1; 
stroke-linecap:round; stroke-linejoin:round;">
<path d="M67450 41290
L67400 41270
L67350 41220
L67280 41150
L67230 41120
L67190 41120
" />
<path d="M67210 41240
L67160 41220
L67110 41170
L67090 41070
L67090 40910
L67110 40810
L67160 40770
L67210 40740
L67300 40740
L67350 40770
L67400 40810
L67420 40910
L67420 41070
L67400 41170
L67350 41220
L67300 41240
L67210 41240
" />
<path d="M67850 40740
L67760 40740
L67710 40770
L67690 40790
L67640 40860
L67610 40960
L67610 41150
L67640 41190
L67660 41220
L67710 41240
L67800 41240
L67850 41220
L67880 41190
L67900 41150
L67900 41030
L67880 40980
L67850 40960
L67800 40930
L67710 40930
L67660 40960
L67640 40980
L67610 41030
" />
<path d="M65520 42200
L65470 42180
L65420 42130
L65350 42060
L65300 42030
L65260 42030
" />
<path d="M65280 42150
L65230 42130
L65190 42080
L65160 41980
L65160 41820
L65190 41720
L65230 41680
L65280 41650
L65380 41650
L65420 41680
L65470 41720
L65500 41820
L65500 41980
L65470 42080
L65420 42130
L65380 42150
L65280 42150
" />
<path d="M65590 42200
L65970 42200
" />
<path d="M66090 42150
L66090 41650
L66380 42150
L66380 41650
" />
<path d="M66610 42150
L66610 41650
L66780 42010
L66950 41650
L66950 42150
" />
<path d="M67280 41650
L67380 41650
L67420 41680
L67470 41720
L67500 41820
L67500 41980
L67470 42080
L67420 42130
L67380 42150
L67280 42150
L67230 42130
L67190 42080
L67160 41980
L67160 41820
L67190 41720
L67230 41680
L67280 41650
" />
<path d="M67690 42130
L67760 42150
L67880 42150
L67920 42130
L67950 42100
L67970 42060
L67970 42010
L67950 41960
L67920 41940
L67880 41910
L67780 41890
L67730 41870
L67710 41840
L67690 41790
L67690 41750
L67710 41700
L67730 41680
L67780 41650
L67900 41650
L67970 41680
" />
<path d="M68070 42200
L68450 42200
" />
<path d="M68830 41680
L68780 41650
L68710 41650
L68640 41680
L68590 41720
L68570 41770
L68540 41870
L68540 41940
L68570 42030
L68590 42080
L68640 42130
L68710 42150
L68760 42150
L68830 42130
L68850 42100
L68850 41940
L68760 41940
" />
<path d="M69040 42130
L69110 42150
L69230 42150
L69280 42130
L69300 42100
L69330 42060
L69330 42010
L69300 41960
L69280 41940
L69230 41910
L69140 41890
L69090 41870
L69070 41840
L69040 41790
L69040 41750
L69070 41700
L69090 41680
L69140 41650
L69260 41650
L69330 41680
" />
<path d="M69540 42150
L69540 41650
L69660 41650
L69730 41680
L69780 41720
L69800 41770
L69830 41870
L69830 41940
L69800 42030
L69780 42080
L69730 42130
L69660 42150
L69540 42150
" />
</g>
<g style="fill:#008484; fill-opacity:0.0; 
stroke:#008484; stroke-width:0; stroke-opacity:1; 
stroke-linecap:round; stroke-linejoin:round;">
</g>
<g style="fill:#840000; fill-opacity:0.0; 
stroke:#840000; stroke-width:0; stroke-opacity:1; 
stroke-linecap:round; stroke-linejoin:round;">
</g>
<g style="fill:#840000; fill-opacity:0.0; 
stroke:#840000; stroke-width:100; stroke-opacity:1; 
stroke-linecap:round; stroke-linejoin:round;">
<circle cx="40500" cy="40650" r="1110" /> 
</g>
<g style="fill:#840000; fill-opacity:1.0; 
stroke:#840000; stroke-width:60; stroke-opacity:1; 
stroke-linecap:round; stroke-linejoin:round;">
<circle cx="39800" cy="41000" r="110" /> 
<circle cx="41200" cy="41000" r="110" /> 
</g>
<g style="fill:#840000; fill-opacity:0.0; 
stroke:#840000; stroke-width:60; stroke-opacity:1; 
stroke-linecap:round; stroke-linejoin:round;">
<polyline fill="none;"
points="40500,40020
40500,40100
" /> 
<polyline fill="none;"
points="39800,40300
39800,41000
" /> 
</g>
<g style="fill:#840000; fill-opacity:0.0; 
stroke:#840000; stroke-width:100; stroke-opacity:1; 
stroke-linecap:round; stroke-linejoin:round;">
<polyline fill="none;"
points="40000,40300
39600,40300
" /> 
</g>
<g style="fill:#840000; fill-opacity:0.0; 
stroke:#840000; stroke-width:60; stroke-opacity:1; 
stroke-linecap:round; stroke-linejoin:round;">
<polyline fill="none;"
points="40500,40300
40500,41000
" /> 
</g>
<g style="fill:#840000; fill-opacity:0.0; 
stroke:#840000; stroke-width:100; stroke-opacity:1; 
stroke-linecap:round; stroke-linejoin:round;">
<polyline fill="none;"
points="40700,40300
40300,40300
" /> 
</g>
<g style="fill:#840000; fill-opacity:0.0; 
stroke:#840000; stroke-width:60; stroke-opacity:1; 
stroke-linecap:round; stroke-linejoin:round;">
<polyline fill="none;"
points="41200,40300
41200,41000
" /> 
</g>
<g style="fill:#840000; fill-opacity:0.0; 
stroke:#840000; stroke-width:100; stroke-opacity:1; 
stroke-linecap:round; stroke-linejoin:round;">
<polyline fill="none;"
points="41400,40300
41000,40300
" /> 
</g>
<g style="fill:#840000; fill-opacity:0.0; 
stroke:#840000; stroke-width:60; stroke-opacity:1; 
stroke-linecap:round; stroke-linejoin:round;">
<polyline fill="none;"
points="39800,41000
39500,41000
" /> 
<polyline fill="none;"
points="39800,41000
40500,41000
" /> 
<polyline fill="none;"
points="41500,41000
41200,41000
" /> 
</g>
<g style="fill:#840000; fill-opacity:0.0; 
stroke:#840000; stroke-width:100; stroke-opacity:1; 
stroke-linecap:round; stroke-linejoin:round;">
<polyline fill="none;"
points="41250,40100
39750,40100
39750,40100
" /> 
</g>
<g style="fill:#840000; fill-opacity:1.0; 
stroke:#840000; stroke-width:60; stroke-opacity:1; 
stroke-linecap:round; stroke-linejoin:round;">
<polyline style="fill-rule:evenodd;"
points="40500,40400
40650,40800
40350,40800
40500,40400
" /> 
</g>
<g style="fill:#840000; fill-opacity:0.0; 
stroke:#840000; stroke-width:60; stroke-opacity:1; 
stroke-linecap:round; stroke-linejoin:round;">
<polyline fill="none;"
points="39800,41000
39800,41300
41200,41300
41200,41000
" /> 
<polyline fill="none;"
points="40700,41100
40650,41150
40650,41450
40600,41500
" /> 
<polyline fill="none;"
points="40650,41300
40400,41150
40400,41450
40650,41300
" /> 
<path d="M40500 40000
L40500 38000
" />
<path d="M41070 38850
L41070 39140
" />
<path d="M41070 39000
L40570 39000
L40640 39040
L40690 39090
L40710 39140
" />
<path d="M39500 41000
L38500 41000
" />
<path d="M38850 41120
L38880 41100
L38920 41070
L39040 41070
L39090 41100
L39110 41120
L39140 41170
L39140 41210
L39110 41290
L38830 41570
L39140 41570
" />
<path d="M41500 41000
L42500 41000
" />
<path d="M41830 41070
L42140 41070
L41970 41260
L42040 41260
L42090 41290
L42110 41310
L42140 41360
L42140 41480
L42110 41520
L42090 41550
L42040 41570
L41900 41570
L41850 41550
L41830 41520
" />
</g>
<g style="fill:#008484; fill-opacity:0.0; 
stroke:#008484; stroke-width:60; stroke-opacity:1; 
stroke-linecap:round; stroke-linejoin:round;">
<path d="M40450 42790
L40400 42770
L40350 42720
L40280 42650
L40230 42620
L40190 42620
" />
<path d="M40210 42740
L40160 42720
L40110 42670
L40090 42570
L40090 42410
L40110 42310
L40160 42270
L40210 42240
L40300 42240
L40350 42270
L40400 42310
L40420 42410
L40420 42570
L40400 42670
L40350 42720
L40300 42740
L40210 42740
" />
<path d="M40900 42740
L40610 42740
" />
<path d="M40760 42740
L40760 42240
L40710 42310
L40660 42360
L40610 42380
" />
<path d="M38520 43700
L38470 43680
L38420 43630
L38350 43560
L38300 43530
L38260 43530
" />
<path d="M38280 43650
L38230 43630
L38190 43580
L38160 43480
L38160 43320
L38190 43220
L38230 43180
L38280 43150
L38380 43150
L38420 43180
L38470 43220
L38500 43320
L38500 43480
L38470 43580
L38420 43630
L38380 43650
L38280 43650
" />
<path d="M38590 43700
L38970 43700
" />
<path d="M39090 43650
L39090 43150
L39380 43650
L39380 43150
" />
<path d="M39610 43650
L39610 43150
L39780 43510
L39950 43150
L39950 43650
" />
<path d="M40280 43150
L40380 43150
L40420 43180
L40470 43220
L40500 43320
L40500 43480
L40470 43580
L40420 43630
L40380 43650
L40280 43650
L40230 43630
L40190 43580
L40160 43480
L40160 43320
L40190 43220
L40230 43180
L40280 43150
" />
<path d="M40690 43630
L40760 43650
L40880 43650
L40920 43630
L40950 43600
L40970 43560
L40970 43510
L40950 43460
L40920 43440
L40880 43410
L40780 43390
L40730 43370
L40710 43340
L40690 43290
L40690 43250
L40710 43200
L40730 43180
L40780 43150
L40900 43150
L40970 43180
" />
<path d="M41070 43700
L41450 43700
" />
<path d="M41830 43180
L41780 43150
L41710 43150
L41640 43180
L41590 43220
L41570 43270
L41540 43370
L41540 43440
L41570 43530
L41590 43580
L41640 43630
L41710 43650
L41760 43650
L41830 43630
L41850 43600
L41850 43440
L41760 43440
" />
<path d="M42040 43630
L42110 43650
L42230 43650
L42280 43630
L42300 43600
L42330 43560
L42330 43510
L42300 43460
L42280 43440
L42230 43410
L42140 43390
L42090 43370
L42070 43340
L42040 43290
L42040 43250
L42070 43200
L42090 43180
L42140 43150
L42260 43150
L42330 43180
" />
<path d="M42540 43650
L42540 43150
L42660 43150
L42730 43180
L42780 43220
L42800 43270
L42830 43370
L42830 43440
L42800 43530
L42780 43580
L42730 43630
L42660 43650
L42540 43650
" />
</g>
<g style="fill:#008400; fill-opacity:0.0; 
stroke:#008400; stroke-width:60; stroke-opacity:1; 
stroke-linecap:round; stroke-linejoin:round;">
<path d="M58000 39500
L65500 39500
" />
<path d="M50000 41000
L42500 41000
" />
<path d="M50000 35000
L54000 35000
" />
<path d="M50000 45500
L54000 45500
" />
</g>
<g style="fill:#008400; fill-opacity:0.0; 
stroke:#008400; stroke-width:0; stroke-opacity:1; 
stroke-linecap:round; stroke-linejoin:round;">
</g>
<g style="fill:#840000; fill-opacity:0.0; 
stroke:#840000; stroke-width:0; stroke-opacity:1; 
stroke-linecap:round; stroke-linejoin:round;">
</g>
<g style="fill:#840000; fill-opacity:0.0; 
stroke:#840000; stroke-width:60; stroke-opacity:1; 
stroke-linecap:round; stroke-linejoin:round;">
<polyline fill="none;"
points="54000,46000
54000,46500
54500,46500
54000,47000
53500,46500
54000,46500
" /> 
</g>
<g style="fill:#008484; fill-opacity:0.0; 
stroke:#008484; stroke-width:60; stroke-opacity:1; 
stroke-linecap:round; stroke-linejoin:round;">
<path d="M53660 47500
L53620 47470
L53550 47470
L53470 47500
L53430 47540
L53400 47590
L53380 47690
L53380 47760
L53400 47850
L53430 47900
L53470 47950
L53550 47970
L53590 47970
L53660 47950
L53690 47920
L53690 47760
L53590 47760
" />
<path d="M53900 47970
L53900 47470
L54190 47970
L54190 47470
" />
<path d="M54430 47970
L54430 47470
L54550 47470
L54620 47500
L54660 47540
L54690 47590
L54710 47690
L54710 47760
L54690 47850
L54660 47900
L54620 47950
L54550 47970
L54430 47970
" />
</g>
<g style="fill:#008484; fill-opacity:0.0; 
stroke:#008484; stroke-width:0; stroke-opacity:1; 
stroke-linecap:round; stroke-linejoin:round;">
</g>
<g style="fill:#840000; fill-opacity:0.0; 
stroke:#840000; stroke-width:0; stroke-opacity:1; 
stroke-linecap:round; stroke-linejoin:round;">
</g>
<g style="fill:#840000; fill-opacity:0.0; 
stroke:#840000; stroke-width:60; stroke-opacity:1; 
stroke-linecap:round; stroke-linejoin:round;">
<circle cx="54000" cy="33750" r="250" /> 
<polyline fill="none;"
points="54000,34500
54000,34000
" /> 
</g>
<g style="fill:#008484; fill-opacity:0.0; 
stroke:#008484; stroke-width:60; stroke-opacity:1; 
stroke-linecap:round; stroke-linejoin:round;">
<path d="M53500 32510
L53670 33010
L53830 32510
" />
<path d="M54000 33010
L54000 32510
L54120 32510
L54190 32540
L54240 32580
L54260 32630
L54280 32730
L54280 32800
L54260 32890
L54240 32940
L54190 32990
L54120 33010
L54000 33010
" />
<path d="M54500 33010
L54500 32510
L54620 32510
L54690 32540
L54740 32580
L54760 32630
L54780 32730
L54780 32800
L54760 32890
L54740 32940
L54690 32990
L54620 33010
L54500 33010
" />
</g>
<g style="fill:#008400; fill-opacity:0.0; 
stroke:#008400; stroke-width:60; stroke-opacity:1; 
stroke-linecap:round; stroke-linejoin:round;">
<path d="M54000 34500
L54000 35000
" />
</g>
<g style="fill:#008400; fill-opacity:0.0; 
stroke:#008400; stroke-width:0; stroke-opacity:1; 
stroke-linecap:round; stroke-linejoin:round;">
</g>
<g style="fill:#008400; fill-opacity:1.0; 
stroke:#008400; stroke-width:100; stroke-opacity:1; 
stroke-linecap:round; stroke-linejoin:round;">
<circle cx="54000" cy="35000" r="200" /> 
</g>
<g style="fill:#008400; fill-opacity:1.0; 
stroke:#008400; stroke-width:60; stroke-opacity:1; 
stroke-linecap:round; stroke-linejoin:round;">
</g>
<g style="fill:#008400; fill-opacity:0.0; 
stroke:#008400; stroke-width:60; stroke-opacity:1; 
stroke-linecap:round; stroke-linejoin:round;">
<path d="M54000 35000
L58000 35000
" />
<path d="M54000 46000
L54000 45500
" />
</g>
<g style="fill:#008400; fill-opacity:0.0; 
stroke:#008400; stroke-width:0; stroke-opacity:1; 
stroke-linecap:round; stroke-linejoin:round;">
</g>
<g style="fill:#008400; fill-opacity:1.0; 
stroke:#008400; stroke-width:100; stroke-opacity:1; 
stroke-linecap:round; stroke-linejoin:round;">
<circle cx="54000" cy="45500" r="200" /> 
</g>
<g style="fill:#008400; fill-opacity:1.0; 
stroke:#008400; stroke-width:60; stroke-opacity:1; 
stroke-linecap:round; stroke-linejoin:round;">
</g>
<g style="fill:#008400; fill-opacity:0.0; 
stroke:#008400; stroke-width:60; stroke-opacity:1; 
stroke-linecap:round; stroke-linejoin:round;">
<path d="M54000 45500
L58000 45500
" />
</g>
<g style="fill:#008400; fill-opacity:0.0; 
stroke:#008400; stroke-width:0; stroke-opacity:1; 
stroke-linecap:round; stroke-linejoin:round;">
</g>
<g style="fill:#840000; fill-opacity:0.0; 
stroke:#840000; stroke-width:0; stroke-opacity:1; 
stroke-linecap:round; stroke-linejoin:round;">
</g>
<g style="fill:#FFFFC2; fill-opacity:0.0; 
stroke:#FFFFC2; stroke-width:0; stroke-opacity:1; 
stroke-linecap:round; stroke-linejoin:round;">
</g>
<g style="fill:#FFFFC2; fill-opacity:0.6; 
stroke:#FFFFC2; stroke-width:0; stroke-opacity:1; 
stroke-linecap:round; stroke-linejoin:round;">
<rect x="75000" y="27500" width="1000" height="5000" rx="0" />
</g>
<g style="fill:#840000; fill-opacity:0.6; 
stroke:#840000; stroke-width:0; stroke-opacity:1; 
stroke-linecap:round; stroke-linejoin:round;">
</g>
<g style="fill:#840000; fill-opacity:0.0; 
stroke:#840000; stroke-width:100; stroke-opacity:1; 
stroke-linecap:round; stroke-linejoin:round;">
<rect x="75000" y="27500" width="1000" height="5000" rx="0" />
</g>
<g style="fill:#840000; fill-opacity:0.0; 
stroke:#840000; stroke-width:60; stroke-opacity:1; 
stroke-linecap:round; stroke-linejoin:round;">
<rect x="75000" y="31950" width="500" height="100" rx="0" />
<rect x="75000" y="30950" width="500" height="100" rx="0" />
<rect x="75000" y="29950" width="500" height="100" rx="0" />
<rect x="75000" y="28950" width="500" height="100" rx="0" />
<rect x="75000" y="27950" width="500" height="100" rx="0" />
<path d="M75000 28000
L73500 28000
" />
<path d="M74390 27870
L74100 27870
" />
<path d="M74250 27870
L74250 27370
L74200 27440
L74150 27490
L74100 27510
" />
<path d="M75000 29000
L73500 29000
" />
<path d="M74100 28420
L74130 28400
L74170 28370
L74290 28370
L74340 28400
L74360 28420
L74390 28470
L74390 28510
L74360 28590
L74080 28870
L74390 28870
" />
<path d="M75000 30000
L73500 30000
" />
<path d="M74080 29370
L74390 29370
L74220 29560
L74290 29560
L74340 29590
L74360 29610
L74390 29660
L74390 29780
L74360 29820
L74340 29850
L74290 29870
L74150 29870
L74100 29850
L74080 29820
" />
<path d="M75000 31000
L73500 31000
" />
<path d="M74340 30540
L74340 30870
" />
<path d="M74220 30350
L74100 30700
L74410 30700
" />
<path d="M75000 32000
L73500 32000
" />
<path d="M74360 31370
L74130 31370
L74100 31610
L74130 31590
L74170 31560
L74290 31560
L74340 31590
L74360 31610
L74390 31660
L74390 31780
L74360 31820
L74340 31850
L74290 31870
L74170 31870
L74130 31850
L74100 31820
" />
</g>
<g style="fill:#008484; fill-opacity:0.0; 
stroke:#008484; stroke-width:60; stroke-opacity:1; 
stroke-linecap:round; stroke-linejoin:round;">
<path d="M76590 29320
L76590 29680
L76560 29750
L76520 29800
L76450 29820
L76400 29820
" />
<path d="M77090 29820
L76800 29820
" />
<path d="M76950 29820
L76950 29320
L76900 29390
L76850 29440
L76800 29460
" />
<path d="M76730 30680
L76700 30710
L76630 30730
L76580 30730
L76510 30710
L76460 30660
L76440 30610
L76420 30520
L76420 30450
L76440 30350
L76460 30300
L76510 30260
L76580 30230
L76630 30230
L76700 30260
L76730 30280
" />
<path d="M77010 30730
L76960 30710
L76940 30680
L76920 30640
L76920 30490
L76940 30450
L76960 30420
L77010 30400
L77080 30400
L77130 30420
L77150 30450
L77180 30490
L77180 30640
L77150 30680
L77130 30710
L77080 30730
L77010 30730
" />
<path d="M77390 30400
L77390 30730
" />
<path d="M77390 30450
L77420 30420
L77460 30400
L77540 30400
L77580 30420
L77610 30470
L77610 30730
" />
<path d="M77850 30400
L77850 30730
" />
<path d="M77850 30450
L77870 30420
L77920 30400
L77990 30400
L78040 30420
L78060 30470
L78060 30730
" />
<path d="M78180 30780
L78560 30780
" />
<path d="M78770 30230
L78820 30230
L78870 30260
L78890 30280
L78920 30330
L78940 30420
L78940 30540
L78920 30640
L78890 30680
L78870 30710
L78820 30730
L78770 30730
L78730 30710
L78700 30680
L78680 30640
L78650 30540
L78650 30420
L78680 30330
L78700 30280
L78730 30260
L78770 30230
" />
<path d="M79420 30730
L79130 30730
" />
<path d="M79270 30730
L79270 30230
L79230 30300
L79180 30350
L79130 30370
" />
<path d="M79580 30730
L79850 30400
" />
<path d="M79580 30400
L79850 30730
" />
<path d="M80130 30230
L80180 30230
L80230 30260
L80250 30280
L80270 30330
L80300 30420
L80300 30540
L80270 30640
L80250 30680
L80230 30710
L80180 30730
L80130 30730
L80080 30710
L80060 30680
L80040 30640
L80010 30540
L80010 30420
L80040 30330
L80060 30280
L80080 30260
L80130 30230
" />
<path d="M80750 30230
L80510 30230
L80490 30470
L80510 30450
L80560 30420
L80680 30420
L80730 30450
L80750 30470
L80770 30520
L80770 30640
L80750 30680
L80730 30710
L80680 30730
L80560 30730
L80510 30710
L80490 30680
" />
</g>
<g style="fill:#008484; fill-opacity:0.0; 
stroke:#008484; stroke-width:0; stroke-opacity:1; 
stroke-linecap:round; stroke-linejoin:round;">
</g>
<g style="fill:#840000; fill-opacity:0.0; 
stroke:#840000; stroke-width:0; stroke-opacity:1; 
stroke-linecap:round; stroke-linejoin:round;">
</g>
<g style="fill:#840000; fill-opacity:0.0; 
stroke:#840000; stroke-width:60; stroke-opacity:1; 
stroke-linecap:round; stroke-linejoin:round;">
<polyline fill="none;"
points="72000,26500
72000,27000
72500,27000
72000,27500
71500,27000
72000,27000
" /> 
</g>
<g style="fill:#008484; fill-opacity:0.0; 
stroke:#008484; stroke-width:60; stroke-opacity:1; 
stroke-linecap:round; stroke-linejoin:round;">
<path d="M71660 28000
L71620 27970
L71550 27970
L71470 28000
L71430 28040
L71400 28090
L71380 28190
L71380 28260
L71400 28350
L71430 28400
L71470 28450
L71550 28470
L71590 28470
L71660 28450
L71690 28420
L71690 28260
L71590 28260
" />
<path d="M71900 28470
L71900 27970
L72190 28470
L72190 27970
" />
<path d="M72430 28470
L72430 27970
L72550 27970
L72620 28000
L72660 28040
L72690 28090
L72710 28190
L72710 28260
L72690 28350
L72660 28400
L72620 28450
L72550 28470
L72430 28470
" />
</g>
<g style="fill:#008484; fill-opacity:0.0; 
stroke:#008484; stroke-width:0; stroke-opacity:1; 
stroke-linecap:round; stroke-linejoin:round;">
</g>
<g style="fill:#840000; fill-opacity:0.0; 
stroke:#840000; stroke-width:0; stroke-opacity:1; 
stroke-linecap:round; stroke-linejoin:round;">
</g>
<g style="fill:#840000; fill-opacity:0.0; 
stroke:#840000; stroke-width:60; stroke-opacity:1; 
stroke-linecap:round; stroke-linejoin:round;">
<circle cx="66250" cy="29000" r="250" /> 
<polyline fill="none;"
points="67000,29000
66500,29000
" /> 
</g>
<g style="fill:#008484; fill-opacity:0.0; 
stroke:#008484; stroke-width:60; stroke-opacity:1; 
stroke-linecap:round; stroke-linejoin:round;">
<path d="M64310 28510
L64480 29010
L64640 28510
" />
<path d="M64810 29010
L64810 28510
L64930 28510
L65000 28540
L65050 28580
L65070 28630
L65090 28730
L65090 28800
L65070 28890
L65050 28940
L65000 28990
L64930 29010
L64810 29010
" />
<path d="M65310 29010
L65310 28510
L65430 28510
L65500 28540
L65550 28580
L65570 28630
L65590 28730
L65590 28800
L65570 28890
L65550 28940
L65500 28990
L65430 29010
L65310 29010
" />
</g>
<g style="fill:#008400; fill-opacity:0.0; 
stroke:#008400; stroke-width:60; stroke-opacity:1; 
stroke-linecap:round; stroke-linejoin:round;">
<path d="M73500 30000
L67500 30000
" />
<path d="M67500 30000
L67500 36500
" />
<path d="M40500 38000
L40500 30000
" />
<path d="M40500 30000
L67500 30000
" />
</g>
<g style="fill:#008400; fill-opacity:0.0; 
stroke:#008400; stroke-width:0; stroke-opacity:1; 
stroke-linecap:round; stroke-linejoin:round;">
</g>
<g style="fill:#008400; fill-opacity:1.0; 
stroke:#008400; stroke-width:100; stroke-opacity:1; 
stroke-linecap:round; stroke-linejoin:round;">
<circle cx="67500" cy="30000" r="200" /> 
</g>
<g style="fill:#008400; fill-opacity:1.0; 
stroke:#008400; stroke-width:60; stroke-opacity:1; 
stroke-linecap:round; stroke-linejoin:round;">
</g>
<g style="fill:#008400; fill-opacity:0.0; 
stroke:#008400; stroke-width:60; stroke-opacity:1; 
stroke-linecap:round; stroke-linejoin:round;">
<path d="M73500 31000
L37500 31000
" />
<path d="M37500 31000
L37500 41000
" />
<path d="M37500 41000
L38500 41000
" />
<path d="M69500 39500
L70500 39500
" />
<path d="M70500 39500
L70500 32000
" />
<path d="M70500 32000
L73500 32000
" />
</g>
<g style="fill:#008400; fill-opacity:0.0; 
stroke:#008400; stroke-width:0; stroke-opacity:1; 
stroke-linecap:round; stroke-linejoin:round;">
</g>
<g style="fill:#840000; fill-opacity:0.0; 
stroke:#840000; stroke-width:0; stroke-opacity:1; 
stroke-linecap:round; stroke-linejoin:round;">
</g>
<g style="fill:#840000; fill-opacity:0.0; 
stroke:#840000; stroke-width:60; stroke-opacity:1; 
stroke-linecap:round; stroke-linejoin:round;">
<polyline fill="none;"
points="72000,25500
72000,25000
71600,24750
72000,24500
72400,24750
72000,25000
" /> 
<path d="M72000 25500
L72000 25500
" />
</g>
<g style="fill:#008484; fill-opacity:0.0; 
stroke:#008484; stroke-width:60; stroke-opacity:1; 
stroke-linecap:round; stroke-linejoin:round;">
<path d="M70260 24000
L70260 23500
L70450 23500
L70500 23530
L70520 23550
L70540 23600
L70540 23670
L70520 23720
L70500 23740
L70450 23760
L70260 23760
" />
<path d="M70710 23500
L70830 24000
L70920 23640
L71020 24000
L71140 23500
" />
<path d="M71610 24000
L71450 23760
" />
<path d="M71330 24000
L71330 23500
L71520 23500
L71570 23530
L71590 23550
L71610 23600
L71610 23670
L71590 23720
L71570 23740
L71520 23760
L71330 23760
" />
<path d="M71710 24050
L72090 24050
" />
<path d="M72380 23740
L72210 23740
" />
<path d="M72210 24000
L72210 23500
L72450 23500
" />
<path d="M72880 24000
L72640 24000
L72640 23500
" />
<path d="M73020 23860
L73260 23860
" />
<path d="M72970 24000
L73140 23500
L73300 24000
" />
<path d="M73730 23530
L73690 23500
L73610 23500
L73540 23530
L73500 23570
L73470 23620
L73450 23720
L73450 23790
L73470 23880
L73500 23930
L73540 23980
L73610 24000
L73660 24000
L73730 23980
L73760 23950
L73760 23790
L73660 23790
" />
</g>
<g style="fill:#008484; fill-opacity:0.0; 
stroke:#008484; stroke-width:0; stroke-opacity:1; 
stroke-linecap:round; stroke-linejoin:round;">
</g>
<g style="fill:#840000; fill-opacity:0.0; 
stroke:#840000; stroke-width:0; stroke-opacity:1; 
stroke-linecap:round; stroke-linejoin:round;">
</g>
<g style="fill:#840000; fill-opacity:0.0; 
stroke:#840000; stroke-width:60; stroke-opacity:1; 
stroke-linecap:round; stroke-linejoin:round;">
<polyline fill="none;"
points="68000,28500
68000,28000
67600,27750
68000,27500
68400,27750
68000,28000
" /> 
<path d="M68000 28500
L68000 28500
" />
</g>
<g style="fill:#008484; fill-opacity:0.0; 
stroke:#008484; stroke-width:60; stroke-opacity:1; 
stroke-linecap:round; stroke-linejoin:round;">
<path d="M66260 27000
L66260 26500
L66450 26500
L66500 26530
L66520 26550
L66540 26600
L66540 26670
L66520 26720
L66500 26740
L66450 26760
L66260 26760
" />
<path d="M66710 26500
L66830 27000
L66920 26640
L67020 27000
L67140 26500
" />
<path d="M67610 27000
L67450 26760
" />
<path d="M67330 27000
L67330 26500
L67520 26500
L67570 26530
L67590 26550
L67610 26600
L67610 26670
L67590 26720
L67570 26740
L67520 26760
L67330 26760
" />
<path d="M67710 27050
L68090 27050
" />
<path d="M68380 26740
L68210 26740
" />
<path d="M68210 27000
L68210 26500
L68450 26500
" />
<path d="M68880 27000
L68640 27000
L68640 26500
" />
<path d="M69020 26860
L69260 26860
" />
<path d="M68970 27000
L69140 26500
L69300 27000
" />
<path d="M69730 26530
L69690 26500
L69610 26500
L69540 26530
L69500 26570
L69470 26620
L69450 26720
L69450 26790
L69470 26880
L69500 26930
L69540 26980
L69610 27000
L69660 27000
L69730 26980
L69760 26950
L69760 26790
L69660 26790
" />
</g>
<g style="fill:#008400; fill-opacity:0.0; 
stroke:#008400; stroke-width:60; stroke-opacity:1; 
stroke-linecap:round; stroke-linejoin:round;">
<path d="M72000 26500
L72000 26000
" />
<path d="M72000 26000
L73500 26000
" />
<path d="M73500 26000
L73500 28000
" />
</g>
<g style="fill:#008400; fill-opacity:0.0; 
stroke:#008400; stroke-width:0; stroke-opacity:1; 
stroke-linecap:round; stroke-linejoin:round;">
</g>
<g style="fill:#008400; fill-opacity:1.0; 
stroke:#008400; stroke-width:100; stroke-opacity:1; 
stroke-linecap:round; stroke-linejoin:round;">
<circle cx="72000" cy="26000" r="200" /> 
</g>
<g style="fill:#008400; fill-opacity:1.0; 
stroke:#008400; stroke-width:60; stroke-opacity:1; 
stroke-linecap:round; stroke-linejoin:round;">
</g>
<g style="fill:#008400; fill-opacity:0.0; 
stroke:#008400; stroke-width:60; stroke-opacity:1; 
stroke-linecap:round; stroke-linejoin:round;">
<path d="M72000 26000
L72000 25500
" />
<path d="M67000 29000
L68000 29000
" />
<path d="M68000 28500
L68000 29000
" />
</g>
<g style="fill:#008400; fill-opacity:0.0; 
stroke:#008400; stroke-width:0; stroke-opacity:1; 
stroke-linecap:round; stroke-linejoin:round;">
</g>
<g style="fill:#008400; fill-opacity:1.0; 
stroke:#008400; stroke-width:100; stroke-opacity:1; 
stroke-linecap:round; stroke-linejoin:round;">
<circle cx="68000" cy="29000" r="200" /> 
</g>
<g style="fill:#008400; fill-opacity:1.0; 
stroke:#008400; stroke-width:60; stroke-opacity:1; 
stroke-linecap:round; stroke-linejoin:round;">
</g>
<g style="fill:#008400; fill-opacity:0.0; 
stroke:#008400; stroke-width:60; stroke-opacity:1; 
stroke-linecap:round; stroke-linejoin:round;">
<path d="M68000 29000
L73500 29000
" />
</g> 
</svg>
