G04 #@! TF.GenerationSoftware,KiCad,Pcbnew,5.0.2-bee76a0~70~ubuntu16.04.1*
G04 #@! TF.CreationDate,2019-10-02T00:23:43-07:00*
G04 #@! TF.ProjectId,sram-register-file,7372616d-2d72-4656-9769-737465722d66,rev?*
G04 #@! TF.SameCoordinates,Original*
G04 #@! TF.FileFunction,Soldermask,Top*
G04 #@! TF.FilePolarity,Negative*
%FSLAX46Y46*%
G04 Gerber Fmt 4.6, Leading zero omitted, Abs format (unit mm)*
G04 Created by KiCad (PCBNEW 5.0.2-bee76a0~70~ubuntu16.04.1) date Wed 02 Oct 2019 12:23:43 AM PDT*
%MOMM*%
%LPD*%
G01*
G04 APERTURE LIST*
%ADD10C,0.100000*%
G04 APERTURE END LIST*
D10*
G36*
X156320443Y-93085519D02*
X156386627Y-93092037D01*
X156499853Y-93126384D01*
X156556467Y-93143557D01*
X156695087Y-93217652D01*
X156712991Y-93227222D01*
X156748729Y-93256552D01*
X156850186Y-93339814D01*
X156933448Y-93441271D01*
X156962778Y-93477009D01*
X156962779Y-93477011D01*
X157046443Y-93633533D01*
X157046443Y-93633534D01*
X157097963Y-93803373D01*
X157115359Y-93980000D01*
X157097963Y-94156627D01*
X157063616Y-94269853D01*
X157046443Y-94326467D01*
X156972348Y-94465087D01*
X156962778Y-94482991D01*
X156933448Y-94518729D01*
X156850186Y-94620186D01*
X156748729Y-94703448D01*
X156712991Y-94732778D01*
X156712989Y-94732779D01*
X156556467Y-94816443D01*
X156499853Y-94833616D01*
X156386627Y-94867963D01*
X156320443Y-94874481D01*
X156254260Y-94881000D01*
X156165740Y-94881000D01*
X156099557Y-94874481D01*
X156033373Y-94867963D01*
X155920147Y-94833616D01*
X155863533Y-94816443D01*
X155707011Y-94732779D01*
X155707009Y-94732778D01*
X155671271Y-94703448D01*
X155569814Y-94620186D01*
X155486552Y-94518729D01*
X155457222Y-94482991D01*
X155447652Y-94465087D01*
X155373557Y-94326467D01*
X155356384Y-94269853D01*
X155322037Y-94156627D01*
X155304641Y-93980000D01*
X155322037Y-93803373D01*
X155373557Y-93633534D01*
X155373557Y-93633533D01*
X155457221Y-93477011D01*
X155457222Y-93477009D01*
X155486552Y-93441271D01*
X155569814Y-93339814D01*
X155671271Y-93256552D01*
X155707009Y-93227222D01*
X155724913Y-93217652D01*
X155863533Y-93143557D01*
X155920147Y-93126384D01*
X156033373Y-93092037D01*
X156099557Y-93085519D01*
X156165740Y-93079000D01*
X156254260Y-93079000D01*
X156320443Y-93085519D01*
X156320443Y-93085519D01*
G37*
G36*
X151240443Y-93085519D02*
X151306627Y-93092037D01*
X151419853Y-93126384D01*
X151476467Y-93143557D01*
X151615087Y-93217652D01*
X151632991Y-93227222D01*
X151668729Y-93256552D01*
X151770186Y-93339814D01*
X151853448Y-93441271D01*
X151882778Y-93477009D01*
X151882779Y-93477011D01*
X151966443Y-93633533D01*
X151966443Y-93633534D01*
X152017963Y-93803373D01*
X152035359Y-93980000D01*
X152017963Y-94156627D01*
X151983616Y-94269853D01*
X151966443Y-94326467D01*
X151892348Y-94465087D01*
X151882778Y-94482991D01*
X151853448Y-94518729D01*
X151770186Y-94620186D01*
X151668729Y-94703448D01*
X151632991Y-94732778D01*
X151632989Y-94732779D01*
X151476467Y-94816443D01*
X151419853Y-94833616D01*
X151306627Y-94867963D01*
X151240443Y-94874481D01*
X151174260Y-94881000D01*
X151085740Y-94881000D01*
X151019557Y-94874481D01*
X150953373Y-94867963D01*
X150840147Y-94833616D01*
X150783533Y-94816443D01*
X150627011Y-94732779D01*
X150627009Y-94732778D01*
X150591271Y-94703448D01*
X150489814Y-94620186D01*
X150406552Y-94518729D01*
X150377222Y-94482991D01*
X150367652Y-94465087D01*
X150293557Y-94326467D01*
X150276384Y-94269853D01*
X150242037Y-94156627D01*
X150224641Y-93980000D01*
X150242037Y-93803373D01*
X150293557Y-93633534D01*
X150293557Y-93633533D01*
X150377221Y-93477011D01*
X150377222Y-93477009D01*
X150406552Y-93441271D01*
X150489814Y-93339814D01*
X150591271Y-93256552D01*
X150627009Y-93227222D01*
X150644913Y-93217652D01*
X150783533Y-93143557D01*
X150840147Y-93126384D01*
X150953373Y-93092037D01*
X151019557Y-93085519D01*
X151085740Y-93079000D01*
X151174260Y-93079000D01*
X151240443Y-93085519D01*
X151240443Y-93085519D01*
G37*
G36*
X148700443Y-93085519D02*
X148766627Y-93092037D01*
X148879853Y-93126384D01*
X148936467Y-93143557D01*
X149075087Y-93217652D01*
X149092991Y-93227222D01*
X149128729Y-93256552D01*
X149230186Y-93339814D01*
X149313448Y-93441271D01*
X149342778Y-93477009D01*
X149342779Y-93477011D01*
X149426443Y-93633533D01*
X149426443Y-93633534D01*
X149477963Y-93803373D01*
X149495359Y-93980000D01*
X149477963Y-94156627D01*
X149443616Y-94269853D01*
X149426443Y-94326467D01*
X149352348Y-94465087D01*
X149342778Y-94482991D01*
X149313448Y-94518729D01*
X149230186Y-94620186D01*
X149128729Y-94703448D01*
X149092991Y-94732778D01*
X149092989Y-94732779D01*
X148936467Y-94816443D01*
X148879853Y-94833616D01*
X148766627Y-94867963D01*
X148700443Y-94874481D01*
X148634260Y-94881000D01*
X148545740Y-94881000D01*
X148479557Y-94874481D01*
X148413373Y-94867963D01*
X148300147Y-94833616D01*
X148243533Y-94816443D01*
X148087011Y-94732779D01*
X148087009Y-94732778D01*
X148051271Y-94703448D01*
X147949814Y-94620186D01*
X147866552Y-94518729D01*
X147837222Y-94482991D01*
X147827652Y-94465087D01*
X147753557Y-94326467D01*
X147736384Y-94269853D01*
X147702037Y-94156627D01*
X147684641Y-93980000D01*
X147702037Y-93803373D01*
X147753557Y-93633534D01*
X147753557Y-93633533D01*
X147837221Y-93477011D01*
X147837222Y-93477009D01*
X147866552Y-93441271D01*
X147949814Y-93339814D01*
X148051271Y-93256552D01*
X148087009Y-93227222D01*
X148104913Y-93217652D01*
X148243533Y-93143557D01*
X148300147Y-93126384D01*
X148413373Y-93092037D01*
X148479557Y-93085519D01*
X148545740Y-93079000D01*
X148634260Y-93079000D01*
X148700443Y-93085519D01*
X148700443Y-93085519D01*
G37*
G36*
X146951000Y-94881000D02*
X145149000Y-94881000D01*
X145149000Y-93079000D01*
X146951000Y-93079000D01*
X146951000Y-94881000D01*
X146951000Y-94881000D01*
G37*
G36*
X153780443Y-93085519D02*
X153846627Y-93092037D01*
X153959853Y-93126384D01*
X154016467Y-93143557D01*
X154155087Y-93217652D01*
X154172991Y-93227222D01*
X154208729Y-93256552D01*
X154310186Y-93339814D01*
X154393448Y-93441271D01*
X154422778Y-93477009D01*
X154422779Y-93477011D01*
X154506443Y-93633533D01*
X154506443Y-93633534D01*
X154557963Y-93803373D01*
X154575359Y-93980000D01*
X154557963Y-94156627D01*
X154523616Y-94269853D01*
X154506443Y-94326467D01*
X154432348Y-94465087D01*
X154422778Y-94482991D01*
X154393448Y-94518729D01*
X154310186Y-94620186D01*
X154208729Y-94703448D01*
X154172991Y-94732778D01*
X154172989Y-94732779D01*
X154016467Y-94816443D01*
X153959853Y-94833616D01*
X153846627Y-94867963D01*
X153780443Y-94874481D01*
X153714260Y-94881000D01*
X153625740Y-94881000D01*
X153559557Y-94874481D01*
X153493373Y-94867963D01*
X153380147Y-94833616D01*
X153323533Y-94816443D01*
X153167011Y-94732779D01*
X153167009Y-94732778D01*
X153131271Y-94703448D01*
X153029814Y-94620186D01*
X152946552Y-94518729D01*
X152917222Y-94482991D01*
X152907652Y-94465087D01*
X152833557Y-94326467D01*
X152816384Y-94269853D01*
X152782037Y-94156627D01*
X152764641Y-93980000D01*
X152782037Y-93803373D01*
X152833557Y-93633534D01*
X152833557Y-93633533D01*
X152917221Y-93477011D01*
X152917222Y-93477009D01*
X152946552Y-93441271D01*
X153029814Y-93339814D01*
X153131271Y-93256552D01*
X153167009Y-93227222D01*
X153184913Y-93217652D01*
X153323533Y-93143557D01*
X153380147Y-93126384D01*
X153493373Y-93092037D01*
X153559557Y-93085519D01*
X153625740Y-93079000D01*
X153714260Y-93079000D01*
X153780443Y-93085519D01*
X153780443Y-93085519D01*
G37*
G36*
X147771000Y-91401000D02*
X146869000Y-91401000D01*
X146869000Y-89399000D01*
X147771000Y-89399000D01*
X147771000Y-91401000D01*
X147771000Y-91401000D01*
G37*
G36*
X156341000Y-91401000D02*
X155439000Y-91401000D01*
X155439000Y-89399000D01*
X156341000Y-89399000D01*
X156341000Y-91401000D01*
X156341000Y-91401000D01*
G37*
G36*
X154441000Y-91401000D02*
X153539000Y-91401000D01*
X153539000Y-89399000D01*
X154441000Y-89399000D01*
X154441000Y-91401000D01*
X154441000Y-91401000D01*
G37*
G36*
X148721000Y-88401000D02*
X147819000Y-88401000D01*
X147819000Y-86399000D01*
X148721000Y-86399000D01*
X148721000Y-88401000D01*
X148721000Y-88401000D01*
G37*
G36*
X146821000Y-88401000D02*
X145919000Y-88401000D01*
X145919000Y-86399000D01*
X146821000Y-86399000D01*
X146821000Y-88401000D01*
X146821000Y-88401000D01*
G37*
G36*
X155391000Y-88401000D02*
X154489000Y-88401000D01*
X154489000Y-86399000D01*
X155391000Y-86399000D01*
X155391000Y-88401000D01*
X155391000Y-88401000D01*
G37*
G36*
X160791000Y-87761000D02*
X158789000Y-87761000D01*
X158789000Y-86859000D01*
X160791000Y-86859000D01*
X160791000Y-87761000D01*
X160791000Y-87761000D01*
G37*
G36*
X140471000Y-87761000D02*
X138469000Y-87761000D01*
X138469000Y-86859000D01*
X140471000Y-86859000D01*
X140471000Y-87761000D01*
X140471000Y-87761000D01*
G37*
G36*
X143471000Y-86811000D02*
X141469000Y-86811000D01*
X141469000Y-85909000D01*
X143471000Y-85909000D01*
X143471000Y-86811000D01*
X143471000Y-86811000D01*
G37*
G36*
X163791000Y-86811000D02*
X161789000Y-86811000D01*
X161789000Y-85909000D01*
X163791000Y-85909000D01*
X163791000Y-86811000D01*
X163791000Y-86811000D01*
G37*
G36*
X140471000Y-85861000D02*
X138469000Y-85861000D01*
X138469000Y-84959000D01*
X140471000Y-84959000D01*
X140471000Y-85861000D01*
X140471000Y-85861000D01*
G37*
G36*
X160791000Y-85861000D02*
X158789000Y-85861000D01*
X158789000Y-84959000D01*
X160791000Y-84959000D01*
X160791000Y-85861000D01*
X160791000Y-85861000D01*
G37*
G36*
X147771000Y-85051000D02*
X146869000Y-85051000D01*
X146869000Y-83049000D01*
X147771000Y-83049000D01*
X147771000Y-85051000D01*
X147771000Y-85051000D01*
G37*
G36*
X156341000Y-85051000D02*
X155439000Y-85051000D01*
X155439000Y-83049000D01*
X156341000Y-83049000D01*
X156341000Y-85051000D01*
X156341000Y-85051000D01*
G37*
G36*
X154441000Y-85051000D02*
X153539000Y-85051000D01*
X153539000Y-83049000D01*
X154441000Y-83049000D01*
X154441000Y-85051000D01*
X154441000Y-85051000D01*
G37*
G36*
X146821000Y-82051000D02*
X145919000Y-82051000D01*
X145919000Y-80049000D01*
X146821000Y-80049000D01*
X146821000Y-82051000D01*
X146821000Y-82051000D01*
G37*
G36*
X148721000Y-82051000D02*
X147819000Y-82051000D01*
X147819000Y-80049000D01*
X148721000Y-80049000D01*
X148721000Y-82051000D01*
X148721000Y-82051000D01*
G37*
G36*
X155391000Y-82051000D02*
X154489000Y-82051000D01*
X154489000Y-80049000D01*
X155391000Y-80049000D01*
X155391000Y-82051000D01*
X155391000Y-82051000D01*
G37*
M02*
