G04 #@! TF.GenerationSoftware,KiCad,Pcbnew,5.0.2-bee76a0~70~ubuntu16.04.1*
G04 #@! TF.CreationDate,2019-10-02T00:23:43-07:00*
G04 #@! TF.ProjectId,sram-register-file,7372616d-2d72-4656-9769-737465722d66,rev?*
G04 #@! TF.SameCoordinates,Original*
G04 #@! TF.FileFunction,Legend,Bot*
G04 #@! TF.FilePolarity,Positive*
%FSLAX46Y46*%
G04 Gerber Fmt 4.6, Leading zero omitted, Abs format (unit mm)*
G04 Created by KiCad (PCBNEW 5.0.2-bee76a0~70~ubuntu16.04.1) date Wed 02 Oct 2019 12:23:43 AM PDT*
%MOMM*%
%LPD*%
G01*
G04 APERTURE LIST*
%ADD10C,0.127000*%
G04 APERTURE END LIST*
D10*
X164182878Y-79580619D02*
X163747450Y-79580619D01*
X163965164Y-80596619D02*
X163965164Y-79580619D01*
X163384592Y-80596619D02*
X163457164Y-80548238D01*
X163493450Y-80499857D01*
X163529735Y-80403095D01*
X163529735Y-80112809D01*
X163493450Y-80016047D01*
X163457164Y-79967666D01*
X163384592Y-79919285D01*
X163275735Y-79919285D01*
X163203164Y-79967666D01*
X163166878Y-80016047D01*
X163130592Y-80112809D01*
X163130592Y-80403095D01*
X163166878Y-80499857D01*
X163203164Y-80548238D01*
X163275735Y-80596619D01*
X163384592Y-80596619D01*
X162804021Y-80596619D02*
X162804021Y-79580619D01*
X162804021Y-79967666D02*
X162731450Y-79919285D01*
X162586307Y-79919285D01*
X162513735Y-79967666D01*
X162477450Y-80016047D01*
X162441164Y-80112809D01*
X162441164Y-80403095D01*
X162477450Y-80499857D01*
X162513735Y-80548238D01*
X162586307Y-80596619D01*
X162731450Y-80596619D01*
X162804021Y-80548238D01*
X162114592Y-80596619D02*
X162114592Y-79919285D01*
X162114592Y-79580619D02*
X162150878Y-79629000D01*
X162114592Y-79677380D01*
X162078307Y-79629000D01*
X162114592Y-79580619D01*
X162114592Y-79677380D01*
X161751735Y-79919285D02*
X161751735Y-80596619D01*
X161751735Y-80016047D02*
X161715450Y-79967666D01*
X161642878Y-79919285D01*
X161534021Y-79919285D01*
X161461450Y-79967666D01*
X161425164Y-80064428D01*
X161425164Y-80596619D01*
X160336592Y-80112809D02*
X160336592Y-80596619D01*
X160590592Y-79580619D02*
X160336592Y-80112809D01*
X160082592Y-79580619D01*
X159538307Y-80548238D02*
X159610878Y-80596619D01*
X159756021Y-80596619D01*
X159828592Y-80548238D01*
X159864878Y-80451476D01*
X159864878Y-80064428D01*
X159828592Y-79967666D01*
X159756021Y-79919285D01*
X159610878Y-79919285D01*
X159538307Y-79967666D01*
X159502021Y-80064428D01*
X159502021Y-80161190D01*
X159864878Y-80257952D01*
X159175450Y-80596619D02*
X159175450Y-79580619D01*
X158848878Y-80596619D02*
X158848878Y-80064428D01*
X158885164Y-79967666D01*
X158957735Y-79919285D01*
X159066592Y-79919285D01*
X159139164Y-79967666D01*
X159175450Y-80016047D01*
X158377164Y-80596619D02*
X158449735Y-80548238D01*
X158486021Y-80451476D01*
X158486021Y-79580619D01*
X157796592Y-80548238D02*
X157869164Y-80596619D01*
X158014307Y-80596619D01*
X158086878Y-80548238D01*
X158123164Y-80451476D01*
X158123164Y-80064428D01*
X158086878Y-79967666D01*
X158014307Y-79919285D01*
X157869164Y-79919285D01*
X157796592Y-79967666D01*
X157760307Y-80064428D01*
X157760307Y-80161190D01*
X158123164Y-80257952D01*
X164110307Y-82199238D02*
X164001450Y-82247619D01*
X163820021Y-82247619D01*
X163747450Y-82199238D01*
X163711164Y-82150857D01*
X163674878Y-82054095D01*
X163674878Y-81957333D01*
X163711164Y-81860571D01*
X163747450Y-81812190D01*
X163820021Y-81763809D01*
X163965164Y-81715428D01*
X164037735Y-81667047D01*
X164074021Y-81618666D01*
X164110307Y-81521904D01*
X164110307Y-81425142D01*
X164074021Y-81328380D01*
X164037735Y-81280000D01*
X163965164Y-81231619D01*
X163783735Y-81231619D01*
X163674878Y-81280000D01*
X162912878Y-82247619D02*
X163166878Y-81763809D01*
X163348307Y-82247619D02*
X163348307Y-81231619D01*
X163058021Y-81231619D01*
X162985450Y-81280000D01*
X162949164Y-81328380D01*
X162912878Y-81425142D01*
X162912878Y-81570285D01*
X162949164Y-81667047D01*
X162985450Y-81715428D01*
X163058021Y-81763809D01*
X163348307Y-81763809D01*
X162622592Y-81957333D02*
X162259735Y-81957333D01*
X162695164Y-82247619D02*
X162441164Y-81231619D01*
X162187164Y-82247619D01*
X161933164Y-82247619D02*
X161933164Y-81231619D01*
X161679164Y-81957333D01*
X161425164Y-81231619D01*
X161425164Y-82247619D01*
X160046307Y-82150857D02*
X160082592Y-82199238D01*
X160191450Y-82247619D01*
X160264021Y-82247619D01*
X160372878Y-82199238D01*
X160445450Y-82102476D01*
X160481735Y-82005714D01*
X160518021Y-81812190D01*
X160518021Y-81667047D01*
X160481735Y-81473523D01*
X160445450Y-81376761D01*
X160372878Y-81280000D01*
X160264021Y-81231619D01*
X160191450Y-81231619D01*
X160082592Y-81280000D01*
X160046307Y-81328380D01*
X159719735Y-82247619D02*
X159719735Y-81231619D01*
X159465735Y-81957333D01*
X159211735Y-81231619D01*
X159211735Y-82247619D01*
X158703735Y-81231619D02*
X158558592Y-81231619D01*
X158486021Y-81280000D01*
X158413450Y-81376761D01*
X158377164Y-81570285D01*
X158377164Y-81908952D01*
X158413450Y-82102476D01*
X158486021Y-82199238D01*
X158558592Y-82247619D01*
X158703735Y-82247619D01*
X158776307Y-82199238D01*
X158848878Y-82102476D01*
X158885164Y-81908952D01*
X158885164Y-81570285D01*
X158848878Y-81376761D01*
X158776307Y-81280000D01*
X158703735Y-81231619D01*
X158086878Y-82199238D02*
X157978021Y-82247619D01*
X157796592Y-82247619D01*
X157724021Y-82199238D01*
X157687735Y-82150857D01*
X157651450Y-82054095D01*
X157651450Y-81957333D01*
X157687735Y-81860571D01*
X157724021Y-81812190D01*
X157796592Y-81763809D01*
X157941735Y-81715428D01*
X158014307Y-81667047D01*
X158050592Y-81618666D01*
X158086878Y-81521904D01*
X158086878Y-81425142D01*
X158050592Y-81328380D01*
X158014307Y-81280000D01*
X157941735Y-81231619D01*
X157760307Y-81231619D01*
X157651450Y-81280000D01*
X164146592Y-83221285D02*
X163965164Y-83898619D01*
X163783735Y-83221285D01*
X163094307Y-83898619D02*
X163529735Y-83898619D01*
X163312021Y-83898619D02*
X163312021Y-82882619D01*
X163384592Y-83027761D01*
X163457164Y-83124523D01*
X163529735Y-83172904D01*
X157619095Y-90980260D02*
X156882495Y-90980260D01*
X157198180Y-91639571D02*
X157092952Y-91675857D01*
X157057876Y-91712142D01*
X157022800Y-91784714D01*
X157022800Y-91893571D01*
X157057876Y-91966142D01*
X157092952Y-92002428D01*
X157163104Y-92038714D01*
X157443714Y-92038714D01*
X157443714Y-91276714D01*
X157198180Y-91276714D01*
X157128028Y-91313000D01*
X157092952Y-91349285D01*
X157057876Y-91421857D01*
X157057876Y-91494428D01*
X157092952Y-91567000D01*
X157128028Y-91603285D01*
X157198180Y-91639571D01*
X157443714Y-91639571D01*
X156882495Y-90980260D02*
X156321276Y-90980260D01*
X156812342Y-91276714D02*
X156391428Y-91276714D01*
X156601885Y-92038714D02*
X156601885Y-91276714D01*
X154216704Y-91639571D02*
X154111476Y-91675857D01*
X154076400Y-91712142D01*
X154041323Y-91784714D01*
X154041323Y-91893571D01*
X154076400Y-91966142D01*
X154111476Y-92002428D01*
X154181628Y-92038714D01*
X154462238Y-92038714D01*
X154462238Y-91276714D01*
X154216704Y-91276714D01*
X154146552Y-91313000D01*
X154111476Y-91349285D01*
X154076400Y-91421857D01*
X154076400Y-91494428D01*
X154111476Y-91567000D01*
X154146552Y-91603285D01*
X154216704Y-91639571D01*
X154462238Y-91639571D01*
X153830866Y-91276714D02*
X153409952Y-91276714D01*
X153620409Y-92038714D02*
X153620409Y-91276714D01*
X152112133Y-91276714D02*
X151936752Y-92038714D01*
X151796447Y-91494428D01*
X151656142Y-92038714D01*
X151480761Y-91276714D01*
X151059847Y-91276714D02*
X150989695Y-91276714D01*
X150919542Y-91313000D01*
X150884466Y-91349285D01*
X150849390Y-91421857D01*
X150814314Y-91567000D01*
X150814314Y-91748428D01*
X150849390Y-91893571D01*
X150884466Y-91966142D01*
X150919542Y-92002428D01*
X150989695Y-92038714D01*
X151059847Y-92038714D01*
X151130000Y-92002428D01*
X151165076Y-91966142D01*
X151200152Y-91893571D01*
X151235228Y-91748428D01*
X151235228Y-91567000D01*
X151200152Y-91421857D01*
X151165076Y-91349285D01*
X151130000Y-91313000D01*
X151059847Y-91276714D01*
X149481419Y-91276714D02*
X149235885Y-92038714D01*
X148990352Y-91276714D01*
X148744819Y-92038714D02*
X148744819Y-91276714D01*
X148569438Y-91276714D01*
X148464209Y-91313000D01*
X148394057Y-91385571D01*
X148358980Y-91458142D01*
X148323904Y-91603285D01*
X148323904Y-91712142D01*
X148358980Y-91857285D01*
X148394057Y-91929857D01*
X148464209Y-92002428D01*
X148569438Y-92038714D01*
X148744819Y-92038714D01*
X148008219Y-92038714D02*
X148008219Y-91276714D01*
X147832838Y-91276714D01*
X147727609Y-91313000D01*
X147657457Y-91385571D01*
X147622380Y-91458142D01*
X147587304Y-91603285D01*
X147587304Y-91712142D01*
X147622380Y-91857285D01*
X147657457Y-91929857D01*
X147727609Y-92002428D01*
X147832838Y-92038714D01*
X148008219Y-92038714D01*
X146324561Y-91313000D02*
X146394714Y-91276714D01*
X146499942Y-91276714D01*
X146605171Y-91313000D01*
X146675323Y-91385571D01*
X146710400Y-91458142D01*
X146745476Y-91603285D01*
X146745476Y-91712142D01*
X146710400Y-91857285D01*
X146675323Y-91929857D01*
X146605171Y-92002428D01*
X146499942Y-92038714D01*
X146429790Y-92038714D01*
X146324561Y-92002428D01*
X146289485Y-91966142D01*
X146289485Y-91712142D01*
X146429790Y-91712142D01*
X145973800Y-92038714D02*
X145973800Y-91276714D01*
X145552885Y-92038714D01*
X145552885Y-91276714D01*
X145202123Y-92038714D02*
X145202123Y-91276714D01*
X145026742Y-91276714D01*
X144921514Y-91313000D01*
X144851361Y-91385571D01*
X144816285Y-91458142D01*
X144781209Y-91603285D01*
X144781209Y-91712142D01*
X144816285Y-91857285D01*
X144851361Y-91929857D01*
X144921514Y-92002428D01*
X145026742Y-92038714D01*
X145202123Y-92038714D01*
M02*
