G04 #@! TF.GenerationSoftware,KiCad,Pcbnew,5.0.2-bee76a0~70~ubuntu16.04.1*
G04 #@! TF.CreationDate,2019-10-02T00:23:43-07:00*
G04 #@! TF.ProjectId,sram-register-file,7372616d-2d72-4656-9769-737465722d66,rev?*
G04 #@! TF.SameCoordinates,Original*
G04 #@! TF.FileFunction,Legend,Top*
G04 #@! TF.FilePolarity,Positive*
%FSLAX46Y46*%
G04 Gerber Fmt 4.6, Leading zero omitted, Abs format (unit mm)*
G04 Created by KiCad (PCBNEW 5.0.2-bee76a0~70~ubuntu16.04.1) date Wed 02 Oct 2019 12:23:43 AM PDT*
%MOMM*%
%LPD*%
G01*
G04 APERTURE LIST*
%ADD10C,0.127000*%
%ADD11C,0.120000*%
%ADD12C,0.150000*%
G04 APERTURE END LIST*
D10*
X145202123Y-91313000D02*
X145131971Y-91276714D01*
X145026742Y-91276714D01*
X144921514Y-91313000D01*
X144851361Y-91385571D01*
X144816285Y-91458142D01*
X144781209Y-91603285D01*
X144781209Y-91712142D01*
X144816285Y-91857285D01*
X144851361Y-91929857D01*
X144921514Y-92002428D01*
X145026742Y-92038714D01*
X145096895Y-92038714D01*
X145202123Y-92002428D01*
X145237199Y-91966142D01*
X145237199Y-91712142D01*
X145096895Y-91712142D01*
X145552885Y-92038714D02*
X145552885Y-91276714D01*
X145973799Y-92038714D01*
X145973799Y-91276714D01*
X146324561Y-92038714D02*
X146324561Y-91276714D01*
X146499942Y-91276714D01*
X146605171Y-91313000D01*
X146675323Y-91385571D01*
X146710399Y-91458142D01*
X146745476Y-91603285D01*
X146745476Y-91712142D01*
X146710399Y-91857285D01*
X146675323Y-91929857D01*
X146605171Y-92002428D01*
X146499942Y-92038714D01*
X146324561Y-92038714D01*
X147517152Y-91276714D02*
X147762685Y-92038714D01*
X148008219Y-91276714D01*
X148253752Y-92038714D02*
X148253752Y-91276714D01*
X148429133Y-91276714D01*
X148534361Y-91313000D01*
X148604514Y-91385571D01*
X148639590Y-91458142D01*
X148674666Y-91603285D01*
X148674666Y-91712142D01*
X148639590Y-91857285D01*
X148604514Y-91929857D01*
X148534361Y-92002428D01*
X148429133Y-92038714D01*
X148253752Y-92038714D01*
X148990352Y-92038714D02*
X148990352Y-91276714D01*
X149165733Y-91276714D01*
X149270961Y-91313000D01*
X149341114Y-91385571D01*
X149376190Y-91458142D01*
X149411266Y-91603285D01*
X149411266Y-91712142D01*
X149376190Y-91857285D01*
X149341114Y-91929857D01*
X149270961Y-92002428D01*
X149165733Y-92038714D01*
X148990352Y-92038714D01*
X150218019Y-91276714D02*
X150393399Y-92038714D01*
X150533704Y-91494428D01*
X150674009Y-92038714D01*
X150849390Y-91276714D01*
X151270304Y-91276714D02*
X151340457Y-91276714D01*
X151410609Y-91313000D01*
X151445685Y-91349285D01*
X151480761Y-91421857D01*
X151515838Y-91567000D01*
X151515838Y-91748428D01*
X151480761Y-91893571D01*
X151445685Y-91966142D01*
X151410609Y-92002428D01*
X151340457Y-92038714D01*
X151270304Y-92038714D01*
X151200152Y-92002428D01*
X151165076Y-91966142D01*
X151129999Y-91893571D01*
X151094923Y-91748428D01*
X151094923Y-91567000D01*
X151129999Y-91421857D01*
X151165076Y-91349285D01*
X151200152Y-91313000D01*
X151270304Y-91276714D01*
X153760714Y-91639571D02*
X153865942Y-91675857D01*
X153901019Y-91712142D01*
X153936095Y-91784714D01*
X153936095Y-91893571D01*
X153901019Y-91966142D01*
X153865942Y-92002428D01*
X153795790Y-92038714D01*
X153515180Y-92038714D01*
X153515180Y-91276714D01*
X153760714Y-91276714D01*
X153830866Y-91313000D01*
X153865942Y-91349285D01*
X153901019Y-91421857D01*
X153901019Y-91494428D01*
X153865942Y-91567000D01*
X153830866Y-91603285D01*
X153760714Y-91639571D01*
X153515180Y-91639571D01*
X154146552Y-91276714D02*
X154567466Y-91276714D01*
X154357009Y-92038714D02*
X154357009Y-91276714D01*
X156321276Y-90980260D02*
X157057876Y-90980260D01*
X156742190Y-91639571D02*
X156847419Y-91675857D01*
X156882495Y-91712142D01*
X156917571Y-91784714D01*
X156917571Y-91893571D01*
X156882495Y-91966142D01*
X156847419Y-92002428D01*
X156777266Y-92038714D01*
X156496657Y-92038714D01*
X156496657Y-91276714D01*
X156742190Y-91276714D01*
X156812342Y-91313000D01*
X156847419Y-91349285D01*
X156882495Y-91421857D01*
X156882495Y-91494428D01*
X156847419Y-91567000D01*
X156812342Y-91603285D01*
X156742190Y-91639571D01*
X156496657Y-91639571D01*
X157057876Y-90980260D02*
X157619095Y-90980260D01*
X157128028Y-91276714D02*
X157548942Y-91276714D01*
X157338485Y-92038714D02*
X157338485Y-91276714D01*
D11*
G04 #@! TO.C,J1*
X157540000Y-95310000D02*
X157540000Y-92650000D01*
X147320000Y-95310000D02*
X157540000Y-95310000D01*
X147320000Y-92650000D02*
X157540000Y-92650000D01*
X147320000Y-95310000D02*
X147320000Y-92650000D01*
X146050000Y-95310000D02*
X144720000Y-95310000D01*
X144720000Y-95310000D02*
X144720000Y-93980000D01*
G04 #@! TO.C,Q1*
X141730000Y-87940000D02*
X140270000Y-87940000D01*
X141730000Y-84780000D02*
X138570000Y-84780000D01*
X141730000Y-84780000D02*
X141730000Y-85710000D01*
X141730000Y-87940000D02*
X141730000Y-87010000D01*
G04 #@! TO.C,Q2*
X145740000Y-83310000D02*
X145740000Y-81850000D01*
X148900000Y-83310000D02*
X148900000Y-80150000D01*
X148900000Y-83310000D02*
X147970000Y-83310000D01*
X145740000Y-83310000D02*
X146670000Y-83310000D01*
G04 #@! TO.C,Q3*
X145740000Y-89660000D02*
X146670000Y-89660000D01*
X148900000Y-89660000D02*
X147970000Y-89660000D01*
X148900000Y-89660000D02*
X148900000Y-86500000D01*
X145740000Y-89660000D02*
X145740000Y-88200000D01*
G04 #@! TO.C,Q4*
X156520000Y-81790000D02*
X156520000Y-83250000D01*
X153360000Y-81790000D02*
X153360000Y-84950000D01*
X153360000Y-81790000D02*
X154290000Y-81790000D01*
X156520000Y-81790000D02*
X155590000Y-81790000D01*
G04 #@! TO.C,Q5*
X156520000Y-88140000D02*
X155590000Y-88140000D01*
X153360000Y-88140000D02*
X154290000Y-88140000D01*
X153360000Y-88140000D02*
X153360000Y-91300000D01*
X156520000Y-88140000D02*
X156520000Y-89600000D01*
G04 #@! TO.C,Q6*
X162050000Y-87940000D02*
X162050000Y-87010000D01*
X162050000Y-84780000D02*
X162050000Y-85710000D01*
X162050000Y-84780000D02*
X158890000Y-84780000D01*
X162050000Y-87940000D02*
X160590000Y-87940000D01*
G04 #@! TO.C,J1*
D12*
X143172380Y-94313333D02*
X143886666Y-94313333D01*
X144029523Y-94360952D01*
X144124761Y-94456190D01*
X144172380Y-94599047D01*
X144172380Y-94694285D01*
X144172380Y-93313333D02*
X144172380Y-93884761D01*
X144172380Y-93599047D02*
X143172380Y-93599047D01*
X143315238Y-93694285D01*
X143410476Y-93789523D01*
X143458095Y-93884761D01*
G04 #@! TO.C,Q1*
X140874761Y-84407619D02*
X140779523Y-84360000D01*
X140684285Y-84264761D01*
X140541428Y-84121904D01*
X140446190Y-84074285D01*
X140350952Y-84074285D01*
X140398571Y-84312380D02*
X140303333Y-84264761D01*
X140208095Y-84169523D01*
X140160476Y-83979047D01*
X140160476Y-83645714D01*
X140208095Y-83455238D01*
X140303333Y-83360000D01*
X140398571Y-83312380D01*
X140589047Y-83312380D01*
X140684285Y-83360000D01*
X140779523Y-83455238D01*
X140827142Y-83645714D01*
X140827142Y-83979047D01*
X140779523Y-84169523D01*
X140684285Y-84264761D01*
X140589047Y-84312380D01*
X140398571Y-84312380D01*
X141779523Y-84312380D02*
X141208095Y-84312380D01*
X141493809Y-84312380D02*
X141493809Y-83312380D01*
X141398571Y-83455238D01*
X141303333Y-83550476D01*
X141208095Y-83598095D01*
G04 #@! TO.C,Q2*
X150367619Y-82645238D02*
X150320000Y-82740476D01*
X150224761Y-82835714D01*
X150081904Y-82978571D01*
X150034285Y-83073809D01*
X150034285Y-83169047D01*
X150272380Y-83121428D02*
X150224761Y-83216666D01*
X150129523Y-83311904D01*
X149939047Y-83359523D01*
X149605714Y-83359523D01*
X149415238Y-83311904D01*
X149320000Y-83216666D01*
X149272380Y-83121428D01*
X149272380Y-82930952D01*
X149320000Y-82835714D01*
X149415238Y-82740476D01*
X149605714Y-82692857D01*
X149939047Y-82692857D01*
X150129523Y-82740476D01*
X150224761Y-82835714D01*
X150272380Y-82930952D01*
X150272380Y-83121428D01*
X149367619Y-82311904D02*
X149320000Y-82264285D01*
X149272380Y-82169047D01*
X149272380Y-81930952D01*
X149320000Y-81835714D01*
X149367619Y-81788095D01*
X149462857Y-81740476D01*
X149558095Y-81740476D01*
X149700952Y-81788095D01*
X150272380Y-82359523D01*
X150272380Y-81740476D01*
G04 #@! TO.C,Q3*
X150367619Y-88995238D02*
X150320000Y-89090476D01*
X150224761Y-89185714D01*
X150081904Y-89328571D01*
X150034285Y-89423809D01*
X150034285Y-89519047D01*
X150272380Y-89471428D02*
X150224761Y-89566666D01*
X150129523Y-89661904D01*
X149939047Y-89709523D01*
X149605714Y-89709523D01*
X149415238Y-89661904D01*
X149320000Y-89566666D01*
X149272380Y-89471428D01*
X149272380Y-89280952D01*
X149320000Y-89185714D01*
X149415238Y-89090476D01*
X149605714Y-89042857D01*
X149939047Y-89042857D01*
X150129523Y-89090476D01*
X150224761Y-89185714D01*
X150272380Y-89280952D01*
X150272380Y-89471428D01*
X149272380Y-88709523D02*
X149272380Y-88090476D01*
X149653333Y-88423809D01*
X149653333Y-88280952D01*
X149700952Y-88185714D01*
X149748571Y-88138095D01*
X149843809Y-88090476D01*
X150081904Y-88090476D01*
X150177142Y-88138095D01*
X150224761Y-88185714D01*
X150272380Y-88280952D01*
X150272380Y-88566666D01*
X150224761Y-88661904D01*
X150177142Y-88709523D01*
G04 #@! TO.C,Q4*
X152987619Y-82645238D02*
X152940000Y-82740476D01*
X152844761Y-82835714D01*
X152701904Y-82978571D01*
X152654285Y-83073809D01*
X152654285Y-83169047D01*
X152892380Y-83121428D02*
X152844761Y-83216666D01*
X152749523Y-83311904D01*
X152559047Y-83359523D01*
X152225714Y-83359523D01*
X152035238Y-83311904D01*
X151940000Y-83216666D01*
X151892380Y-83121428D01*
X151892380Y-82930952D01*
X151940000Y-82835714D01*
X152035238Y-82740476D01*
X152225714Y-82692857D01*
X152559047Y-82692857D01*
X152749523Y-82740476D01*
X152844761Y-82835714D01*
X152892380Y-82930952D01*
X152892380Y-83121428D01*
X152225714Y-81835714D02*
X152892380Y-81835714D01*
X151844761Y-82073809D02*
X152559047Y-82311904D01*
X152559047Y-81692857D01*
G04 #@! TO.C,Q5*
X152987619Y-88995238D02*
X152940000Y-89090476D01*
X152844761Y-89185714D01*
X152701904Y-89328571D01*
X152654285Y-89423809D01*
X152654285Y-89519047D01*
X152892380Y-89471428D02*
X152844761Y-89566666D01*
X152749523Y-89661904D01*
X152559047Y-89709523D01*
X152225714Y-89709523D01*
X152035238Y-89661904D01*
X151940000Y-89566666D01*
X151892380Y-89471428D01*
X151892380Y-89280952D01*
X151940000Y-89185714D01*
X152035238Y-89090476D01*
X152225714Y-89042857D01*
X152559047Y-89042857D01*
X152749523Y-89090476D01*
X152844761Y-89185714D01*
X152892380Y-89280952D01*
X152892380Y-89471428D01*
X151892380Y-88138095D02*
X151892380Y-88614285D01*
X152368571Y-88661904D01*
X152320952Y-88614285D01*
X152273333Y-88519047D01*
X152273333Y-88280952D01*
X152320952Y-88185714D01*
X152368571Y-88138095D01*
X152463809Y-88090476D01*
X152701904Y-88090476D01*
X152797142Y-88138095D01*
X152844761Y-88185714D01*
X152892380Y-88280952D01*
X152892380Y-88519047D01*
X152844761Y-88614285D01*
X152797142Y-88661904D01*
G04 #@! TO.C,Q6*
X161194761Y-84407619D02*
X161099523Y-84360000D01*
X161004285Y-84264761D01*
X160861428Y-84121904D01*
X160766190Y-84074285D01*
X160670952Y-84074285D01*
X160718571Y-84312380D02*
X160623333Y-84264761D01*
X160528095Y-84169523D01*
X160480476Y-83979047D01*
X160480476Y-83645714D01*
X160528095Y-83455238D01*
X160623333Y-83360000D01*
X160718571Y-83312380D01*
X160909047Y-83312380D01*
X161004285Y-83360000D01*
X161099523Y-83455238D01*
X161147142Y-83645714D01*
X161147142Y-83979047D01*
X161099523Y-84169523D01*
X161004285Y-84264761D01*
X160909047Y-84312380D01*
X160718571Y-84312380D01*
X162004285Y-83312380D02*
X161813809Y-83312380D01*
X161718571Y-83360000D01*
X161670952Y-83407619D01*
X161575714Y-83550476D01*
X161528095Y-83740952D01*
X161528095Y-84121904D01*
X161575714Y-84217142D01*
X161623333Y-84264761D01*
X161718571Y-84312380D01*
X161909047Y-84312380D01*
X162004285Y-84264761D01*
X162051904Y-84217142D01*
X162099523Y-84121904D01*
X162099523Y-83883809D01*
X162051904Y-83788571D01*
X162004285Y-83740952D01*
X161909047Y-83693333D01*
X161718571Y-83693333D01*
X161623333Y-83740952D01*
X161575714Y-83788571D01*
X161528095Y-83883809D01*
G04 #@! TD*
M02*
