G04 #@! TF.GenerationSoftware,KiCad,Pcbnew,5.0.2-bee76a0~70~ubuntu16.04.1*
G04 #@! TF.CreationDate,2019-10-02T00:23:43-07:00*
G04 #@! TF.ProjectId,sram-register-file,7372616d-2d72-4656-9769-737465722d66,rev?*
G04 #@! TF.SameCoordinates,Original*
G04 #@! TF.FileFunction,Copper,L1,Top*
G04 #@! TF.FilePolarity,Positive*
%FSLAX46Y46*%
G04 Gerber Fmt 4.6, Leading zero omitted, Abs format (unit mm)*
G04 Created by KiCad (PCBNEW 5.0.2-bee76a0~70~ubuntu16.04.1) date Wed 02 Oct 2019 12:23:43 AM PDT*
%MOMM*%
%LPD*%
G01*
G04 APERTURE LIST*
G04 #@! TA.AperFunction,ComponentPad*
%ADD10R,1.700000X1.700000*%
G04 #@! TD*
G04 #@! TA.AperFunction,ComponentPad*
%ADD11O,1.700000X1.700000*%
G04 #@! TD*
G04 #@! TA.AperFunction,SMDPad,CuDef*
%ADD12R,1.900000X0.800000*%
G04 #@! TD*
G04 #@! TA.AperFunction,SMDPad,CuDef*
%ADD13R,0.800000X1.900000*%
G04 #@! TD*
G04 #@! TA.AperFunction,ViaPad*
%ADD14C,0.800000*%
G04 #@! TD*
G04 #@! TA.AperFunction,Conductor*
%ADD15C,0.250000*%
G04 #@! TD*
G04 APERTURE END LIST*
D10*
G04 #@! TO.P,J1,1*
G04 #@! TO.N,GND*
X146050000Y-93980000D03*
D11*
G04 #@! TO.P,J1,2*
G04 #@! TO.N,VDD*
X148590000Y-93980000D03*
G04 #@! TO.P,J1,3*
G04 #@! TO.N,Net-(J1-Pad3)*
X151130000Y-93980000D03*
G04 #@! TO.P,J1,4*
G04 #@! TO.N,Net-(J1-Pad4)*
X153670000Y-93980000D03*
G04 #@! TO.P,J1,5*
G04 #@! TO.N,Net-(J1-Pad5)*
X156210000Y-93980000D03*
G04 #@! TD*
D12*
G04 #@! TO.P,Q1,3*
G04 #@! TO.N,Net-(Q1-Pad3)*
X142470000Y-86360000D03*
G04 #@! TO.P,Q1,2*
G04 #@! TO.N,Net-(J1-Pad4)*
X139470000Y-87310000D03*
G04 #@! TO.P,Q1,1*
G04 #@! TO.N,Net-(J1-Pad3)*
X139470000Y-85410000D03*
G04 #@! TD*
D13*
G04 #@! TO.P,Q2,3*
G04 #@! TO.N,Net-(Q1-Pad3)*
X147320000Y-84050000D03*
G04 #@! TO.P,Q2,2*
G04 #@! TO.N,VDD*
X146370000Y-81050000D03*
G04 #@! TO.P,Q2,1*
G04 #@! TO.N,Net-(Q2-Pad1)*
X148270000Y-81050000D03*
G04 #@! TD*
G04 #@! TO.P,Q3,1*
G04 #@! TO.N,Net-(Q2-Pad1)*
X148270000Y-87400000D03*
G04 #@! TO.P,Q3,2*
G04 #@! TO.N,Net-(Q1-Pad3)*
X146370000Y-87400000D03*
G04 #@! TO.P,Q3,3*
G04 #@! TO.N,GND*
X147320000Y-90400000D03*
G04 #@! TD*
G04 #@! TO.P,Q4,3*
G04 #@! TO.N,VDD*
X154940000Y-81050000D03*
G04 #@! TO.P,Q4,2*
G04 #@! TO.N,Net-(Q2-Pad1)*
X155890000Y-84050000D03*
G04 #@! TO.P,Q4,1*
G04 #@! TO.N,Net-(Q1-Pad3)*
X153990000Y-84050000D03*
G04 #@! TD*
G04 #@! TO.P,Q5,1*
G04 #@! TO.N,Net-(Q1-Pad3)*
X153990000Y-90400000D03*
G04 #@! TO.P,Q5,2*
G04 #@! TO.N,GND*
X155890000Y-90400000D03*
G04 #@! TO.P,Q5,3*
G04 #@! TO.N,Net-(Q2-Pad1)*
X154940000Y-87400000D03*
G04 #@! TD*
D12*
G04 #@! TO.P,Q6,1*
G04 #@! TO.N,Net-(J1-Pad3)*
X159790000Y-85410000D03*
G04 #@! TO.P,Q6,2*
G04 #@! TO.N,Net-(Q2-Pad1)*
X159790000Y-87310000D03*
G04 #@! TO.P,Q6,3*
G04 #@! TO.N,Net-(J1-Pad5)*
X162790000Y-86360000D03*
G04 #@! TD*
D14*
G04 #@! TO.N,VDD*
X151130000Y-80264000D03*
G04 #@! TO.N,GND*
X146050000Y-90424000D03*
G04 #@! TD*
D15*
G04 #@! TO.N,Net-(J1-Pad3)*
X138920000Y-85410000D02*
X139470000Y-85410000D01*
X138194999Y-86135001D02*
X138920000Y-85410000D01*
X138194999Y-88410001D02*
X138194999Y-86135001D01*
X144939999Y-95155001D02*
X138194999Y-88410001D01*
X149954999Y-95155001D02*
X144939999Y-95155001D01*
X151130000Y-93980000D02*
X149954999Y-95155001D01*
X160990000Y-85410000D02*
X159790000Y-85410000D01*
X163775002Y-85410000D02*
X160990000Y-85410000D01*
X164065001Y-87864001D02*
X164065001Y-85699999D01*
X164065001Y-85699999D02*
X163775002Y-85410000D01*
X156774001Y-95155001D02*
X164065001Y-87864001D01*
X152305001Y-95155001D02*
X156774001Y-95155001D01*
X151130000Y-93980000D02*
X152305001Y-95155001D01*
G04 #@! TO.N,VDD*
X154290000Y-81050000D02*
X153504000Y-80264000D01*
X146370000Y-81050000D02*
X146370000Y-80500000D01*
X150622000Y-79756000D02*
X150730001Y-79864001D01*
X151695685Y-80264000D02*
X151130000Y-80264000D01*
X153504000Y-80264000D02*
X151695685Y-80264000D01*
X146370000Y-80500000D02*
X147114000Y-79756000D01*
X154940000Y-81050000D02*
X154290000Y-81050000D01*
X147114000Y-79756000D02*
X150622000Y-79756000D01*
X150730001Y-79864001D02*
X151130000Y-80264000D01*
G04 #@! TO.N,GND*
X147970000Y-90400000D02*
X147320000Y-90400000D01*
X148420010Y-90850010D02*
X147970000Y-90400000D01*
X151176420Y-90850010D02*
X148420010Y-90850010D01*
X152001411Y-91675001D02*
X151176420Y-90850010D01*
X155164999Y-91675001D02*
X152001411Y-91675001D01*
X155890000Y-90950000D02*
X155164999Y-91675001D01*
X155890000Y-90400000D02*
X155890000Y-90950000D01*
X146074000Y-90400000D02*
X146050000Y-90424000D01*
X147320000Y-90400000D02*
X146074000Y-90400000D01*
G04 #@! TO.N,Net-(Q1-Pad3)*
X153990000Y-84050000D02*
X153990000Y-90400000D01*
X146670000Y-84050000D02*
X147320000Y-84050000D01*
X146370000Y-84350000D02*
X146670000Y-84050000D01*
X146370000Y-87400000D02*
X146370000Y-84350000D01*
X145720000Y-87400000D02*
X146370000Y-87400000D01*
X142860000Y-87400000D02*
X145720000Y-87400000D01*
X142470000Y-87010000D02*
X142860000Y-87400000D01*
X142470000Y-86360000D02*
X142470000Y-87010000D01*
X146370000Y-87950000D02*
X146370000Y-87400000D01*
X147020000Y-88600000D02*
X146370000Y-87950000D01*
X147570000Y-88600000D02*
X147020000Y-88600000D01*
X149370000Y-90400000D02*
X147570000Y-88600000D01*
X153990000Y-90400000D02*
X149370000Y-90400000D01*
G04 #@! TO.N,Net-(Q2-Pad1)*
X148270000Y-82250000D02*
X148270000Y-87400000D01*
X148270000Y-81050000D02*
X148270000Y-82250000D01*
X154940000Y-84350000D02*
X155240000Y-84050000D01*
X155240000Y-84050000D02*
X155890000Y-84050000D01*
X154940000Y-87400000D02*
X154940000Y-84350000D01*
X155030000Y-87310000D02*
X154940000Y-87400000D01*
X159790000Y-87310000D02*
X155030000Y-87310000D01*
X155240000Y-82850000D02*
X155890000Y-83500000D01*
X154690000Y-82850000D02*
X155240000Y-82850000D01*
X155890000Y-83500000D02*
X155890000Y-84050000D01*
X148270000Y-81050000D02*
X152890000Y-81050000D01*
X152890000Y-81050000D02*
X154690000Y-82850000D01*
G04 #@! TO.N,Net-(J1-Pad4)*
X145035001Y-91675001D02*
X140670000Y-87310000D01*
X151365001Y-91675001D02*
X145035001Y-91675001D01*
X140670000Y-87310000D02*
X139470000Y-87310000D01*
X153670000Y-93980000D02*
X151365001Y-91675001D01*
G04 #@! TO.N,Net-(J1-Pad5)*
X162790000Y-87400000D02*
X162790000Y-86360000D01*
X156210000Y-93980000D02*
X162790000Y-87400000D01*
G04 #@! TD*
M02*
