G04 #@! TF.GenerationSoftware,KiCad,Pcbnew,5.0.2-bee76a0~70~ubuntu16.04.1*
G04 #@! TF.CreationDate,2020-04-18T16:11:13-07:00*
G04 #@! TF.ProjectId,sot23-breakout,736f7432-332d-4627-9265-616b6f75742e,rev?*
G04 #@! TF.SameCoordinates,Original*
G04 #@! TF.FileFunction,Legend,Top*
G04 #@! TF.FilePolarity,Positive*
%FSLAX46Y46*%
G04 Gerber Fmt 4.6, Leading zero omitted, Abs format (unit mm)*
G04 Created by KiCad (PCBNEW 5.0.2-bee76a0~70~ubuntu16.04.1) date Sat 18 Apr 2020 04:11:13 PM PDT*
%MOMM*%
%LPD*%
G01*
G04 APERTURE LIST*
%ADD10C,0.101600*%
%ADD11C,0.120000*%
G04 APERTURE END LIST*
D10*
X138617960Y-81479571D02*
X138690531Y-81515857D01*
X138714721Y-81552142D01*
X138738912Y-81624714D01*
X138738912Y-81733571D01*
X138714721Y-81806142D01*
X138690531Y-81842428D01*
X138642150Y-81878714D01*
X138448626Y-81878714D01*
X138448626Y-81116714D01*
X138617960Y-81116714D01*
X138666340Y-81153000D01*
X138690531Y-81189285D01*
X138714721Y-81261857D01*
X138714721Y-81334428D01*
X138690531Y-81407000D01*
X138666340Y-81443285D01*
X138617960Y-81479571D01*
X138448626Y-81479571D01*
X138956626Y-81878714D02*
X138956626Y-81370714D01*
X138956626Y-81515857D02*
X138980817Y-81443285D01*
X139005007Y-81407000D01*
X139053388Y-81370714D01*
X139101769Y-81370714D01*
X139464626Y-81842428D02*
X139416245Y-81878714D01*
X139319483Y-81878714D01*
X139271102Y-81842428D01*
X139246912Y-81769857D01*
X139246912Y-81479571D01*
X139271102Y-81407000D01*
X139319483Y-81370714D01*
X139416245Y-81370714D01*
X139464626Y-81407000D01*
X139488817Y-81479571D01*
X139488817Y-81552142D01*
X139246912Y-81624714D01*
X139924245Y-81878714D02*
X139924245Y-81479571D01*
X139900055Y-81407000D01*
X139851674Y-81370714D01*
X139754912Y-81370714D01*
X139706531Y-81407000D01*
X139924245Y-81842428D02*
X139875864Y-81878714D01*
X139754912Y-81878714D01*
X139706531Y-81842428D01*
X139682340Y-81769857D01*
X139682340Y-81697285D01*
X139706531Y-81624714D01*
X139754912Y-81588428D01*
X139875864Y-81588428D01*
X139924245Y-81552142D01*
X140166150Y-81878714D02*
X140166150Y-81116714D01*
X140214531Y-81588428D02*
X140359674Y-81878714D01*
X140359674Y-81370714D02*
X140166150Y-81661000D01*
X140649960Y-81878714D02*
X140601579Y-81842428D01*
X140577388Y-81806142D01*
X140553198Y-81733571D01*
X140553198Y-81515857D01*
X140577388Y-81443285D01*
X140601579Y-81407000D01*
X140649960Y-81370714D01*
X140722531Y-81370714D01*
X140770912Y-81407000D01*
X140795102Y-81443285D01*
X140819293Y-81515857D01*
X140819293Y-81733571D01*
X140795102Y-81806142D01*
X140770912Y-81842428D01*
X140722531Y-81878714D01*
X140649960Y-81878714D01*
X141254721Y-81370714D02*
X141254721Y-81878714D01*
X141037007Y-81370714D02*
X141037007Y-81769857D01*
X141061198Y-81842428D01*
X141109579Y-81878714D01*
X141182150Y-81878714D01*
X141230531Y-81842428D01*
X141254721Y-81806142D01*
X141424055Y-81370714D02*
X141617579Y-81370714D01*
X141496626Y-81116714D02*
X141496626Y-81769857D01*
X141520817Y-81842428D01*
X141569198Y-81878714D01*
X141617579Y-81878714D01*
X138763102Y-78794428D02*
X138835674Y-78830714D01*
X138956626Y-78830714D01*
X139005007Y-78794428D01*
X139029198Y-78758142D01*
X139053388Y-78685571D01*
X139053388Y-78613000D01*
X139029198Y-78540428D01*
X139005007Y-78504142D01*
X138956626Y-78467857D01*
X138859864Y-78431571D01*
X138811483Y-78395285D01*
X138787293Y-78359000D01*
X138763102Y-78286428D01*
X138763102Y-78213857D01*
X138787293Y-78141285D01*
X138811483Y-78105000D01*
X138859864Y-78068714D01*
X138980817Y-78068714D01*
X139053388Y-78105000D01*
X139367864Y-78068714D02*
X139464626Y-78068714D01*
X139513007Y-78105000D01*
X139561388Y-78177571D01*
X139585579Y-78322714D01*
X139585579Y-78576714D01*
X139561388Y-78721857D01*
X139513007Y-78794428D01*
X139464626Y-78830714D01*
X139367864Y-78830714D01*
X139319483Y-78794428D01*
X139271102Y-78721857D01*
X139246912Y-78576714D01*
X139246912Y-78322714D01*
X139271102Y-78177571D01*
X139319483Y-78105000D01*
X139367864Y-78068714D01*
X139730721Y-78068714D02*
X140021007Y-78068714D01*
X139875864Y-78830714D02*
X139875864Y-78068714D01*
X140190340Y-78540428D02*
X140577388Y-78540428D01*
X140795102Y-78141285D02*
X140819293Y-78105000D01*
X140867674Y-78068714D01*
X140988626Y-78068714D01*
X141037007Y-78105000D01*
X141061198Y-78141285D01*
X141085388Y-78213857D01*
X141085388Y-78286428D01*
X141061198Y-78395285D01*
X140770912Y-78830714D01*
X141085388Y-78830714D01*
X141254721Y-78068714D02*
X141569198Y-78068714D01*
X141399864Y-78359000D01*
X141472436Y-78359000D01*
X141520817Y-78395285D01*
X141545007Y-78431571D01*
X141569198Y-78504142D01*
X141569198Y-78685571D01*
X141545007Y-78758142D01*
X141520817Y-78794428D01*
X141472436Y-78830714D01*
X141327293Y-78830714D01*
X141278912Y-78794428D01*
X141254721Y-78758142D01*
D11*
G04 #@! TO.C,Q1*
X153160000Y-81590000D02*
X151700000Y-81590000D01*
X153160000Y-78430000D02*
X150000000Y-78430000D01*
X153160000Y-78430000D02*
X153160000Y-79360000D01*
X153160000Y-81590000D02*
X153160000Y-80660000D01*
G04 #@! TO.C,Q2*
X145540000Y-81590000D02*
X145540000Y-80660000D01*
X145540000Y-78430000D02*
X145540000Y-79360000D01*
X145540000Y-78430000D02*
X142380000Y-78430000D01*
X145540000Y-81590000D02*
X144080000Y-81590000D01*
G04 #@! TO.C,Q3*
X137920000Y-81590000D02*
X137920000Y-80660000D01*
X137920000Y-78430000D02*
X137920000Y-79360000D01*
X137920000Y-78430000D02*
X134760000Y-78430000D01*
X137920000Y-81590000D02*
X136460000Y-81590000D01*
G04 #@! TO.C,Q4*
X130300000Y-81590000D02*
X128840000Y-81590000D01*
X130300000Y-78430000D02*
X127140000Y-78430000D01*
X130300000Y-78430000D02*
X130300000Y-79360000D01*
X130300000Y-81590000D02*
X130300000Y-80660000D01*
G04 #@! TD*
M02*
