G04 #@! TF.GenerationSoftware,KiCad,Pcbnew,5.0.2-bee76a0~70~ubuntu16.04.1*
G04 #@! TF.CreationDate,2020-04-18T16:11:13-07:00*
G04 #@! TF.ProjectId,sot23-breakout,736f7432-332d-4627-9265-616b6f75742e,rev?*
G04 #@! TF.SameCoordinates,Original*
G04 #@! TF.FileFunction,Other,Fab,Top*
%FSLAX46Y46*%
G04 Gerber Fmt 4.6, Leading zero omitted, Abs format (unit mm)*
G04 Created by KiCad (PCBNEW 5.0.2-bee76a0~70~ubuntu16.04.1) date Sat 18 Apr 2020 04:11:13 PM PDT*
%MOMM*%
%LPD*%
G01*
G04 APERTURE LIST*
%ADD10C,0.100000*%
%ADD11C,0.075000*%
%ADD12C,0.150000*%
G04 APERTURE END LIST*
D10*
G04 #@! TO.C,Q1*
X151700000Y-81530000D02*
X153100000Y-81530000D01*
X153100000Y-78490000D02*
X153100000Y-81530000D01*
X151700000Y-79060000D02*
X152250000Y-78490000D01*
X152250000Y-78490000D02*
X153100000Y-78490000D01*
X151700000Y-79060000D02*
X151700000Y-81510000D01*
G04 #@! TO.C,Q2*
X144080000Y-79060000D02*
X144080000Y-81510000D01*
X144630000Y-78490000D02*
X145480000Y-78490000D01*
X144080000Y-79060000D02*
X144630000Y-78490000D01*
X145480000Y-78490000D02*
X145480000Y-81530000D01*
X144080000Y-81530000D02*
X145480000Y-81530000D01*
G04 #@! TO.C,Q3*
X136460000Y-79060000D02*
X136460000Y-81510000D01*
X137010000Y-78490000D02*
X137860000Y-78490000D01*
X136460000Y-79060000D02*
X137010000Y-78490000D01*
X137860000Y-78490000D02*
X137860000Y-81530000D01*
X136460000Y-81530000D02*
X137860000Y-81530000D01*
G04 #@! TO.C,Q4*
X128840000Y-81530000D02*
X130240000Y-81530000D01*
X130240000Y-78490000D02*
X130240000Y-81530000D01*
X128840000Y-79060000D02*
X129390000Y-78490000D01*
X129390000Y-78490000D02*
X130240000Y-78490000D01*
X128840000Y-79060000D02*
X128840000Y-81510000D01*
G04 #@! TO.C,J1*
X156210000Y-77470000D02*
X125730000Y-77470000D01*
X156210000Y-74930000D02*
X156210000Y-77470000D01*
X125730000Y-74930000D02*
X156210000Y-74930000D01*
X125730000Y-77470000D02*
X125730000Y-74930000D01*
G04 #@! TO.C,J2*
X125730000Y-85090000D02*
X125730000Y-82550000D01*
X125730000Y-82550000D02*
X156210000Y-82550000D01*
X156210000Y-82550000D02*
X156210000Y-85090000D01*
X156210000Y-85090000D02*
X125730000Y-85090000D01*
G04 #@! TD*
G04 #@! TO.C,Q1*
D11*
X152673809Y-80057619D02*
X152650000Y-80105238D01*
X152602380Y-80152857D01*
X152530952Y-80224285D01*
X152507142Y-80271904D01*
X152507142Y-80319523D01*
X152626190Y-80295714D02*
X152602380Y-80343333D01*
X152554761Y-80390952D01*
X152459523Y-80414761D01*
X152292857Y-80414761D01*
X152197619Y-80390952D01*
X152150000Y-80343333D01*
X152126190Y-80295714D01*
X152126190Y-80200476D01*
X152150000Y-80152857D01*
X152197619Y-80105238D01*
X152292857Y-80081428D01*
X152459523Y-80081428D01*
X152554761Y-80105238D01*
X152602380Y-80152857D01*
X152626190Y-80200476D01*
X152626190Y-80295714D01*
X152626190Y-79605238D02*
X152626190Y-79890952D01*
X152626190Y-79748095D02*
X152126190Y-79748095D01*
X152197619Y-79795714D01*
X152245238Y-79843333D01*
X152269047Y-79890952D01*
G04 #@! TO.C,Q2*
X145053809Y-80057619D02*
X145030000Y-80105238D01*
X144982380Y-80152857D01*
X144910952Y-80224285D01*
X144887142Y-80271904D01*
X144887142Y-80319523D01*
X145006190Y-80295714D02*
X144982380Y-80343333D01*
X144934761Y-80390952D01*
X144839523Y-80414761D01*
X144672857Y-80414761D01*
X144577619Y-80390952D01*
X144530000Y-80343333D01*
X144506190Y-80295714D01*
X144506190Y-80200476D01*
X144530000Y-80152857D01*
X144577619Y-80105238D01*
X144672857Y-80081428D01*
X144839523Y-80081428D01*
X144934761Y-80105238D01*
X144982380Y-80152857D01*
X145006190Y-80200476D01*
X145006190Y-80295714D01*
X144553809Y-79890952D02*
X144530000Y-79867142D01*
X144506190Y-79819523D01*
X144506190Y-79700476D01*
X144530000Y-79652857D01*
X144553809Y-79629047D01*
X144601428Y-79605238D01*
X144649047Y-79605238D01*
X144720476Y-79629047D01*
X145006190Y-79914761D01*
X145006190Y-79605238D01*
G04 #@! TO.C,Q3*
X137433809Y-80057619D02*
X137410000Y-80105238D01*
X137362380Y-80152857D01*
X137290952Y-80224285D01*
X137267142Y-80271904D01*
X137267142Y-80319523D01*
X137386190Y-80295714D02*
X137362380Y-80343333D01*
X137314761Y-80390952D01*
X137219523Y-80414761D01*
X137052857Y-80414761D01*
X136957619Y-80390952D01*
X136910000Y-80343333D01*
X136886190Y-80295714D01*
X136886190Y-80200476D01*
X136910000Y-80152857D01*
X136957619Y-80105238D01*
X137052857Y-80081428D01*
X137219523Y-80081428D01*
X137314761Y-80105238D01*
X137362380Y-80152857D01*
X137386190Y-80200476D01*
X137386190Y-80295714D01*
X136886190Y-79914761D02*
X136886190Y-79605238D01*
X137076666Y-79771904D01*
X137076666Y-79700476D01*
X137100476Y-79652857D01*
X137124285Y-79629047D01*
X137171904Y-79605238D01*
X137290952Y-79605238D01*
X137338571Y-79629047D01*
X137362380Y-79652857D01*
X137386190Y-79700476D01*
X137386190Y-79843333D01*
X137362380Y-79890952D01*
X137338571Y-79914761D01*
G04 #@! TO.C,Q4*
X129813809Y-80057619D02*
X129790000Y-80105238D01*
X129742380Y-80152857D01*
X129670952Y-80224285D01*
X129647142Y-80271904D01*
X129647142Y-80319523D01*
X129766190Y-80295714D02*
X129742380Y-80343333D01*
X129694761Y-80390952D01*
X129599523Y-80414761D01*
X129432857Y-80414761D01*
X129337619Y-80390952D01*
X129290000Y-80343333D01*
X129266190Y-80295714D01*
X129266190Y-80200476D01*
X129290000Y-80152857D01*
X129337619Y-80105238D01*
X129432857Y-80081428D01*
X129599523Y-80081428D01*
X129694761Y-80105238D01*
X129742380Y-80152857D01*
X129766190Y-80200476D01*
X129766190Y-80295714D01*
X129432857Y-79652857D02*
X129766190Y-79652857D01*
X129242380Y-79771904D02*
X129599523Y-79890952D01*
X129599523Y-79581428D01*
G04 #@! TO.C,J1*
D12*
X140636666Y-75652380D02*
X140636666Y-76366666D01*
X140589047Y-76509523D01*
X140493809Y-76604761D01*
X140350952Y-76652380D01*
X140255714Y-76652380D01*
X141636666Y-76652380D02*
X141065238Y-76652380D01*
X141350952Y-76652380D02*
X141350952Y-75652380D01*
X141255714Y-75795238D01*
X141160476Y-75890476D01*
X141065238Y-75938095D01*
G04 #@! TO.C,J2*
X140636666Y-83272380D02*
X140636666Y-83986666D01*
X140589047Y-84129523D01*
X140493809Y-84224761D01*
X140350952Y-84272380D01*
X140255714Y-84272380D01*
X141065238Y-83367619D02*
X141112857Y-83320000D01*
X141208095Y-83272380D01*
X141446190Y-83272380D01*
X141541428Y-83320000D01*
X141589047Y-83367619D01*
X141636666Y-83462857D01*
X141636666Y-83558095D01*
X141589047Y-83700952D01*
X141017619Y-84272380D01*
X141636666Y-84272380D01*
G04 #@! TD*
M02*
