M48
;DRILL file {KiCad 5.0.2-bee76a0~70~ubuntu16.04.1} date Sat 18 Apr 2020 03:58:42 PM PDT
;FORMAT={-:-/ absolute / inch / decimal}
FMAT,2
INCH,TZ
T1C0.0394
%
G90
G05
T1
X5.Y-3.
X5.1Y-3.
X5.2Y-3.
X5.3Y-3.
X5.4Y-3.
X5.5Y-3.
X5.6Y-3.
X5.7Y-3.
X5.8Y-3.
X5.9Y-3.
X6.Y-3.
X6.1Y-3.
X5.Y-3.3
X5.1Y-3.3
X5.2Y-3.3
X5.3Y-3.3
X5.4Y-3.3
X5.5Y-3.3
X5.6Y-3.3
X5.7Y-3.3
X5.8Y-3.3
X5.9Y-3.3
X6.Y-3.3
X6.1Y-3.3
T0
M30
