G04 #@! TF.GenerationSoftware,KiCad,Pcbnew,5.0.2-bee76a0~70~ubuntu16.04.1*
G04 #@! TF.CreationDate,2020-04-18T16:11:13-07:00*
G04 #@! TF.ProjectId,sot23-breakout,736f7432-332d-4627-9265-616b6f75742e,rev?*
G04 #@! TF.SameCoordinates,Original*
G04 #@! TF.FileFunction,Soldermask,Top*
G04 #@! TF.FilePolarity,Negative*
%FSLAX46Y46*%
G04 Gerber Fmt 4.6, Leading zero omitted, Abs format (unit mm)*
G04 Created by KiCad (PCBNEW 5.0.2-bee76a0~70~ubuntu16.04.1) date Sat 18 Apr 2020 04:11:13 PM PDT*
%MOMM*%
%LPD*%
G01*
G04 APERTURE LIST*
%ADD10C,0.100000*%
G04 APERTURE END LIST*
D10*
G36*
X134730443Y-82925519D02*
X134796627Y-82932037D01*
X134909853Y-82966384D01*
X134966467Y-82983557D01*
X135105087Y-83057652D01*
X135122991Y-83067222D01*
X135158729Y-83096552D01*
X135260186Y-83179814D01*
X135343448Y-83281271D01*
X135372778Y-83317009D01*
X135372779Y-83317011D01*
X135456443Y-83473533D01*
X135456443Y-83473534D01*
X135507963Y-83643373D01*
X135525359Y-83820000D01*
X135507963Y-83996627D01*
X135473616Y-84109853D01*
X135456443Y-84166467D01*
X135382348Y-84305087D01*
X135372778Y-84322991D01*
X135343448Y-84358729D01*
X135260186Y-84460186D01*
X135158729Y-84543448D01*
X135122991Y-84572778D01*
X135122989Y-84572779D01*
X134966467Y-84656443D01*
X134909853Y-84673616D01*
X134796627Y-84707963D01*
X134730443Y-84714481D01*
X134664260Y-84721000D01*
X134575740Y-84721000D01*
X134509557Y-84714481D01*
X134443373Y-84707963D01*
X134330147Y-84673616D01*
X134273533Y-84656443D01*
X134117011Y-84572779D01*
X134117009Y-84572778D01*
X134081271Y-84543448D01*
X133979814Y-84460186D01*
X133896552Y-84358729D01*
X133867222Y-84322991D01*
X133857652Y-84305087D01*
X133783557Y-84166467D01*
X133766384Y-84109853D01*
X133732037Y-83996627D01*
X133714641Y-83820000D01*
X133732037Y-83643373D01*
X133783557Y-83473534D01*
X133783557Y-83473533D01*
X133867221Y-83317011D01*
X133867222Y-83317009D01*
X133896552Y-83281271D01*
X133979814Y-83179814D01*
X134081271Y-83096552D01*
X134117009Y-83067222D01*
X134134913Y-83057652D01*
X134273533Y-82983557D01*
X134330147Y-82966384D01*
X134443373Y-82932037D01*
X134509557Y-82925519D01*
X134575740Y-82919000D01*
X134664260Y-82919000D01*
X134730443Y-82925519D01*
X134730443Y-82925519D01*
G37*
G36*
X152510443Y-82925519D02*
X152576627Y-82932037D01*
X152689853Y-82966384D01*
X152746467Y-82983557D01*
X152885087Y-83057652D01*
X152902991Y-83067222D01*
X152938729Y-83096552D01*
X153040186Y-83179814D01*
X153123448Y-83281271D01*
X153152778Y-83317009D01*
X153152779Y-83317011D01*
X153236443Y-83473533D01*
X153236443Y-83473534D01*
X153287963Y-83643373D01*
X153305359Y-83820000D01*
X153287963Y-83996627D01*
X153253616Y-84109853D01*
X153236443Y-84166467D01*
X153162348Y-84305087D01*
X153152778Y-84322991D01*
X153123448Y-84358729D01*
X153040186Y-84460186D01*
X152938729Y-84543448D01*
X152902991Y-84572778D01*
X152902989Y-84572779D01*
X152746467Y-84656443D01*
X152689853Y-84673616D01*
X152576627Y-84707963D01*
X152510443Y-84714481D01*
X152444260Y-84721000D01*
X152355740Y-84721000D01*
X152289557Y-84714481D01*
X152223373Y-84707963D01*
X152110147Y-84673616D01*
X152053533Y-84656443D01*
X151897011Y-84572779D01*
X151897009Y-84572778D01*
X151861271Y-84543448D01*
X151759814Y-84460186D01*
X151676552Y-84358729D01*
X151647222Y-84322991D01*
X151637652Y-84305087D01*
X151563557Y-84166467D01*
X151546384Y-84109853D01*
X151512037Y-83996627D01*
X151494641Y-83820000D01*
X151512037Y-83643373D01*
X151563557Y-83473534D01*
X151563557Y-83473533D01*
X151647221Y-83317011D01*
X151647222Y-83317009D01*
X151676552Y-83281271D01*
X151759814Y-83179814D01*
X151861271Y-83096552D01*
X151897009Y-83067222D01*
X151914913Y-83057652D01*
X152053533Y-82983557D01*
X152110147Y-82966384D01*
X152223373Y-82932037D01*
X152289557Y-82925519D01*
X152355740Y-82919000D01*
X152444260Y-82919000D01*
X152510443Y-82925519D01*
X152510443Y-82925519D01*
G37*
G36*
X129650443Y-82925519D02*
X129716627Y-82932037D01*
X129829853Y-82966384D01*
X129886467Y-82983557D01*
X130025087Y-83057652D01*
X130042991Y-83067222D01*
X130078729Y-83096552D01*
X130180186Y-83179814D01*
X130263448Y-83281271D01*
X130292778Y-83317009D01*
X130292779Y-83317011D01*
X130376443Y-83473533D01*
X130376443Y-83473534D01*
X130427963Y-83643373D01*
X130445359Y-83820000D01*
X130427963Y-83996627D01*
X130393616Y-84109853D01*
X130376443Y-84166467D01*
X130302348Y-84305087D01*
X130292778Y-84322991D01*
X130263448Y-84358729D01*
X130180186Y-84460186D01*
X130078729Y-84543448D01*
X130042991Y-84572778D01*
X130042989Y-84572779D01*
X129886467Y-84656443D01*
X129829853Y-84673616D01*
X129716627Y-84707963D01*
X129650443Y-84714481D01*
X129584260Y-84721000D01*
X129495740Y-84721000D01*
X129429557Y-84714481D01*
X129363373Y-84707963D01*
X129250147Y-84673616D01*
X129193533Y-84656443D01*
X129037011Y-84572779D01*
X129037009Y-84572778D01*
X129001271Y-84543448D01*
X128899814Y-84460186D01*
X128816552Y-84358729D01*
X128787222Y-84322991D01*
X128777652Y-84305087D01*
X128703557Y-84166467D01*
X128686384Y-84109853D01*
X128652037Y-83996627D01*
X128634641Y-83820000D01*
X128652037Y-83643373D01*
X128703557Y-83473534D01*
X128703557Y-83473533D01*
X128787221Y-83317011D01*
X128787222Y-83317009D01*
X128816552Y-83281271D01*
X128899814Y-83179814D01*
X129001271Y-83096552D01*
X129037009Y-83067222D01*
X129054913Y-83057652D01*
X129193533Y-82983557D01*
X129250147Y-82966384D01*
X129363373Y-82932037D01*
X129429557Y-82925519D01*
X129495740Y-82919000D01*
X129584260Y-82919000D01*
X129650443Y-82925519D01*
X129650443Y-82925519D01*
G37*
G36*
X132190443Y-82925519D02*
X132256627Y-82932037D01*
X132369853Y-82966384D01*
X132426467Y-82983557D01*
X132565087Y-83057652D01*
X132582991Y-83067222D01*
X132618729Y-83096552D01*
X132720186Y-83179814D01*
X132803448Y-83281271D01*
X132832778Y-83317009D01*
X132832779Y-83317011D01*
X132916443Y-83473533D01*
X132916443Y-83473534D01*
X132967963Y-83643373D01*
X132985359Y-83820000D01*
X132967963Y-83996627D01*
X132933616Y-84109853D01*
X132916443Y-84166467D01*
X132842348Y-84305087D01*
X132832778Y-84322991D01*
X132803448Y-84358729D01*
X132720186Y-84460186D01*
X132618729Y-84543448D01*
X132582991Y-84572778D01*
X132582989Y-84572779D01*
X132426467Y-84656443D01*
X132369853Y-84673616D01*
X132256627Y-84707963D01*
X132190443Y-84714481D01*
X132124260Y-84721000D01*
X132035740Y-84721000D01*
X131969557Y-84714481D01*
X131903373Y-84707963D01*
X131790147Y-84673616D01*
X131733533Y-84656443D01*
X131577011Y-84572779D01*
X131577009Y-84572778D01*
X131541271Y-84543448D01*
X131439814Y-84460186D01*
X131356552Y-84358729D01*
X131327222Y-84322991D01*
X131317652Y-84305087D01*
X131243557Y-84166467D01*
X131226384Y-84109853D01*
X131192037Y-83996627D01*
X131174641Y-83820000D01*
X131192037Y-83643373D01*
X131243557Y-83473534D01*
X131243557Y-83473533D01*
X131327221Y-83317011D01*
X131327222Y-83317009D01*
X131356552Y-83281271D01*
X131439814Y-83179814D01*
X131541271Y-83096552D01*
X131577009Y-83067222D01*
X131594913Y-83057652D01*
X131733533Y-82983557D01*
X131790147Y-82966384D01*
X131903373Y-82932037D01*
X131969557Y-82925519D01*
X132035740Y-82919000D01*
X132124260Y-82919000D01*
X132190443Y-82925519D01*
X132190443Y-82925519D01*
G37*
G36*
X137270443Y-82925519D02*
X137336627Y-82932037D01*
X137449853Y-82966384D01*
X137506467Y-82983557D01*
X137645087Y-83057652D01*
X137662991Y-83067222D01*
X137698729Y-83096552D01*
X137800186Y-83179814D01*
X137883448Y-83281271D01*
X137912778Y-83317009D01*
X137912779Y-83317011D01*
X137996443Y-83473533D01*
X137996443Y-83473534D01*
X138047963Y-83643373D01*
X138065359Y-83820000D01*
X138047963Y-83996627D01*
X138013616Y-84109853D01*
X137996443Y-84166467D01*
X137922348Y-84305087D01*
X137912778Y-84322991D01*
X137883448Y-84358729D01*
X137800186Y-84460186D01*
X137698729Y-84543448D01*
X137662991Y-84572778D01*
X137662989Y-84572779D01*
X137506467Y-84656443D01*
X137449853Y-84673616D01*
X137336627Y-84707963D01*
X137270443Y-84714481D01*
X137204260Y-84721000D01*
X137115740Y-84721000D01*
X137049557Y-84714481D01*
X136983373Y-84707963D01*
X136870147Y-84673616D01*
X136813533Y-84656443D01*
X136657011Y-84572779D01*
X136657009Y-84572778D01*
X136621271Y-84543448D01*
X136519814Y-84460186D01*
X136436552Y-84358729D01*
X136407222Y-84322991D01*
X136397652Y-84305087D01*
X136323557Y-84166467D01*
X136306384Y-84109853D01*
X136272037Y-83996627D01*
X136254641Y-83820000D01*
X136272037Y-83643373D01*
X136323557Y-83473534D01*
X136323557Y-83473533D01*
X136407221Y-83317011D01*
X136407222Y-83317009D01*
X136436552Y-83281271D01*
X136519814Y-83179814D01*
X136621271Y-83096552D01*
X136657009Y-83067222D01*
X136674913Y-83057652D01*
X136813533Y-82983557D01*
X136870147Y-82966384D01*
X136983373Y-82932037D01*
X137049557Y-82925519D01*
X137115740Y-82919000D01*
X137204260Y-82919000D01*
X137270443Y-82925519D01*
X137270443Y-82925519D01*
G37*
G36*
X139810443Y-82925519D02*
X139876627Y-82932037D01*
X139989853Y-82966384D01*
X140046467Y-82983557D01*
X140185087Y-83057652D01*
X140202991Y-83067222D01*
X140238729Y-83096552D01*
X140340186Y-83179814D01*
X140423448Y-83281271D01*
X140452778Y-83317009D01*
X140452779Y-83317011D01*
X140536443Y-83473533D01*
X140536443Y-83473534D01*
X140587963Y-83643373D01*
X140605359Y-83820000D01*
X140587963Y-83996627D01*
X140553616Y-84109853D01*
X140536443Y-84166467D01*
X140462348Y-84305087D01*
X140452778Y-84322991D01*
X140423448Y-84358729D01*
X140340186Y-84460186D01*
X140238729Y-84543448D01*
X140202991Y-84572778D01*
X140202989Y-84572779D01*
X140046467Y-84656443D01*
X139989853Y-84673616D01*
X139876627Y-84707963D01*
X139810443Y-84714481D01*
X139744260Y-84721000D01*
X139655740Y-84721000D01*
X139589557Y-84714481D01*
X139523373Y-84707963D01*
X139410147Y-84673616D01*
X139353533Y-84656443D01*
X139197011Y-84572779D01*
X139197009Y-84572778D01*
X139161271Y-84543448D01*
X139059814Y-84460186D01*
X138976552Y-84358729D01*
X138947222Y-84322991D01*
X138937652Y-84305087D01*
X138863557Y-84166467D01*
X138846384Y-84109853D01*
X138812037Y-83996627D01*
X138794641Y-83820000D01*
X138812037Y-83643373D01*
X138863557Y-83473534D01*
X138863557Y-83473533D01*
X138947221Y-83317011D01*
X138947222Y-83317009D01*
X138976552Y-83281271D01*
X139059814Y-83179814D01*
X139161271Y-83096552D01*
X139197009Y-83067222D01*
X139214913Y-83057652D01*
X139353533Y-82983557D01*
X139410147Y-82966384D01*
X139523373Y-82932037D01*
X139589557Y-82925519D01*
X139655740Y-82919000D01*
X139744260Y-82919000D01*
X139810443Y-82925519D01*
X139810443Y-82925519D01*
G37*
G36*
X142350443Y-82925519D02*
X142416627Y-82932037D01*
X142529853Y-82966384D01*
X142586467Y-82983557D01*
X142725087Y-83057652D01*
X142742991Y-83067222D01*
X142778729Y-83096552D01*
X142880186Y-83179814D01*
X142963448Y-83281271D01*
X142992778Y-83317009D01*
X142992779Y-83317011D01*
X143076443Y-83473533D01*
X143076443Y-83473534D01*
X143127963Y-83643373D01*
X143145359Y-83820000D01*
X143127963Y-83996627D01*
X143093616Y-84109853D01*
X143076443Y-84166467D01*
X143002348Y-84305087D01*
X142992778Y-84322991D01*
X142963448Y-84358729D01*
X142880186Y-84460186D01*
X142778729Y-84543448D01*
X142742991Y-84572778D01*
X142742989Y-84572779D01*
X142586467Y-84656443D01*
X142529853Y-84673616D01*
X142416627Y-84707963D01*
X142350443Y-84714481D01*
X142284260Y-84721000D01*
X142195740Y-84721000D01*
X142129557Y-84714481D01*
X142063373Y-84707963D01*
X141950147Y-84673616D01*
X141893533Y-84656443D01*
X141737011Y-84572779D01*
X141737009Y-84572778D01*
X141701271Y-84543448D01*
X141599814Y-84460186D01*
X141516552Y-84358729D01*
X141487222Y-84322991D01*
X141477652Y-84305087D01*
X141403557Y-84166467D01*
X141386384Y-84109853D01*
X141352037Y-83996627D01*
X141334641Y-83820000D01*
X141352037Y-83643373D01*
X141403557Y-83473534D01*
X141403557Y-83473533D01*
X141487221Y-83317011D01*
X141487222Y-83317009D01*
X141516552Y-83281271D01*
X141599814Y-83179814D01*
X141701271Y-83096552D01*
X141737009Y-83067222D01*
X141754913Y-83057652D01*
X141893533Y-82983557D01*
X141950147Y-82966384D01*
X142063373Y-82932037D01*
X142129557Y-82925519D01*
X142195740Y-82919000D01*
X142284260Y-82919000D01*
X142350443Y-82925519D01*
X142350443Y-82925519D01*
G37*
G36*
X144890443Y-82925519D02*
X144956627Y-82932037D01*
X145069853Y-82966384D01*
X145126467Y-82983557D01*
X145265087Y-83057652D01*
X145282991Y-83067222D01*
X145318729Y-83096552D01*
X145420186Y-83179814D01*
X145503448Y-83281271D01*
X145532778Y-83317009D01*
X145532779Y-83317011D01*
X145616443Y-83473533D01*
X145616443Y-83473534D01*
X145667963Y-83643373D01*
X145685359Y-83820000D01*
X145667963Y-83996627D01*
X145633616Y-84109853D01*
X145616443Y-84166467D01*
X145542348Y-84305087D01*
X145532778Y-84322991D01*
X145503448Y-84358729D01*
X145420186Y-84460186D01*
X145318729Y-84543448D01*
X145282991Y-84572778D01*
X145282989Y-84572779D01*
X145126467Y-84656443D01*
X145069853Y-84673616D01*
X144956627Y-84707963D01*
X144890443Y-84714481D01*
X144824260Y-84721000D01*
X144735740Y-84721000D01*
X144669557Y-84714481D01*
X144603373Y-84707963D01*
X144490147Y-84673616D01*
X144433533Y-84656443D01*
X144277011Y-84572779D01*
X144277009Y-84572778D01*
X144241271Y-84543448D01*
X144139814Y-84460186D01*
X144056552Y-84358729D01*
X144027222Y-84322991D01*
X144017652Y-84305087D01*
X143943557Y-84166467D01*
X143926384Y-84109853D01*
X143892037Y-83996627D01*
X143874641Y-83820000D01*
X143892037Y-83643373D01*
X143943557Y-83473534D01*
X143943557Y-83473533D01*
X144027221Y-83317011D01*
X144027222Y-83317009D01*
X144056552Y-83281271D01*
X144139814Y-83179814D01*
X144241271Y-83096552D01*
X144277009Y-83067222D01*
X144294913Y-83057652D01*
X144433533Y-82983557D01*
X144490147Y-82966384D01*
X144603373Y-82932037D01*
X144669557Y-82925519D01*
X144735740Y-82919000D01*
X144824260Y-82919000D01*
X144890443Y-82925519D01*
X144890443Y-82925519D01*
G37*
G36*
X147430443Y-82925519D02*
X147496627Y-82932037D01*
X147609853Y-82966384D01*
X147666467Y-82983557D01*
X147805087Y-83057652D01*
X147822991Y-83067222D01*
X147858729Y-83096552D01*
X147960186Y-83179814D01*
X148043448Y-83281271D01*
X148072778Y-83317009D01*
X148072779Y-83317011D01*
X148156443Y-83473533D01*
X148156443Y-83473534D01*
X148207963Y-83643373D01*
X148225359Y-83820000D01*
X148207963Y-83996627D01*
X148173616Y-84109853D01*
X148156443Y-84166467D01*
X148082348Y-84305087D01*
X148072778Y-84322991D01*
X148043448Y-84358729D01*
X147960186Y-84460186D01*
X147858729Y-84543448D01*
X147822991Y-84572778D01*
X147822989Y-84572779D01*
X147666467Y-84656443D01*
X147609853Y-84673616D01*
X147496627Y-84707963D01*
X147430443Y-84714481D01*
X147364260Y-84721000D01*
X147275740Y-84721000D01*
X147209557Y-84714481D01*
X147143373Y-84707963D01*
X147030147Y-84673616D01*
X146973533Y-84656443D01*
X146817011Y-84572779D01*
X146817009Y-84572778D01*
X146781271Y-84543448D01*
X146679814Y-84460186D01*
X146596552Y-84358729D01*
X146567222Y-84322991D01*
X146557652Y-84305087D01*
X146483557Y-84166467D01*
X146466384Y-84109853D01*
X146432037Y-83996627D01*
X146414641Y-83820000D01*
X146432037Y-83643373D01*
X146483557Y-83473534D01*
X146483557Y-83473533D01*
X146567221Y-83317011D01*
X146567222Y-83317009D01*
X146596552Y-83281271D01*
X146679814Y-83179814D01*
X146781271Y-83096552D01*
X146817009Y-83067222D01*
X146834913Y-83057652D01*
X146973533Y-82983557D01*
X147030147Y-82966384D01*
X147143373Y-82932037D01*
X147209557Y-82925519D01*
X147275740Y-82919000D01*
X147364260Y-82919000D01*
X147430443Y-82925519D01*
X147430443Y-82925519D01*
G37*
G36*
X149970443Y-82925519D02*
X150036627Y-82932037D01*
X150149853Y-82966384D01*
X150206467Y-82983557D01*
X150345087Y-83057652D01*
X150362991Y-83067222D01*
X150398729Y-83096552D01*
X150500186Y-83179814D01*
X150583448Y-83281271D01*
X150612778Y-83317009D01*
X150612779Y-83317011D01*
X150696443Y-83473533D01*
X150696443Y-83473534D01*
X150747963Y-83643373D01*
X150765359Y-83820000D01*
X150747963Y-83996627D01*
X150713616Y-84109853D01*
X150696443Y-84166467D01*
X150622348Y-84305087D01*
X150612778Y-84322991D01*
X150583448Y-84358729D01*
X150500186Y-84460186D01*
X150398729Y-84543448D01*
X150362991Y-84572778D01*
X150362989Y-84572779D01*
X150206467Y-84656443D01*
X150149853Y-84673616D01*
X150036627Y-84707963D01*
X149970443Y-84714481D01*
X149904260Y-84721000D01*
X149815740Y-84721000D01*
X149749557Y-84714481D01*
X149683373Y-84707963D01*
X149570147Y-84673616D01*
X149513533Y-84656443D01*
X149357011Y-84572779D01*
X149357009Y-84572778D01*
X149321271Y-84543448D01*
X149219814Y-84460186D01*
X149136552Y-84358729D01*
X149107222Y-84322991D01*
X149097652Y-84305087D01*
X149023557Y-84166467D01*
X149006384Y-84109853D01*
X148972037Y-83996627D01*
X148954641Y-83820000D01*
X148972037Y-83643373D01*
X149023557Y-83473534D01*
X149023557Y-83473533D01*
X149107221Y-83317011D01*
X149107222Y-83317009D01*
X149136552Y-83281271D01*
X149219814Y-83179814D01*
X149321271Y-83096552D01*
X149357009Y-83067222D01*
X149374913Y-83057652D01*
X149513533Y-82983557D01*
X149570147Y-82966384D01*
X149683373Y-82932037D01*
X149749557Y-82925519D01*
X149815740Y-82919000D01*
X149904260Y-82919000D01*
X149970443Y-82925519D01*
X149970443Y-82925519D01*
G37*
G36*
X155050443Y-82925519D02*
X155116627Y-82932037D01*
X155229853Y-82966384D01*
X155286467Y-82983557D01*
X155425087Y-83057652D01*
X155442991Y-83067222D01*
X155478729Y-83096552D01*
X155580186Y-83179814D01*
X155663448Y-83281271D01*
X155692778Y-83317009D01*
X155692779Y-83317011D01*
X155776443Y-83473533D01*
X155776443Y-83473534D01*
X155827963Y-83643373D01*
X155845359Y-83820000D01*
X155827963Y-83996627D01*
X155793616Y-84109853D01*
X155776443Y-84166467D01*
X155702348Y-84305087D01*
X155692778Y-84322991D01*
X155663448Y-84358729D01*
X155580186Y-84460186D01*
X155478729Y-84543448D01*
X155442991Y-84572778D01*
X155442989Y-84572779D01*
X155286467Y-84656443D01*
X155229853Y-84673616D01*
X155116627Y-84707963D01*
X155050443Y-84714481D01*
X154984260Y-84721000D01*
X154895740Y-84721000D01*
X154829557Y-84714481D01*
X154763373Y-84707963D01*
X154650147Y-84673616D01*
X154593533Y-84656443D01*
X154437011Y-84572779D01*
X154437009Y-84572778D01*
X154401271Y-84543448D01*
X154299814Y-84460186D01*
X154216552Y-84358729D01*
X154187222Y-84322991D01*
X154177652Y-84305087D01*
X154103557Y-84166467D01*
X154086384Y-84109853D01*
X154052037Y-83996627D01*
X154034641Y-83820000D01*
X154052037Y-83643373D01*
X154103557Y-83473534D01*
X154103557Y-83473533D01*
X154187221Y-83317011D01*
X154187222Y-83317009D01*
X154216552Y-83281271D01*
X154299814Y-83179814D01*
X154401271Y-83096552D01*
X154437009Y-83067222D01*
X154454913Y-83057652D01*
X154593533Y-82983557D01*
X154650147Y-82966384D01*
X154763373Y-82932037D01*
X154829557Y-82925519D01*
X154895740Y-82919000D01*
X154984260Y-82919000D01*
X155050443Y-82925519D01*
X155050443Y-82925519D01*
G37*
G36*
X127110443Y-82925519D02*
X127176627Y-82932037D01*
X127289853Y-82966384D01*
X127346467Y-82983557D01*
X127485087Y-83057652D01*
X127502991Y-83067222D01*
X127538729Y-83096552D01*
X127640186Y-83179814D01*
X127723448Y-83281271D01*
X127752778Y-83317009D01*
X127752779Y-83317011D01*
X127836443Y-83473533D01*
X127836443Y-83473534D01*
X127887963Y-83643373D01*
X127905359Y-83820000D01*
X127887963Y-83996627D01*
X127853616Y-84109853D01*
X127836443Y-84166467D01*
X127762348Y-84305087D01*
X127752778Y-84322991D01*
X127723448Y-84358729D01*
X127640186Y-84460186D01*
X127538729Y-84543448D01*
X127502991Y-84572778D01*
X127502989Y-84572779D01*
X127346467Y-84656443D01*
X127289853Y-84673616D01*
X127176627Y-84707963D01*
X127110443Y-84714481D01*
X127044260Y-84721000D01*
X126955740Y-84721000D01*
X126889557Y-84714481D01*
X126823373Y-84707963D01*
X126710147Y-84673616D01*
X126653533Y-84656443D01*
X126497011Y-84572779D01*
X126497009Y-84572778D01*
X126461271Y-84543448D01*
X126359814Y-84460186D01*
X126276552Y-84358729D01*
X126247222Y-84322991D01*
X126237652Y-84305087D01*
X126163557Y-84166467D01*
X126146384Y-84109853D01*
X126112037Y-83996627D01*
X126094641Y-83820000D01*
X126112037Y-83643373D01*
X126163557Y-83473534D01*
X126163557Y-83473533D01*
X126247221Y-83317011D01*
X126247222Y-83317009D01*
X126276552Y-83281271D01*
X126359814Y-83179814D01*
X126461271Y-83096552D01*
X126497009Y-83067222D01*
X126514913Y-83057652D01*
X126653533Y-82983557D01*
X126710147Y-82966384D01*
X126823373Y-82932037D01*
X126889557Y-82925519D01*
X126955740Y-82919000D01*
X127044260Y-82919000D01*
X127110443Y-82925519D01*
X127110443Y-82925519D01*
G37*
G36*
X136661000Y-81411000D02*
X134659000Y-81411000D01*
X134659000Y-80509000D01*
X136661000Y-80509000D01*
X136661000Y-81411000D01*
X136661000Y-81411000D01*
G37*
G36*
X151901000Y-81411000D02*
X149899000Y-81411000D01*
X149899000Y-80509000D01*
X151901000Y-80509000D01*
X151901000Y-81411000D01*
X151901000Y-81411000D01*
G37*
G36*
X129041000Y-81411000D02*
X127039000Y-81411000D01*
X127039000Y-80509000D01*
X129041000Y-80509000D01*
X129041000Y-81411000D01*
X129041000Y-81411000D01*
G37*
G36*
X144281000Y-81411000D02*
X142279000Y-81411000D01*
X142279000Y-80509000D01*
X144281000Y-80509000D01*
X144281000Y-81411000D01*
X144281000Y-81411000D01*
G37*
G36*
X139661000Y-80461000D02*
X137659000Y-80461000D01*
X137659000Y-79559000D01*
X139661000Y-79559000D01*
X139661000Y-80461000D01*
X139661000Y-80461000D01*
G37*
G36*
X132041000Y-80461000D02*
X130039000Y-80461000D01*
X130039000Y-79559000D01*
X132041000Y-79559000D01*
X132041000Y-80461000D01*
X132041000Y-80461000D01*
G37*
G36*
X154901000Y-80461000D02*
X152899000Y-80461000D01*
X152899000Y-79559000D01*
X154901000Y-79559000D01*
X154901000Y-80461000D01*
X154901000Y-80461000D01*
G37*
G36*
X147281000Y-80461000D02*
X145279000Y-80461000D01*
X145279000Y-79559000D01*
X147281000Y-79559000D01*
X147281000Y-80461000D01*
X147281000Y-80461000D01*
G37*
G36*
X136661000Y-79511000D02*
X134659000Y-79511000D01*
X134659000Y-78609000D01*
X136661000Y-78609000D01*
X136661000Y-79511000D01*
X136661000Y-79511000D01*
G37*
G36*
X129041000Y-79511000D02*
X127039000Y-79511000D01*
X127039000Y-78609000D01*
X129041000Y-78609000D01*
X129041000Y-79511000D01*
X129041000Y-79511000D01*
G37*
G36*
X144281000Y-79511000D02*
X142279000Y-79511000D01*
X142279000Y-78609000D01*
X144281000Y-78609000D01*
X144281000Y-79511000D01*
X144281000Y-79511000D01*
G37*
G36*
X151901000Y-79511000D02*
X149899000Y-79511000D01*
X149899000Y-78609000D01*
X151901000Y-78609000D01*
X151901000Y-79511000D01*
X151901000Y-79511000D01*
G37*
G36*
X139810442Y-75305518D02*
X139876627Y-75312037D01*
X139989853Y-75346384D01*
X140046467Y-75363557D01*
X140185087Y-75437652D01*
X140202991Y-75447222D01*
X140238729Y-75476552D01*
X140340186Y-75559814D01*
X140423448Y-75661271D01*
X140452778Y-75697009D01*
X140452779Y-75697011D01*
X140536443Y-75853533D01*
X140536443Y-75853534D01*
X140587963Y-76023373D01*
X140605359Y-76200000D01*
X140587963Y-76376627D01*
X140553616Y-76489853D01*
X140536443Y-76546467D01*
X140462348Y-76685087D01*
X140452778Y-76702991D01*
X140423448Y-76738729D01*
X140340186Y-76840186D01*
X140238729Y-76923448D01*
X140202991Y-76952778D01*
X140202989Y-76952779D01*
X140046467Y-77036443D01*
X139989853Y-77053616D01*
X139876627Y-77087963D01*
X139810442Y-77094482D01*
X139744260Y-77101000D01*
X139655740Y-77101000D01*
X139589558Y-77094482D01*
X139523373Y-77087963D01*
X139410147Y-77053616D01*
X139353533Y-77036443D01*
X139197011Y-76952779D01*
X139197009Y-76952778D01*
X139161271Y-76923448D01*
X139059814Y-76840186D01*
X138976552Y-76738729D01*
X138947222Y-76702991D01*
X138937652Y-76685087D01*
X138863557Y-76546467D01*
X138846384Y-76489853D01*
X138812037Y-76376627D01*
X138794641Y-76200000D01*
X138812037Y-76023373D01*
X138863557Y-75853534D01*
X138863557Y-75853533D01*
X138947221Y-75697011D01*
X138947222Y-75697009D01*
X138976552Y-75661271D01*
X139059814Y-75559814D01*
X139161271Y-75476552D01*
X139197009Y-75447222D01*
X139214913Y-75437652D01*
X139353533Y-75363557D01*
X139410147Y-75346384D01*
X139523373Y-75312037D01*
X139589558Y-75305518D01*
X139655740Y-75299000D01*
X139744260Y-75299000D01*
X139810442Y-75305518D01*
X139810442Y-75305518D01*
G37*
G36*
X147430442Y-75305518D02*
X147496627Y-75312037D01*
X147609853Y-75346384D01*
X147666467Y-75363557D01*
X147805087Y-75437652D01*
X147822991Y-75447222D01*
X147858729Y-75476552D01*
X147960186Y-75559814D01*
X148043448Y-75661271D01*
X148072778Y-75697009D01*
X148072779Y-75697011D01*
X148156443Y-75853533D01*
X148156443Y-75853534D01*
X148207963Y-76023373D01*
X148225359Y-76200000D01*
X148207963Y-76376627D01*
X148173616Y-76489853D01*
X148156443Y-76546467D01*
X148082348Y-76685087D01*
X148072778Y-76702991D01*
X148043448Y-76738729D01*
X147960186Y-76840186D01*
X147858729Y-76923448D01*
X147822991Y-76952778D01*
X147822989Y-76952779D01*
X147666467Y-77036443D01*
X147609853Y-77053616D01*
X147496627Y-77087963D01*
X147430442Y-77094482D01*
X147364260Y-77101000D01*
X147275740Y-77101000D01*
X147209558Y-77094482D01*
X147143373Y-77087963D01*
X147030147Y-77053616D01*
X146973533Y-77036443D01*
X146817011Y-76952779D01*
X146817009Y-76952778D01*
X146781271Y-76923448D01*
X146679814Y-76840186D01*
X146596552Y-76738729D01*
X146567222Y-76702991D01*
X146557652Y-76685087D01*
X146483557Y-76546467D01*
X146466384Y-76489853D01*
X146432037Y-76376627D01*
X146414641Y-76200000D01*
X146432037Y-76023373D01*
X146483557Y-75853534D01*
X146483557Y-75853533D01*
X146567221Y-75697011D01*
X146567222Y-75697009D01*
X146596552Y-75661271D01*
X146679814Y-75559814D01*
X146781271Y-75476552D01*
X146817009Y-75447222D01*
X146834913Y-75437652D01*
X146973533Y-75363557D01*
X147030147Y-75346384D01*
X147143373Y-75312037D01*
X147209558Y-75305518D01*
X147275740Y-75299000D01*
X147364260Y-75299000D01*
X147430442Y-75305518D01*
X147430442Y-75305518D01*
G37*
G36*
X144890442Y-75305518D02*
X144956627Y-75312037D01*
X145069853Y-75346384D01*
X145126467Y-75363557D01*
X145265087Y-75437652D01*
X145282991Y-75447222D01*
X145318729Y-75476552D01*
X145420186Y-75559814D01*
X145503448Y-75661271D01*
X145532778Y-75697009D01*
X145532779Y-75697011D01*
X145616443Y-75853533D01*
X145616443Y-75853534D01*
X145667963Y-76023373D01*
X145685359Y-76200000D01*
X145667963Y-76376627D01*
X145633616Y-76489853D01*
X145616443Y-76546467D01*
X145542348Y-76685087D01*
X145532778Y-76702991D01*
X145503448Y-76738729D01*
X145420186Y-76840186D01*
X145318729Y-76923448D01*
X145282991Y-76952778D01*
X145282989Y-76952779D01*
X145126467Y-77036443D01*
X145069853Y-77053616D01*
X144956627Y-77087963D01*
X144890442Y-77094482D01*
X144824260Y-77101000D01*
X144735740Y-77101000D01*
X144669558Y-77094482D01*
X144603373Y-77087963D01*
X144490147Y-77053616D01*
X144433533Y-77036443D01*
X144277011Y-76952779D01*
X144277009Y-76952778D01*
X144241271Y-76923448D01*
X144139814Y-76840186D01*
X144056552Y-76738729D01*
X144027222Y-76702991D01*
X144017652Y-76685087D01*
X143943557Y-76546467D01*
X143926384Y-76489853D01*
X143892037Y-76376627D01*
X143874641Y-76200000D01*
X143892037Y-76023373D01*
X143943557Y-75853534D01*
X143943557Y-75853533D01*
X144027221Y-75697011D01*
X144027222Y-75697009D01*
X144056552Y-75661271D01*
X144139814Y-75559814D01*
X144241271Y-75476552D01*
X144277009Y-75447222D01*
X144294913Y-75437652D01*
X144433533Y-75363557D01*
X144490147Y-75346384D01*
X144603373Y-75312037D01*
X144669558Y-75305518D01*
X144735740Y-75299000D01*
X144824260Y-75299000D01*
X144890442Y-75305518D01*
X144890442Y-75305518D01*
G37*
G36*
X142350442Y-75305518D02*
X142416627Y-75312037D01*
X142529853Y-75346384D01*
X142586467Y-75363557D01*
X142725087Y-75437652D01*
X142742991Y-75447222D01*
X142778729Y-75476552D01*
X142880186Y-75559814D01*
X142963448Y-75661271D01*
X142992778Y-75697009D01*
X142992779Y-75697011D01*
X143076443Y-75853533D01*
X143076443Y-75853534D01*
X143127963Y-76023373D01*
X143145359Y-76200000D01*
X143127963Y-76376627D01*
X143093616Y-76489853D01*
X143076443Y-76546467D01*
X143002348Y-76685087D01*
X142992778Y-76702991D01*
X142963448Y-76738729D01*
X142880186Y-76840186D01*
X142778729Y-76923448D01*
X142742991Y-76952778D01*
X142742989Y-76952779D01*
X142586467Y-77036443D01*
X142529853Y-77053616D01*
X142416627Y-77087963D01*
X142350442Y-77094482D01*
X142284260Y-77101000D01*
X142195740Y-77101000D01*
X142129558Y-77094482D01*
X142063373Y-77087963D01*
X141950147Y-77053616D01*
X141893533Y-77036443D01*
X141737011Y-76952779D01*
X141737009Y-76952778D01*
X141701271Y-76923448D01*
X141599814Y-76840186D01*
X141516552Y-76738729D01*
X141487222Y-76702991D01*
X141477652Y-76685087D01*
X141403557Y-76546467D01*
X141386384Y-76489853D01*
X141352037Y-76376627D01*
X141334641Y-76200000D01*
X141352037Y-76023373D01*
X141403557Y-75853534D01*
X141403557Y-75853533D01*
X141487221Y-75697011D01*
X141487222Y-75697009D01*
X141516552Y-75661271D01*
X141599814Y-75559814D01*
X141701271Y-75476552D01*
X141737009Y-75447222D01*
X141754913Y-75437652D01*
X141893533Y-75363557D01*
X141950147Y-75346384D01*
X142063373Y-75312037D01*
X142129558Y-75305518D01*
X142195740Y-75299000D01*
X142284260Y-75299000D01*
X142350442Y-75305518D01*
X142350442Y-75305518D01*
G37*
G36*
X127110442Y-75305518D02*
X127176627Y-75312037D01*
X127289853Y-75346384D01*
X127346467Y-75363557D01*
X127485087Y-75437652D01*
X127502991Y-75447222D01*
X127538729Y-75476552D01*
X127640186Y-75559814D01*
X127723448Y-75661271D01*
X127752778Y-75697009D01*
X127752779Y-75697011D01*
X127836443Y-75853533D01*
X127836443Y-75853534D01*
X127887963Y-76023373D01*
X127905359Y-76200000D01*
X127887963Y-76376627D01*
X127853616Y-76489853D01*
X127836443Y-76546467D01*
X127762348Y-76685087D01*
X127752778Y-76702991D01*
X127723448Y-76738729D01*
X127640186Y-76840186D01*
X127538729Y-76923448D01*
X127502991Y-76952778D01*
X127502989Y-76952779D01*
X127346467Y-77036443D01*
X127289853Y-77053616D01*
X127176627Y-77087963D01*
X127110442Y-77094482D01*
X127044260Y-77101000D01*
X126955740Y-77101000D01*
X126889558Y-77094482D01*
X126823373Y-77087963D01*
X126710147Y-77053616D01*
X126653533Y-77036443D01*
X126497011Y-76952779D01*
X126497009Y-76952778D01*
X126461271Y-76923448D01*
X126359814Y-76840186D01*
X126276552Y-76738729D01*
X126247222Y-76702991D01*
X126237652Y-76685087D01*
X126163557Y-76546467D01*
X126146384Y-76489853D01*
X126112037Y-76376627D01*
X126094641Y-76200000D01*
X126112037Y-76023373D01*
X126163557Y-75853534D01*
X126163557Y-75853533D01*
X126247221Y-75697011D01*
X126247222Y-75697009D01*
X126276552Y-75661271D01*
X126359814Y-75559814D01*
X126461271Y-75476552D01*
X126497009Y-75447222D01*
X126514913Y-75437652D01*
X126653533Y-75363557D01*
X126710147Y-75346384D01*
X126823373Y-75312037D01*
X126889558Y-75305518D01*
X126955740Y-75299000D01*
X127044260Y-75299000D01*
X127110442Y-75305518D01*
X127110442Y-75305518D01*
G37*
G36*
X137270442Y-75305518D02*
X137336627Y-75312037D01*
X137449853Y-75346384D01*
X137506467Y-75363557D01*
X137645087Y-75437652D01*
X137662991Y-75447222D01*
X137698729Y-75476552D01*
X137800186Y-75559814D01*
X137883448Y-75661271D01*
X137912778Y-75697009D01*
X137912779Y-75697011D01*
X137996443Y-75853533D01*
X137996443Y-75853534D01*
X138047963Y-76023373D01*
X138065359Y-76200000D01*
X138047963Y-76376627D01*
X138013616Y-76489853D01*
X137996443Y-76546467D01*
X137922348Y-76685087D01*
X137912778Y-76702991D01*
X137883448Y-76738729D01*
X137800186Y-76840186D01*
X137698729Y-76923448D01*
X137662991Y-76952778D01*
X137662989Y-76952779D01*
X137506467Y-77036443D01*
X137449853Y-77053616D01*
X137336627Y-77087963D01*
X137270442Y-77094482D01*
X137204260Y-77101000D01*
X137115740Y-77101000D01*
X137049558Y-77094482D01*
X136983373Y-77087963D01*
X136870147Y-77053616D01*
X136813533Y-77036443D01*
X136657011Y-76952779D01*
X136657009Y-76952778D01*
X136621271Y-76923448D01*
X136519814Y-76840186D01*
X136436552Y-76738729D01*
X136407222Y-76702991D01*
X136397652Y-76685087D01*
X136323557Y-76546467D01*
X136306384Y-76489853D01*
X136272037Y-76376627D01*
X136254641Y-76200000D01*
X136272037Y-76023373D01*
X136323557Y-75853534D01*
X136323557Y-75853533D01*
X136407221Y-75697011D01*
X136407222Y-75697009D01*
X136436552Y-75661271D01*
X136519814Y-75559814D01*
X136621271Y-75476552D01*
X136657009Y-75447222D01*
X136674913Y-75437652D01*
X136813533Y-75363557D01*
X136870147Y-75346384D01*
X136983373Y-75312037D01*
X137049558Y-75305518D01*
X137115740Y-75299000D01*
X137204260Y-75299000D01*
X137270442Y-75305518D01*
X137270442Y-75305518D01*
G37*
G36*
X134730442Y-75305518D02*
X134796627Y-75312037D01*
X134909853Y-75346384D01*
X134966467Y-75363557D01*
X135105087Y-75437652D01*
X135122991Y-75447222D01*
X135158729Y-75476552D01*
X135260186Y-75559814D01*
X135343448Y-75661271D01*
X135372778Y-75697009D01*
X135372779Y-75697011D01*
X135456443Y-75853533D01*
X135456443Y-75853534D01*
X135507963Y-76023373D01*
X135525359Y-76200000D01*
X135507963Y-76376627D01*
X135473616Y-76489853D01*
X135456443Y-76546467D01*
X135382348Y-76685087D01*
X135372778Y-76702991D01*
X135343448Y-76738729D01*
X135260186Y-76840186D01*
X135158729Y-76923448D01*
X135122991Y-76952778D01*
X135122989Y-76952779D01*
X134966467Y-77036443D01*
X134909853Y-77053616D01*
X134796627Y-77087963D01*
X134730442Y-77094482D01*
X134664260Y-77101000D01*
X134575740Y-77101000D01*
X134509558Y-77094482D01*
X134443373Y-77087963D01*
X134330147Y-77053616D01*
X134273533Y-77036443D01*
X134117011Y-76952779D01*
X134117009Y-76952778D01*
X134081271Y-76923448D01*
X133979814Y-76840186D01*
X133896552Y-76738729D01*
X133867222Y-76702991D01*
X133857652Y-76685087D01*
X133783557Y-76546467D01*
X133766384Y-76489853D01*
X133732037Y-76376627D01*
X133714641Y-76200000D01*
X133732037Y-76023373D01*
X133783557Y-75853534D01*
X133783557Y-75853533D01*
X133867221Y-75697011D01*
X133867222Y-75697009D01*
X133896552Y-75661271D01*
X133979814Y-75559814D01*
X134081271Y-75476552D01*
X134117009Y-75447222D01*
X134134913Y-75437652D01*
X134273533Y-75363557D01*
X134330147Y-75346384D01*
X134443373Y-75312037D01*
X134509558Y-75305518D01*
X134575740Y-75299000D01*
X134664260Y-75299000D01*
X134730442Y-75305518D01*
X134730442Y-75305518D01*
G37*
G36*
X132190442Y-75305518D02*
X132256627Y-75312037D01*
X132369853Y-75346384D01*
X132426467Y-75363557D01*
X132565087Y-75437652D01*
X132582991Y-75447222D01*
X132618729Y-75476552D01*
X132720186Y-75559814D01*
X132803448Y-75661271D01*
X132832778Y-75697009D01*
X132832779Y-75697011D01*
X132916443Y-75853533D01*
X132916443Y-75853534D01*
X132967963Y-76023373D01*
X132985359Y-76200000D01*
X132967963Y-76376627D01*
X132933616Y-76489853D01*
X132916443Y-76546467D01*
X132842348Y-76685087D01*
X132832778Y-76702991D01*
X132803448Y-76738729D01*
X132720186Y-76840186D01*
X132618729Y-76923448D01*
X132582991Y-76952778D01*
X132582989Y-76952779D01*
X132426467Y-77036443D01*
X132369853Y-77053616D01*
X132256627Y-77087963D01*
X132190442Y-77094482D01*
X132124260Y-77101000D01*
X132035740Y-77101000D01*
X131969558Y-77094482D01*
X131903373Y-77087963D01*
X131790147Y-77053616D01*
X131733533Y-77036443D01*
X131577011Y-76952779D01*
X131577009Y-76952778D01*
X131541271Y-76923448D01*
X131439814Y-76840186D01*
X131356552Y-76738729D01*
X131327222Y-76702991D01*
X131317652Y-76685087D01*
X131243557Y-76546467D01*
X131226384Y-76489853D01*
X131192037Y-76376627D01*
X131174641Y-76200000D01*
X131192037Y-76023373D01*
X131243557Y-75853534D01*
X131243557Y-75853533D01*
X131327221Y-75697011D01*
X131327222Y-75697009D01*
X131356552Y-75661271D01*
X131439814Y-75559814D01*
X131541271Y-75476552D01*
X131577009Y-75447222D01*
X131594913Y-75437652D01*
X131733533Y-75363557D01*
X131790147Y-75346384D01*
X131903373Y-75312037D01*
X131969558Y-75305518D01*
X132035740Y-75299000D01*
X132124260Y-75299000D01*
X132190442Y-75305518D01*
X132190442Y-75305518D01*
G37*
G36*
X129650442Y-75305518D02*
X129716627Y-75312037D01*
X129829853Y-75346384D01*
X129886467Y-75363557D01*
X130025087Y-75437652D01*
X130042991Y-75447222D01*
X130078729Y-75476552D01*
X130180186Y-75559814D01*
X130263448Y-75661271D01*
X130292778Y-75697009D01*
X130292779Y-75697011D01*
X130376443Y-75853533D01*
X130376443Y-75853534D01*
X130427963Y-76023373D01*
X130445359Y-76200000D01*
X130427963Y-76376627D01*
X130393616Y-76489853D01*
X130376443Y-76546467D01*
X130302348Y-76685087D01*
X130292778Y-76702991D01*
X130263448Y-76738729D01*
X130180186Y-76840186D01*
X130078729Y-76923448D01*
X130042991Y-76952778D01*
X130042989Y-76952779D01*
X129886467Y-77036443D01*
X129829853Y-77053616D01*
X129716627Y-77087963D01*
X129650442Y-77094482D01*
X129584260Y-77101000D01*
X129495740Y-77101000D01*
X129429558Y-77094482D01*
X129363373Y-77087963D01*
X129250147Y-77053616D01*
X129193533Y-77036443D01*
X129037011Y-76952779D01*
X129037009Y-76952778D01*
X129001271Y-76923448D01*
X128899814Y-76840186D01*
X128816552Y-76738729D01*
X128787222Y-76702991D01*
X128777652Y-76685087D01*
X128703557Y-76546467D01*
X128686384Y-76489853D01*
X128652037Y-76376627D01*
X128634641Y-76200000D01*
X128652037Y-76023373D01*
X128703557Y-75853534D01*
X128703557Y-75853533D01*
X128787221Y-75697011D01*
X128787222Y-75697009D01*
X128816552Y-75661271D01*
X128899814Y-75559814D01*
X129001271Y-75476552D01*
X129037009Y-75447222D01*
X129054913Y-75437652D01*
X129193533Y-75363557D01*
X129250147Y-75346384D01*
X129363373Y-75312037D01*
X129429558Y-75305518D01*
X129495740Y-75299000D01*
X129584260Y-75299000D01*
X129650442Y-75305518D01*
X129650442Y-75305518D01*
G37*
G36*
X152510442Y-75305518D02*
X152576627Y-75312037D01*
X152689853Y-75346384D01*
X152746467Y-75363557D01*
X152885087Y-75437652D01*
X152902991Y-75447222D01*
X152938729Y-75476552D01*
X153040186Y-75559814D01*
X153123448Y-75661271D01*
X153152778Y-75697009D01*
X153152779Y-75697011D01*
X153236443Y-75853533D01*
X153236443Y-75853534D01*
X153287963Y-76023373D01*
X153305359Y-76200000D01*
X153287963Y-76376627D01*
X153253616Y-76489853D01*
X153236443Y-76546467D01*
X153162348Y-76685087D01*
X153152778Y-76702991D01*
X153123448Y-76738729D01*
X153040186Y-76840186D01*
X152938729Y-76923448D01*
X152902991Y-76952778D01*
X152902989Y-76952779D01*
X152746467Y-77036443D01*
X152689853Y-77053616D01*
X152576627Y-77087963D01*
X152510442Y-77094482D01*
X152444260Y-77101000D01*
X152355740Y-77101000D01*
X152289558Y-77094482D01*
X152223373Y-77087963D01*
X152110147Y-77053616D01*
X152053533Y-77036443D01*
X151897011Y-76952779D01*
X151897009Y-76952778D01*
X151861271Y-76923448D01*
X151759814Y-76840186D01*
X151676552Y-76738729D01*
X151647222Y-76702991D01*
X151637652Y-76685087D01*
X151563557Y-76546467D01*
X151546384Y-76489853D01*
X151512037Y-76376627D01*
X151494641Y-76200000D01*
X151512037Y-76023373D01*
X151563557Y-75853534D01*
X151563557Y-75853533D01*
X151647221Y-75697011D01*
X151647222Y-75697009D01*
X151676552Y-75661271D01*
X151759814Y-75559814D01*
X151861271Y-75476552D01*
X151897009Y-75447222D01*
X151914913Y-75437652D01*
X152053533Y-75363557D01*
X152110147Y-75346384D01*
X152223373Y-75312037D01*
X152289558Y-75305518D01*
X152355740Y-75299000D01*
X152444260Y-75299000D01*
X152510442Y-75305518D01*
X152510442Y-75305518D01*
G37*
G36*
X155050442Y-75305518D02*
X155116627Y-75312037D01*
X155229853Y-75346384D01*
X155286467Y-75363557D01*
X155425087Y-75437652D01*
X155442991Y-75447222D01*
X155478729Y-75476552D01*
X155580186Y-75559814D01*
X155663448Y-75661271D01*
X155692778Y-75697009D01*
X155692779Y-75697011D01*
X155776443Y-75853533D01*
X155776443Y-75853534D01*
X155827963Y-76023373D01*
X155845359Y-76200000D01*
X155827963Y-76376627D01*
X155793616Y-76489853D01*
X155776443Y-76546467D01*
X155702348Y-76685087D01*
X155692778Y-76702991D01*
X155663448Y-76738729D01*
X155580186Y-76840186D01*
X155478729Y-76923448D01*
X155442991Y-76952778D01*
X155442989Y-76952779D01*
X155286467Y-77036443D01*
X155229853Y-77053616D01*
X155116627Y-77087963D01*
X155050442Y-77094482D01*
X154984260Y-77101000D01*
X154895740Y-77101000D01*
X154829558Y-77094482D01*
X154763373Y-77087963D01*
X154650147Y-77053616D01*
X154593533Y-77036443D01*
X154437011Y-76952779D01*
X154437009Y-76952778D01*
X154401271Y-76923448D01*
X154299814Y-76840186D01*
X154216552Y-76738729D01*
X154187222Y-76702991D01*
X154177652Y-76685087D01*
X154103557Y-76546467D01*
X154086384Y-76489853D01*
X154052037Y-76376627D01*
X154034641Y-76200000D01*
X154052037Y-76023373D01*
X154103557Y-75853534D01*
X154103557Y-75853533D01*
X154187221Y-75697011D01*
X154187222Y-75697009D01*
X154216552Y-75661271D01*
X154299814Y-75559814D01*
X154401271Y-75476552D01*
X154437009Y-75447222D01*
X154454913Y-75437652D01*
X154593533Y-75363557D01*
X154650147Y-75346384D01*
X154763373Y-75312037D01*
X154829558Y-75305518D01*
X154895740Y-75299000D01*
X154984260Y-75299000D01*
X155050442Y-75305518D01*
X155050442Y-75305518D01*
G37*
G36*
X149970442Y-75305518D02*
X150036627Y-75312037D01*
X150149853Y-75346384D01*
X150206467Y-75363557D01*
X150345087Y-75437652D01*
X150362991Y-75447222D01*
X150398729Y-75476552D01*
X150500186Y-75559814D01*
X150583448Y-75661271D01*
X150612778Y-75697009D01*
X150612779Y-75697011D01*
X150696443Y-75853533D01*
X150696443Y-75853534D01*
X150747963Y-76023373D01*
X150765359Y-76200000D01*
X150747963Y-76376627D01*
X150713616Y-76489853D01*
X150696443Y-76546467D01*
X150622348Y-76685087D01*
X150612778Y-76702991D01*
X150583448Y-76738729D01*
X150500186Y-76840186D01*
X150398729Y-76923448D01*
X150362991Y-76952778D01*
X150362989Y-76952779D01*
X150206467Y-77036443D01*
X150149853Y-77053616D01*
X150036627Y-77087963D01*
X149970442Y-77094482D01*
X149904260Y-77101000D01*
X149815740Y-77101000D01*
X149749558Y-77094482D01*
X149683373Y-77087963D01*
X149570147Y-77053616D01*
X149513533Y-77036443D01*
X149357011Y-76952779D01*
X149357009Y-76952778D01*
X149321271Y-76923448D01*
X149219814Y-76840186D01*
X149136552Y-76738729D01*
X149107222Y-76702991D01*
X149097652Y-76685087D01*
X149023557Y-76546467D01*
X149006384Y-76489853D01*
X148972037Y-76376627D01*
X148954641Y-76200000D01*
X148972037Y-76023373D01*
X149023557Y-75853534D01*
X149023557Y-75853533D01*
X149107221Y-75697011D01*
X149107222Y-75697009D01*
X149136552Y-75661271D01*
X149219814Y-75559814D01*
X149321271Y-75476552D01*
X149357009Y-75447222D01*
X149374913Y-75437652D01*
X149513533Y-75363557D01*
X149570147Y-75346384D01*
X149683373Y-75312037D01*
X149749558Y-75305518D01*
X149815740Y-75299000D01*
X149904260Y-75299000D01*
X149970442Y-75305518D01*
X149970442Y-75305518D01*
G37*
M02*
